{
.appVersion = "1075";
DisplayStrings = (
"B/phoPhung-thai/boBaimai-thai HO/boBaimai-thai/saraAa-thai Cnoh\012/phoPhung-thai/koKai-thai dbnrHCAMBURGEFONSTIV\012hamburgefonstiv\012/phoPhan-thai/foFan-thai/poPla-thai/phoPhung-thai/foFa-thai/boBaimai-thai/khoKhai-thai/phoPhung-thai/choChang-thai \012/phoPhung-thai/boBaimai-thai/koKai-thai/ru-thai/poPla-thai/ru-thai/boBaimai-thai/lu-thai/ru-thai.short/lu-thai.short a/lakkhangyao-thai/boBaimai-thai/ru_lakkhangyao-thai/lu_lakkhangyao-thai \012/saraAa-thai/lakkhangyao-thai/boBaimai-thai/saraE-thai/saraAe-thai/yoYing-thai.less/thoThung-thai \012/doChada-thai/doChada-thai.short/toPatak-thai/toPatak-thai.short/yoYing-thai/noNu-thai/woWaen-thai \012/thoThahan-thai/ngoNgu-thai",
"HDOEBRKPEFILOHTUGIJVHAQA\012mno\012"
);
copyright = "Copyright © 2018 by Cadson Demak Co.,Ltd.. All rights reserved.";
customParameters = (
{
name = vendorID;
value = CDK;
},
{
name = description;
value = "Copyright (c) 2018, Cadson Demak (info@cadsondemak.com)";
},
{
name = license;

glyphs = (
{
color = 4;
glyphname = A;
lastChange = "2018-01-30 06:47:11 +0000";
layers = (
{
background = {
paths = (
{
closed = 1;
nodes = (
"587 0 LINE",
"453 533 LINE SMOOTH",
"429 615 OFFCURVE",
"413 710 OFFCURVE",
"316 710 CURVE SMOOTH",
"224 710 OFFCURVE",
"209 626 OFFCURVE",
"181 533 CURVE SMOOTH",
"47 0 LINE",
"92 0 LINE",
"151 224 LINE",
"483 224 LINE",
"542 0 LINE"
);
},
{
closed = 1;
nodes = (
"224 509 LINE SMOOTH",
"236 549 OFFCURVE",
"243 578 OFFCURVE",
"257 615 CURVE SMOOTH",
"278 672 OFFCURVE",
"341 695 OFFCURVE",
"375 618 CURVE SMOOTH",
"385 595 OFFCURVE",
"394 569 OFFCURVE",
"410 509 CURVE SMOOTH",
"473 263 LINE",
"161 263 LINE"
);
}
);
};
layerId = "0B1DFD06-3317-40CA-B510-4969A0718C16";
paths = (
{
closed = 1;
nodes = (
"103 0 LINE",
"257 601 LINE SMOOTH",
"273 664 OFFCURVE",
"300 682 OFFCURVE",
"335 682 CURVE SMOOTH",
"370 682 OFFCURVE",
"397 664 OFFCURVE",
"413 601 CURVE SMOOTH",
"567 0 LINE",
"600 0 LINE",
"449 601 LINE SMOOTH",
"430 678 OFFCURVE",
"395 710 OFFCURVE",
"335 710 CURVE SMOOTH",
"275 710 OFFCURVE",
"240 678 OFFCURVE",
"221 601 CURVE SMOOTH",
"70 0 LINE"
);
},
{
closed = 1;
nodes = (
"519 229 LINE",
"519 257 LINE",
"147 257 LINE",
"147 229 LINE"
);
}
);
width = 670;
}
);
note = A;
unicode = 0041;
},
{
color = 4;
glyphname = B;
lastChange = "2018-01-30 05:59:42 +0000";
layers = (
{
background = {
paths = (
{
closed = 1;
nodes = (
"445 429 OFFCURVE",
"470 446 OFFCURVE",
"489 472 CURVE SMOOTH",
"507 498 OFFCURVE",
"519 526 OFFCURVE",
"519 558 CURVE SMOOTH",
"519 597 OFFCURVE",
"507 630 OFFCURVE",
"481 656 CURVE SMOOTH",
"455 683 OFFCURVE",
"428 699 OFFCURVE",
"376 699 CURVE SMOOTH",
"115 699 LINE",
"115 0 LINE",
"365 0 LINE SMOOTH",
"454 0 OFFCURVE",
"594 33 OFFCURVE",
"595 209 CURVE SMOOTH",
"598 351 OFFCURVE",
"481 403 OFFCURVE",
"412 418 CURVE"
);
},
{
closed = 1;
nodes = (
"159 37 LINE",
"159 207 OFFCURVE",
"158 481 OFFCURVE",
"158 663 CURVE",
"375 663 LINE SMOOTH",
"434 665 OFFCURVE",
"477 615 OFFCURVE",
"477 555 CURVE SMOOTH",
"477 496 OFFCURVE",
"418 440 OFFCURVE",
"362 440 CURVE SMOOTH",
"362 440 LINE",
"290 440 LINE",
"290 400 LINE",
"362 400 LINE",
"362 400 LINE",
"435 394 OFFCURVE",
"549 328 OFFCURVE",
"549 213 CURVE SMOOTH",
"549 73 OFFCURVE",
"451 37 OFFCURVE",
"375 37 CURVE SMOOTH"
);
}
);
};
layerId = "0B1DFD06-3317-40CA-B510-4969A0718C16";
paths = (
{
closed = 1;
nodes = (
"471 378 OFFCURVE",
"523 458 OFFCURVE",
"523 535 CURVE SMOOTH",
"523 626 OFFCURVE",
"459 700 OFFCURVE",
"360 700 CURVE SMOOTH",
"120 700 LINE",
"120 0 LINE",
"375 0 LINE SMOOTH",
"512 0 OFFCURVE",
"597 77 OFFCURVE",
"595 199 CURVE SMOOTH",
"591 361 OFFCURVE",
"449 408 OFFCURVE",
"343 389 CURVE",
"359 378 LINE"
);
},
{
closed = 1;
nodes = (
"154 28 LINE",
"154 672 LINE",
"352 672 LINE SMOOTH",
"435 672 OFFCURVE",
"488 619 OFFCURVE",
"488 535 CURVE SMOOTH",
"488 451 OFFCURVE",
"427 398 OFFCURVE",
"332 398 CURVE SMOOTH",
"290 398 LINE",
"290 370 LINE",
"355 370 LINE SMOOTH",
"477 370 OFFCURVE",
"559 316 OFFCURVE",
"559 199 CURVE SMOOTH",
"559 89 OFFCURVE",
"490 28 OFFCURVE",
"365 28 CURVE SMOOTH"
);
}
);
width = 661;
}
);
leftMetricsKey = H;
note = B;
unicode = 0042;
},
{
color = 4;
glyphname = C;
lastChange = "2018-01-30 05:15:55 +0000";
layers = (
{
background = {
paths = (
{
closed = 1;
nodes = (
"178 78 OFFCURVE",
"147 118 OFFCURVE",
"147 161 CURVE SMOOTH",
"147 223 OFFCURVE",
"147 282 OFFCURVE",
"147 348 CURVE SMOOTH",
"147 413 OFFCURVE",
"147 476 OFFCURVE",
"147 538 CURVE SMOOTH",
"147 580 OFFCURVE",
"178 620 OFFCURVE",
"217 644 CURVE SMOOTH",
"295 690 OFFCURVE",
"483 686 OFFCURVE",
"525 587 CURVE",
"564 603 LINE",
"505 720 OFFCURVE",
"280 729 OFFCURVE",
"183 672 CURVE SMOOTH",
"138 647 OFFCURVE",
"101 607 OFFCURVE",
"101 557 CURVE SMOOTH",
"101 142 LINE SMOOTH",
"101 92 OFFCURVE",
"138 52 OFFCURVE",
"183 26 CURVE SMOOTH",
"280 -32 OFFCURVE",
"505 -23 OFFCURVE",
"564 96 CURVE",
"525 112 LINE",
"483 12 OFFCURVE",
"295 9 OFFCURVE",
"217 55 CURVE SMOOTH"
);
},
{
closed = 1;
nodes = (
"501 -10 OFFCURVE",
"598 65 OFFCURVE",
"598 184 CURVE SMOOTH",
"598 516 LINE SMOOTH",
"598 635 OFFCURVE",
"501 710 OFFCURVE",
"349 710 CURVE SMOOTH",
"197 710 OFFCURVE",
"101 635 OFFCURVE",
"101 516 CURVE SMOOTH",
"101 184 LINE SMOOTH",
"101 65 OFFCURVE",
"197 -10 OFFCURVE",
"349 -10 CURVE SMOOTH"
);
},
{
closed = 1;
nodes = (
"218 18 OFFCURVE",
"135 83 OFFCURVE",
"135 184 CURVE SMOOTH",
"135 516 LINE SMOOTH",
"135 617 OFFCURVE",
"218 682 OFFCURVE",
"349 682 CURVE SMOOTH",
"481 682 OFFCURVE",
"565 617 OFFCURVE",
"565 516 CURVE SMOOTH",
"565 184 LINE SMOOTH",
"565 83 OFFCURVE",
"481 18 OFFCURVE",
"349 18 CURVE SMOOTH"
);
}
);
};
layerId = "0B1DFD06-3317-40CA-B510-4969A0718C16";
paths = (
{
closed = 1;
nodes = (
"544 105 LINE",
"511 50 OFFCURVE",
"442 18 OFFCURVE",
"349 18 CURVE SMOOTH",
"218 18 OFFCURVE",
"135 83 OFFCURVE",
"135 184 CURVE SMOOTH",
"135 516 LINE SMOOTH",
"135 617 OFFCURVE",
"218 682 OFFCURVE",
"349 682 CURVE SMOOTH",
"442 682 OFFCURVE",
"512 650 OFFCURVE",
"544 595 CURVE",
"575 607 LINE",
"538 672 OFFCURVE",
"457 710 OFFCURVE",
"349 710 CURVE SMOOTH",
"197 710 OFFCURVE",
"101 635 OFFCURVE",
"101 516 CURVE SMOOTH",
"101 184 LINE SMOOTH",
"101 65 OFFCURVE",
"197 -10 OFFCURVE",
"349 -10 CURVE SMOOTH",
"457 -10 OFFCURVE",
"536 28 OFFCURVE",
"574 92 CURVE"
);
}
);
width = 635;
}
);
leftMetricsKey = O;
note = C;
unicode = 0043;
},
{
color = 4;
glyphname = D;
lastChange = "2018-01-30 05:28:33 +0000";
layers = (
{
background = {
paths = (
{
closed = 1;
nodes = (
"339 0 OFFCURVE",
"572 -23 OFFCURVE",
"577 352 CURVE",
"574 666 OFFCURVE",
"372 705 OFFCURVE",
"102 703 CURVE",
"102 0 LINE",
"102 0 LINE"
);
},
{
closed = 1;
nodes = (
"535 118 OFFCURVE",
"444 23 OFFCURVE",
"145 36 CURVE",
"145 140 OFFCURVE",
"145 563 OFFCURVE",
"145 667 CURVE",
"426 672 OFFCURVE",
"533 572 OFFCURVE",
"533 352 CURVE"
);
}
);
};
layerId = "0B1DFD06-3317-40CA-B510-4969A0718C16";
paths = (
{
closed = 1;
nodes = (
"206 0 LINE SMOOTH",
"476 -1 OFFCURVE",
"573 91 OFFCURVE",
"576 350 CURVE SMOOTH",
"573 608 OFFCURVE",
"476 700 OFFCURVE",
"206 700 CURVE SMOOTH",
"102 700 LINE",
"102 0 LINE"
);
},
{
closed = 1;
nodes = (
"135 674 LINE",
"206 674 LINE SMOOTH",
"454 672 OFFCURVE",
"543 587 OFFCURVE",
"543 350 CURVE SMOOTH",
"545 113 OFFCURVE",
"456 28 OFFCURVE",
"206 28 CURVE SMOOTH",
"135 28 LINE"
);
}
);
width = 656;
}
);
note = D;
unicode = 0044;
},
{
color = 4;
glyphname = E;
lastChange = "2018-01-30 05:59:55 +0000";
layers = (
{
background = {
paths = (
{
closed = 1;
nodes = (
"370 661 OFFCURVE",
"529 661 OFFCURVE",
"548 661 CURVE",
"548 699 LINE",
"529 699 OFFCURVE",
"371 699 OFFCURVE",
"353 699 CURVE SMOOTH",
"209 696 OFFCURVE",
"97 667 OFFCURVE",
"97 441 CURVE SMOOTH",
"97 252 LINE SMOOTH",
"97 26 OFFCURVE",
"209 -3 OFFCURVE",
"353 -6 CURVE SMOOTH",
"371 -6 OFFCURVE",
"529 -6 OFFCURVE",
"548 -6 CURVE",
"548 30 LINE",
"529 30 OFFCURVE",
"370 30 OFFCURVE",
"350 30 CURVE SMOOTH",
"242 32 OFFCURVE",
"140 68 OFFCURVE",
"143 250 CURVE SMOOTH",
"143 315 LINE",
"439 315 LINE",
"439 354 LINE",
"143 354 LINE",
"143 443 LINE",
"140 626 OFFCURVE",
"242 660 OFFCURVE",
"350 661 CURVE SMOOTH"
);
}
);
};
layerId = "0B1DFD06-3317-40CA-B510-4969A0718C16";
paths = (
{
closed = 1;
nodes = (
"101 79 OFFCURVE",
"185 0 OFFCURVE",
"319 0 CURVE SMOOTH",
"533 0 LINE",
"533 28 LINE",
"319 28 LINE SMOOTH",
"206 28 OFFCURVE",
"135 97 OFFCURVE",
"135 204 CURVE SMOOTH",
"135 356 LINE",
"445 356 LINE",
"445 384 LINE",
"135 384 LINE",
"135 496 LINE SMOOTH",
"135 603 OFFCURVE",
"206 672 OFFCURVE",
"319 672 CURVE SMOOTH",
"533 672 LINE",
"533 700 LINE",
"319 700 LINE SMOOTH",
"185 700 OFFCURVE",
"101 621 OFFCURVE",
"101 496 CURVE SMOOTH",
"101 204 LINE SMOOTH"
);
}
);
width = 593;
}
);
leftMetricsKey = O;
note = E;
unicode = 0045;
},
{
color = 4;
glyphname = F;
lastChange = "2018-01-30 05:44:49 +0000";
layers = (
{
background = {
paths = (
{
closed = 1;
nodes = (
"375 665 OFFCURVE",
"533 665 OFFCURVE",
"554 665 CURVE",
"554 703 LINE",
"533 703 OFFCURVE",
"375 703 OFFCURVE",
"357 703 CURVE SMOOTH",
"214 703 OFFCURVE",
"102 671 OFFCURVE",
"102 445 CURVE SMOOTH",
"102 0 LINE",
"147 0 LINE",
"148 319 LINE",
"443 319 LINE",
"443 358 LINE",
"148 358 LINE",
"148 447 LINE",
"144 629 OFFCURVE",
"247 665 OFFCURVE",
"355 665 CURVE SMOOTH"
);
}
);
};
layerId = "0B1DFD06-3317-40CA-B510-4969A0718C16";
paths = (
{
closed = 1;
nodes = (
"139 0 LINE",
"139 336 LINE",
"429 336 LINE",
"429 364 LINE",
"139 364 LINE",
"139 496 LINE SMOOTH",
"139 603 OFFCURVE",
"210 672 OFFCURVE",
"323 672 CURVE SMOOTH",
"537 672 LINE",
"537 700 LINE",
"323 700 LINE SMOOTH",
"189 700 OFFCURVE",
"105 621 OFFCURVE",
"105 496 CURVE SMOOTH",
"105 0 LINE"
);
}
);
width = 615;
}
);
note = F;
unicode = 0046;
},
{
color = 4;
glyphname = G;
lastChange = "2018-01-30 06:33:08 +0000";
layers = (
{
background = {
paths = (
{
closed = 1;
nodes = (
"420 351 LINE",
"493 345 OFFCURVE",
"564 328 OFFCURVE",
"564 213 CURVE SMOOTH",
"564 72 OFFCURVE",
"466 32 OFFCURVE",
"391 32 CURVE SMOOTH",
"365 32 OFFCURVE",
"375 32 OFFCURVE",
"357 32 CURVE SMOOTH",
"247 32 OFFCURVE",
"145 68 OFFCURVE",
"148 250 CURVE SMOOTH",
"150 403 OFFCURVE",
"148 470 OFFCURVE",
"148 536 CURVE SMOOTH",
"148 578 OFFCURVE",
"180 618 OFFCURVE",
"220 643 CURVE SMOOTH",
"296 689 OFFCURVE",
"490 684 OFFCURVE",
"532 585 CURVE",
"572 601 LINE",
"513 719 OFFCURVE",
"283 728 OFFCURVE",
"186 670 CURVE SMOOTH",
"141 646 OFFCURVE",
"102 605 OFFCURVE",
"102 555 CURVE SMOOTH",
"102 252 LINE SMOOTH",
"102 26 OFFCURVE",
"216 -3 OFFCURVE",
"358 -6 CURVE",
"358 -6 OFFCURVE",
"360 -6 OFFCURVE",
"381 -7 CURVE",
"470 -7 OFFCURVE",
"608 32 OFFCURVE",
"611 207 CURVE SMOOTH",
"613 335 OFFCURVE",
"542 390 OFFCURVE",
"420 390 CURVE"
);
},
{
closed = 0;
nodes = (
"579 98 LINE",
"595 127 OFFCURVE",
"605 165 OFFCURVE",
"606 213 CURVE SMOOTH",
"608 335 OFFCURVE",
"539 390 OFFCURVE",
"420 390 CURVE",
"420 362 LINE",
"497 362 OFFCURVE",
"572 337 OFFCURVE",
"572 213 CURVE SMOOTH",
"572 170 OFFCURVE",
"562 136 OFFCURVE",
"547 109 CURVE SMOOTH"
);
},
{
closed = 0;
nodes = (
"544 105 LINE",
"511 50 OFFCURVE",
"442 18 OFFCURVE",
"349 18 CURVE SMOOTH",
"218 18 OFFCURVE",
"135 83 OFFCURVE",
"135 184 CURVE SMOOTH",
"135 516 LINE SMOOTH",
"135 617 OFFCURVE",
"218 682 OFFCURVE",
"349 682 CURVE SMOOTH",
"442 682 OFFCURVE",
"512 650 OFFCURVE",
"544 595 CURVE",
"575 607 LINE",
"538 672 OFFCURVE",
"457 710 OFFCURVE",
"349 710 CURVE SMOOTH",
"197 710 OFFCURVE",
"101 635 OFFCURVE",
"101 516 CURVE SMOOTH",
"101 184 LINE SMOOTH",
"101 65 OFFCURVE",
"197 -10 OFFCURVE",
"349 -10 CURVE SMOOTH",
"457 -10 OFFCURVE",
"536 28 OFFCURVE",
"574 92 CURVE"
);
}
);
};
layerId = "0B1DFD06-3317-40CA-B510-4969A0718C16";
paths = (
{
closed = 1;
nodes = (
"508 -10 OFFCURVE",
"606 63 OFFCURVE",
"606 213 CURVE SMOOTH",
"608 335 OFFCURVE",
"539 390 OFFCURVE",
"420 390 CURVE",
"420 362 LINE",
"497 362 OFFCURVE",
"572 337 OFFCURVE",
"572 213 CURVE SMOOTH",
"572 82 OFFCURVE",
"499 18 OFFCURVE",
"349 18 CURVE SMOOTH",
"218 18 OFFCURVE",
"135 83 OFFCURVE",
"135 184 CURVE SMOOTH",
"135 516 LINE SMOOTH",
"135 617 OFFCURVE",
"218 682 OFFCURVE",
"349 682 CURVE SMOOTH",
"442 682 OFFCURVE",
"512 650 OFFCURVE",
"544 595 CURVE",
"575 607 LINE",
"538 672 OFFCURVE",
"457 710 OFFCURVE",
"349 710 CURVE SMOOTH",
"197 710 OFFCURVE",
"101 635 OFFCURVE",
"101 516 CURVE SMOOTH",
"101 184 LINE SMOOTH",
"101 65 OFFCURVE",
"197 -10 OFFCURVE",
"349 -10 CURVE SMOOTH"
);
}
);
width = 676;
}
);
note = G;
unicode = 0047;
},
{
color = 4;
glyphname = H;
lastChange = "2018-01-30 05:45:51 +0000";
layers = (
{
background = {
paths = (
{
closed = 1;
nodes = (
"565 355 LINE",
"204 355 LINE",
"204 700 LINE",
"158 700 LINE",
"158 -3 LINE",
"204 -3 LINE",
"204 316 LINE",
"565 316 LINE",
"565 -3 LINE",
"611 -3 LINE",
"611 700 LINE",
"565 700 LINE"
);
}
);
};
layerId = "0B1DFD06-3317-40CA-B510-4969A0718C16";
paths = (
{
closed = 1;
nodes = (
"154 -3 LINE",
"154 335 LINE",
"566 335 LINE",
"566 -3 LINE",
"600 -3 LINE",
"600 700 LINE",
"566 700 LINE",
"566 363 LINE",
"154 363 LINE",
"154 700 LINE",
"120 700 LINE",
"120 -3 LINE"
);
}
);
width = 720;
}
);
note = H;
rightMetricsKey = "=|";
unicode = 0048;
},
{
color = 4;
glyphname = I;
lastChange = "2018-01-30 05:44:47 +0000";
layers = (
{
background = {
paths = (
{
closed = 1;
nodes = (
"86 703 LINE",
"86 0 LINE",
"130 0 LINE",
"132 703 LINE"
);
}
);
};
layerId = "0B1DFD06-3317-40CA-B510-4969A0718C16";
paths = (
{
closed = 1;
nodes = (
"144 0 LINE",
"144 700 LINE",
"110 700 LINE",
"110 0 LINE"
);
}
);
width = 254;
}
);
note = I;
rightMetricsKey = "=|";
unicode = 0049;
},
{
color = 4;
glyphname = J;
lastChange = "2018-01-30 06:33:10 +0000";
layers = (
{
background = {
paths = (
{
closed = 1;
nodes = (
"72 141 OFFCURVE",
"72 141 OFFCURVE",
"72 139 CURVE SMOOTH",
"73 -68 OFFCURVE",
"390 -59 OFFCURVE",
"391 145 CURVE SMOOTH",
"393 295 OFFCURVE",
"391 548 OFFCURVE",
"391 696 CURVE",
"345 696 LINE",
"345 562 OFFCURVE",
"345 302 OFFCURVE",
"345 168 CURVE SMOOTH",
"347 -16 OFFCURVE",
"131 -22 OFFCURVE",
"116 142 CURVE",
"72 142 LINE"
);
}
);
};
layerId = "0B1DFD06-3317-40CA-B510-4969A0718C16";
paths = (
{
closed = 1;
nodes = (
"338 -9 OFFCURVE",
"390 61 OFFCURVE",
"390 177 CURVE SMOOTH",
"390 700 LINE",
"356 700 LINE",
"356 177 LINE SMOOTH",
"356 75 OFFCURVE",
"311 18 OFFCURVE",
"231 18 CURVE SMOOTH",
"157 18 OFFCURVE",
"113 62 OFFCURVE",
"108 141 CURVE",
"74 141 LINE",
"79 44 OFFCURVE",
"128 -11 OFFCURVE",
"231 -10 CURVE SMOOTH"
);
}
);
width = 482;
}
);
note = J;
unicode = 004A;
},
{
color = 4;
glyphname = K;
lastChange = "2018-01-30 06:05:14 +0000";
layers = (
{
background = {
paths = (
{
closed = 1;
nodes = (
"568 699 LINE",
"506 699 LINE",
"148 352 LINE",
"148 702 LINE",
"102 702 LINE",
"102 0 LINE",
"148 0 LINE",
"148 285 LINE",
"303 439 LINE",
"411 431 OFFCURVE",
"538 390 OFFCURVE",
"535 220 CURVE SMOOTH",
"533 -1 LINE",
"580 -1 LINE",
"580 223 LINE SMOOTH",
"580 413 OFFCURVE",
"464 463 OFFCURVE",
"342 476 CURVE"
);
},
{
closed = 1;
nodes = (
"144 464 LINE",
"144 700 LINE",
"110 700 LINE",
"110 0 LINE",
"144 0 LINE",
"144 436 LINE",
"336 436 LINE SMOOTH",
"471 436 OFFCURVE",
"534 366 OFFCURVE",
"534 220 CURVE SMOOTH",
"534 0 LINE",
"568 0 LINE",
"568 220 LINE SMOOTH",
"568 356 OFFCURVE",
"518 434 OFFCURVE",
"399 459 CURVE SMOOTH",
"378 461 OFFCURVE",
"362 464 OFFCURVE",
"336 464 CURVE"
);
}
);
};
layerId = "0B1DFD06-3317-40CA-B510-4969A0718C16";
paths = (
{
closed = 1;
nodes = (
"567 700 LINE",
"518 700 LINE",
"122 317 LINE",
"122 270 LINE"
);
},
{
closed = 1;
nodes = (
"144 0 LINE",
"144 700 LINE",
"110 700 LINE",
"110 0 LINE"
);
},
{
closed = 1;
nodes = (
"568 0 LINE",
"568 220 LINE SMOOTH",
"568 382 OFFCURVE",
"482 461 OFFCURVE",
"305 464 CURVE",
"279 436 LINE",
"296 436 LINE SMOOTH",
"456 436 OFFCURVE",
"534 366 OFFCURVE",
"534 220 CURVE SMOOTH",
"534 0 LINE"
);
}
);
width = 672;
}
);
note = K;
unicode = 004B;
},
{
color = 4;
glyphname = L;
lastChange = "2018-01-30 05:44:45 +0000";
layers = (
{
background = {
paths = (
{
closed = 1;
nodes = (
"533 36 OFFCURVE",
"374 36 OFFCURVE",
"354 36 CURVE SMOOTH",
"246 37 OFFCURVE",
"144 72 OFFCURVE",
"147 255 CURVE SMOOTH",
"147 702 LINE",
"101 702 LINE",
"101 257 LINE SMOOTH",
"101 32 OFFCURVE",
"213 3 OFFCURVE",
"357 0 CURVE",
"375 -1 OFFCURVE",
"533 -1 OFFCURVE",
"554 -1 CURVE",
"554 36 LINE"
);
}
);
};
layerId = "0B1DFD06-3317-40CA-B510-4969A0718C16";
paths = (
{
closed = 1;
nodes = (
"537 0 LINE",
"537 28 LINE",
"323 28 LINE SMOOTH",
"210 28 OFFCURVE",
"139 97 OFFCURVE",
"139 204 CURVE SMOOTH",
"139 700 LINE",
"105 700 LINE",
"105 204 LINE SMOOTH",
"105 79 OFFCURVE",
"189 0 OFFCURVE",
"323 0 CURVE SMOOTH"
);
}
);
width = 604;
}
);
note = L;
unicode = 004C;
},
{
glyphname = M;
lastChange = "2017-12-19 04:54:46 +0000";
layers = (
{
layerId = "0B1DFD06-3317-40CA-B510-4969A0718C16";
paths = (
{
closed = 1;
nodes = (
"125 700 OFFCURVE",
"119 700 OFFCURVE",
"101 700 CURVE",
"101 0 LINE",
"144 0 LINE",
"144 89 OFFCURVE",
"142 577 OFFCURVE",
"142 654 CURVE",
"216 624 OFFCURVE",
"345 506 OFFCURVE",
"414 380 CURVE",
"446 454 OFFCURVE",
"631 638 OFFCURVE",
"686 656 CURVE",
"686 564 OFFCURVE",
"686 93 OFFCURVE",
"686 0 CURVE",
"729 0 LINE",
"729 700 LINE",
"680 700 LINE",
"611 666 OFFCURVE",
"493 572 OFFCURVE",
"416 456 CURVE",
"349 557 OFFCURVE",
"223 663 OFFCURVE",
"144 700 CURVE"
);
}
);
width = 820;
}
);
note = M;
unicode = 004D;
},
{
glyphname = N;
lastChange = "2017-12-19 04:54:46 +0000";
layers = (
{
layerId = "0B1DFD06-3317-40CA-B510-4969A0718C16";
paths = (
{
closed = 1;
nodes = (
"571 88 OFFCURVE",
"568 55 OFFCURVE",
"539 47 CURVE",
"144 700 LINE",
"101 700 LINE",
"101 0 LINE",
"151 0 LINE",
"152 591 LINE",
"171 551 OFFCURVE",
"492 35 OFFCURVE",
"515 -7 CURVE",
"568 -6 OFFCURVE",
"615 32 OFFCURVE",
"615 131 CURVE SMOOTH",
"615 700 LINE",
"571 700 LINE",
"571 567 OFFCURVE",
"571 280 OFFCURVE",
"571 147 CURVE SMOOTH"
);
}
);
width = 707;
}
);
note = N;
unicode = 004E;
},
{
color = 4;
glyphname = O;
lastChange = "2018-01-30 05:12:48 +0000";
layers = (
{
background = {
paths = (
{
closed = 1;
nodes = (
"101 393 OFFCURVE",
"101 306 OFFCURVE",
"101 168 CURVE SMOOTH",
"101 -76 OFFCURVE",
"598 -76 OFFCURVE",
"598 168 CURVE SMOOTH",
"598 306 OFFCURVE",
"598 393 OFFCURVE",
"598 531 CURVE SMOOTH",
"598 775 OFFCURVE",
"101 775 OFFCURVE",
"101 531 CURVE"
);
},
{
closed = 1;
nodes = (
"145 732 OFFCURVE",
"552 733 OFFCURVE",
"552 510 CURVE SMOOTH",
"552 385 OFFCURVE",
"552 313 OFFCURVE",
"552 187 CURVE SMOOTH",
"552 -33 OFFCURVE",
"145 -36 OFFCURVE",
"145 187 CURVE SMOOTH",
"145 313 OFFCURVE",
"145 385 OFFCURVE",
"145 510 CURVE SMOOTH"
);
}
);
};
layerId = "0B1DFD06-3317-40CA-B510-4969A0718C16";
paths = (
{
closed = 1;
nodes = (
"501 -10 OFFCURVE",
"598 65 OFFCURVE",
"598 184 CURVE SMOOTH",
"598 516 LINE SMOOTH",
"598 635 OFFCURVE",
"501 710 OFFCURVE",
"349 710 CURVE SMOOTH",
"197 710 OFFCURVE",
"101 635 OFFCURVE",
"101 516 CURVE SMOOTH",
"101 184 LINE SMOOTH",
"101 65 OFFCURVE",
"197 -10 OFFCURVE",
"349 -10 CURVE SMOOTH"
);
},
{
closed = 1;
nodes = (
"218 18 OFFCURVE",
"135 83 OFFCURVE",
"135 184 CURVE SMOOTH",
"135 516 LINE SMOOTH",
"135 617 OFFCURVE",
"218 682 OFFCURVE",
"349 682 CURVE SMOOTH",
"481 682 OFFCURVE",
"565 617 OFFCURVE",
"565 516 CURVE SMOOTH",
"565 184 LINE SMOOTH",
"565 83 OFFCURVE",
"481 18 OFFCURVE",
"349 18 CURVE SMOOTH"
);
}
);
width = 692;
}
);
note = O;
unicode = 004F;
},
{
color = 4;
glyphname = P;
lastChange = "2018-01-30 06:50:24 +0000";
layers = (
{
background = {
paths = (
{
closed = 1;
nodes = (
"120 0 LINE",
"120 0 LINE",
"163 0 LINE",
"163 70 OFFCURVE",
"164 173 OFFCURVE",
"164 269 CURVE",
"367 269 LINE SMOOTH",
"501 269 OFFCURVE",
"597 354 OFFCURVE",
"596 467 CURVE SMOOTH",
"593 643 OFFCURVE",
"459 697 OFFCURVE",
"371 697 CURVE SMOOTH",
"295 697 OFFCURVE",
"196 697 OFFCURVE",
"120 697 CURVE"
);
},
{
closed = 1;
nodes = (
"164 308 LINE",
"164 439 OFFCURVE",
"164 562 OFFCURVE",
"164 660 CURVE",
"376 660 LINE SMOOTH",
"450 660 OFFCURVE",
"552 603 OFFCURVE",
"552 463 CURVE SMOOTH",
"552 348 OFFCURVE",
"450 315 OFFCURVE",
"367 308 CURVE"
);
}
);
};
layerId = "0B1DFD06-3317-40CA-B510-4969A0718C16";
paths = (
{
closed = 1;
nodes = (
"400 296 LINE SMOOTH",
"464 296 OFFCURVE",
"578 342 OFFCURVE",
"578 498 CURVE SMOOTH",
"578 654 OFFCURVE",
"464 700 OFFCURVE",
"400 700 CURVE SMOOTH",
"120 700 LINE",
"120 0 LINE",
"154 0 LINE",
"154 296 LINE"
);
},
{
closed = 1;
nodes = (
"546 392 OFFCURVE",
"489 324 OFFCURVE",
"388 324 CURVE SMOOTH",
"154 324 LINE",
"154 672 LINE",
"388 672 LINE SMOOTH",
"489 672 OFFCURVE",
"546 604 OFFCURVE",
"546 498 CURVE SMOOTH"
);
}
);
width = 675;
}
);
leftMetricsKey = H;
note = P;
unicode = 0050;
},
{
color = 4;
glyphname = Q;
lastChange = "2018-01-30 06:57:44 +0000";
layers = (
{
background = {
paths = (
{
closed = 1;
nodes = (
"601 -60 LINE",
"594 -60 LINE SMOOTH",
"545 -62 OFFCURVE",
"487 -47 OFFCURVE",
"452 0 CURVE",
"535 24 OFFCURVE",
"601 82 OFFCURVE",
"601 170 CURVE SMOOTH",
"601 532 LINE SMOOTH",
"601 777 OFFCURVE",
"102 777 OFFCURVE",
"102 532 CURVE SMOOTH",
"102 170 LINE SMOOTH",
"102 30 OFFCURVE",
"265 -30 OFFCURVE",
"404 -10 CURVE",
"450 -82 OFFCURVE",
"538 -99 OFFCURVE",
"601 -99 CURVE"
);
},
{
closed = 1;
nodes = (
"148 512 LINE SMOOTH",
"148 733 OFFCURVE",
"555 735 OFFCURVE",
"555 512 CURVE SMOOTH",
"555 188 LINE SMOOTH",
"555 -32 OFFCURVE",
"148 -35 OFFCURVE",
"148 188 CURVE SMOOTH"
);
}
);
};
layerId = "0B1DFD06-3317-40CA-B510-4969A0718C16";
paths = (
{
closed = 1;
nodes = (
"501 -10 OFFCURVE",
"598 65 OFFCURVE",
"598 184 CURVE SMOOTH",
"598 516 LINE SMOOTH",
"598 635 OFFCURVE",
"501 710 OFFCURVE",
"349 710 CURVE SMOOTH",
"197 710 OFFCURVE",
"101 635 OFFCURVE",
"101 516 CURVE SMOOTH",
"101 184 LINE SMOOTH",
"101 65 OFFCURVE",
"197 -10 OFFCURVE",
"349 -10 CURVE SMOOTH"
);
},
{
closed = 1;
nodes = (
"598 -71 LINE",
"517 -67 OFFCURVE",
"457 -37 OFFCURVE",
"427 12 CURVE",
"389 12 LINE",
"421 -54 OFFCURVE",
"495 -95 OFFCURVE",
"598 -100 CURVE"
);
},
{
closed = 1;
nodes = (
"218 18 OFFCURVE",
"135 83 OFFCURVE",
"135 184 CURVE SMOOTH",
"135 516 LINE SMOOTH",
"135 617 OFFCURVE",
"218 682 OFFCURVE",
"349 682 CURVE SMOOTH",
"481 682 OFFCURVE",
"565 617 OFFCURVE",
"565 516 CURVE SMOOTH",
"565 184 LINE SMOOTH",
"565 83 OFFCURVE",
"481 18 OFFCURVE",
"349 18 CURVE SMOOTH"
);
}
);
width = 692;
}
);
note = Q;
unicode = 0051;
},
{
color = 4;
glyphname = R;
lastChange = "2018-01-30 05:59:39 +0000";
layers = (
{
background = {
paths = (
{
closed = 1;
nodes = (
"511 371 OFFCURVE",
"560 421 OFFCURVE",
"558 503 CURVE SMOOTH",
"557 679 OFFCURVE",
"423 696 OFFCURVE",
"334 696 CURVE SMOOTH",
"120 696 LINE",
"120 -1 LINE",
"164 -1 LINE",
"164 69 OFFCURVE",
"164 240 OFFCURVE",
"164 336 CURVE",
"253 336 LINE",
"366 332 OFFCURVE",
"527 309 OFFCURVE",
"524 118 CURVE SMOOTH",
"522 -3 LINE",
"568 -3 LINE",
"568 121 LINE SMOOTH",
"568 257 OFFCURVE",
"509 321 OFFCURVE",
"433 349 CURVE"
);
},
{
closed = 1;
nodes = (
"338 659 LINE SMOOTH",
"414 659 OFFCURVE",
"517 638 OFFCURVE",
"517 499 CURVE SMOOTH",
"517 384 OFFCURVE",
"414 383 OFFCURVE",
"331 375 CURVE",
"164 375 LINE",
"166 506 OFFCURVE",
"166 561 OFFCURVE",
"166 659 CURVE"
);
}
);
};
layerId = "0B1DFD06-3317-40CA-B510-4969A0718C16";
paths = (
{
closed = 1;
nodes = (
"458 343 OFFCURVE",
"548 402 OFFCURVE",
"548 518 CURVE SMOOTH",
"548 659 OFFCURVE",
"438 700 OFFCURVE",
"376 700 CURVE SMOOTH",
"120 700 LINE",
"120 0 LINE",
"154 0 LINE",
"154 336 LINE",
"326 336 LINE SMOOTH",
"461 336 OFFCURVE",
"524 266 OFFCURVE",
"524 120 CURVE SMOOTH",
"524 0 LINE",
"558 0 LINE",
"558 120 LINE SMOOTH",
"558 256 OFFCURVE",
"508 334 OFFCURVE",
"389 359 CURVE",
"389 343 LINE"
);
},
{
closed = 1;
nodes = (
"358 672 LINE SMOOTH",
"459 672 OFFCURVE",
"516 612 OFFCURVE",
"516 518 CURVE SMOOTH",
"516 409 OFFCURVE",
"436 364 OFFCURVE",
"326 364 CURVE SMOOTH",
"154 364 LINE",
"154 672 LINE"
);
}
);
width = 649;
}
);
leftMetricsKey = H;
note = R;
unicode = 0052;
},
{
glyphname = S;
lastChange = "2017-12-19 04:54:46 +0000";
layers = (
{
layerId = "0B1DFD06-3317-40CA-B510-4969A0718C16";
paths = (
{
closed = 1;
nodes = (
"555 78 OFFCURVE",
"446 19 OFFCURVE",
"342 19 CURVE SMOOTH",
"256 19 OFFCURVE",
"152 49 OFFCURVE",
"128 141 CURVE",
"81 141 LINE",
"105 24 OFFCURVE",
"230 -16 OFFCURVE",
"336 -16 CURVE SMOOTH",
"463 -16 OFFCURVE",
"600 46 OFFCURVE",
"592 193 CURVE SMOOTH",
"581 470 OFFCURVE",
"158 293 OFFCURVE",
"148 516 CURVE SMOOTH",
"144 627 OFFCURVE",
"230 687 OFFCURVE",
"334 687 CURVE SMOOTH",
"414 687 OFFCURVE",
"496 656 OFFCURVE",
"518 571 CURVE",
"564 571 LINE",
"541 674 OFFCURVE",
"436 718 OFFCURVE",
"339 718 CURVE SMOOTH",
"219 718 OFFCURVE",
"95 651 OFFCURVE",
"101 516 CURVE SMOOTH",
"114 255 OFFCURVE",
"535 423 OFFCURVE",
"549 193 CURVE SMOOTH"
);
}
);
width = 682;
}
);
note = S;
unicode = 0053;
},
{
color = 4;
glyphname = T;
lastChange = "2018-01-30 05:44:39 +0000";
layers = (
{
background = {
paths = (
{
closed = 1;
nodes = (
"336 700 LINE",
"336 700 LINE",
"288 700 LINE",
"288 700 LINE",
"53 700 LINE",
"53 656 LINE",
"288 656 LINE",
"288 0 LINE",
"335 0 LINE",
"335 656 LINE",
"573 654 LINE",
"573 700 LINE"
);
}
);
};
layerId = "0B1DFD06-3317-40CA-B510-4969A0718C16";
paths = (
{
closed = 1;
nodes = (
"292 672 LINE",
"292 0 LINE",
"326 0 LINE",
"326 672 LINE",
"548 672 LINE",
"548 700 LINE",
"70 700 LINE",
"70 672 LINE"
);
}
);
width = 618;
}
);
note = T;
rightMetricsKey = "=70";
unicode = 0054;
},
{
color = 4;
glyphname = U;
lastChange = "2018-01-30 05:44:37 +0000";
layers = (
{
background = {
paths = (
{
closed = 1;
nodes = (
"555 699 LINE",
"555 610 OFFCURVE",
"555 290 OFFCURVE",
"555 188 CURVE SMOOTH",
"555 -32 OFFCURVE",
"148 -35 OFFCURVE",
"148 188 CURVE SMOOTH",
"148 292 OFFCURVE",
"148 610 OFFCURVE",
"148 700 CURVE",
"102 700 LINE",
"102 604 OFFCURVE",
"102 279 OFFCURVE",
"102 170 CURVE SMOOTH",
"102 -76 OFFCURVE",
"601 -75 OFFCURVE",
"601 170 CURVE SMOOTH",
"601 278 OFFCURVE",
"601 605 OFFCURVE",
"601 700 CURVE"
);
}
);
};
layerId = "0B1DFD06-3317-40CA-B510-4969A0718C16";
paths = (
{
closed = 1;
nodes = (
"501 -10 OFFCURVE",
"598 65 OFFCURVE",
"598 184 CURVE SMOOTH",
"598 700 LINE",
"565 700 LINE",
"565 184 LINE SMOOTH",
"565 83 OFFCURVE",
"481 18 OFFCURVE",
"349 18 CURVE SMOOTH",
"218 18 OFFCURVE",
"135 83 OFFCURVE",
"135 184 CURVE SMOOTH",
"135 700 LINE",
"101 700 LINE",
"101 184 LINE SMOOTH",
"101 65 OFFCURVE",
"197 -10 OFFCURVE",
"349 -10 CURVE SMOOTH"
);
}
);
width = 692;
}
);
note = U;
unicode = 0055;
},
{
color = 4;
glyphname = V;
lastChange = "2018-01-30 06:46:06 +0000";
layers = (
{
background = {
paths = (
{
closed = 1;
nodes = (
"608 700 LINE",
"564 700 LINE",
"431 191 LINE SMOOTH",
"420 148 OFFCURVE",
"414 121 OFFCURVE",
"397 82 CURVE SMOOTH",
"370 14 OFFCURVE",
"302 29 OFFCURVE",
"280 85 CURVE SMOOTH",
"266 122 OFFCURVE",
"257 151 OFFCURVE",
"247 191 CURVE SMOOTH",
"114 700 LINE",
"69 700 LINE",
"203 167 LINE",
"221 79 OFFCURVE",
"246 -4 OFFCURVE",
"339 -10 CURVE",
"434 -4 OFFCURVE",
"459 92 OFFCURVE",
"475 167 CURVE"
);
}
);
};
layerId = "0B1DFD06-3317-40CA-B510-4969A0718C16";
paths = (
{
closed = 1;
nodes = (
"395 -10 OFFCURVE",
"430 22 OFFCURVE",
"449 99 CURVE SMOOTH",
"600 700 LINE",
"567 700 LINE",
"413 99 LINE SMOOTH",
"397 36 OFFCURVE",
"370 18 OFFCURVE",
"335 18 CURVE SMOOTH",
"300 18 OFFCURVE",
"273 36 OFFCURVE",
"257 99 CURVE SMOOTH",
"103 700 LINE",
"70 700 LINE",
"221 99 LINE SMOOTH",
"239 22 OFFCURVE",
"275 -10 OFFCURVE",
"335 -10 CURVE SMOOTH"
);
}
);
width = 670;
}
);
note = V;
unicode = 0056;
},
{
glyphname = W;
lastChange = "2017-12-19 04:54:46 +0000";
layers = (
{
layerId = "0B1DFD06-3317-40CA-B510-4969A0718C16";
paths = (
{
closed = 1;
nodes = (
"311 37 OFFCURVE",
"413 247 OFFCURVE",
"426 429 CURVE",
"449 275 OFFCURVE",
"533 32 OFFCURVE",
"613 -1 CURVE",
"654 -1 LINE",
"782 697 LINE",
"738 697 LINE",
"706 518 OFFCURVE",
"646 240 OFFCURVE",
"611 60 CURVE",
"544 99 OFFCURVE",
"472 426 OFFCURVE",
"423 555 CURVE",
"385 423 OFFCURVE",
"361 191 OFFCURVE",
"230 59 CURVE",
"115 697 LINE",
"72 697 LINE",
"188 -1 LINE",
"206 -1 OFFCURVE",
"213 -1 OFFCURVE",
"230 -1 CURVE"
);
}
);
width = 856;
}
);
note = W;
unicode = 0057;
},
{
glyphname = X;
lastChange = "2018-01-30 06:56:51 +0000";
layers = (
{
background = {
paths = (
{
closed = 1;
nodes = (
"416 352 LINE",
"686 702 LINE",
"626 702 LINE",
"385 391 LINE",
"145 702 LINE",
"85 702 LINE",
"355 352 LINE",
"83 -1 LINE",
"144 0 LINE",
"385 313 LINE",
"628 0 LINE",
"689 -1 LINE"
);
}
);
};
layerId = "0B1DFD06-3317-40CA-B510-4969A0718C16";
paths = (
{
closed = 1;
nodes = (
"416 352 LINE",
"686 702 LINE",
"626 702 LINE",
"385 391 LINE",
"145 702 LINE",
"85 702 LINE",
"355 352 LINE",
"83 -1 LINE",
"144 0 LINE",
"385 313 LINE",
"628 0 LINE",
"689 -1 LINE"
);
}
);
width = 771;
}
);
note = X;
unicode = 0058;
},
{
glyphname = Y;
lastChange = "2017-12-19 04:54:46 +0000";
layers = (
{
layerId = "0B1DFD06-3317-40CA-B510-4969A0718C16";
paths = (
{
closed = 1;
nodes = (
"490 590 OFFCURVE",
"417 459 OFFCURVE",
"355 357 CURVE SMOOTH",
"331 316 OFFCURVE",
"321 319 OFFCURVE",
"296 362 CURVE SMOOTH",
"243 460 OFFCURVE",
"168 591 OFFCURVE",
"112 697 CURVE",
"60 697 LINE",
"118 591 OFFCURVE",
"198 436 OFFCURVE",
"262 338 CURVE",
"269 328 OFFCURVE",
"283 301 OFFCURVE",
"306 289 CURVE",
"306 -3 LINE",
"352 -3 LINE",
"352 290 LINE",
"367 299 OFFCURVE",
"383 315 OFFCURVE",
"394 334 CURVE SMOOTH",
"459 441 OFFCURVE",
"536 584 OFFCURVE",
"600 697 CURVE",
"551 697 LINE"
);
}
);
width = 666;
}
);
note = Y;
unicode = 0059;
},
{
glyphname = Z;
lastChange = "2017-12-19 04:54:46 +0000";
layers = (
{
layerId = "0B1DFD06-3317-40CA-B510-4969A0718C16";
paths = (
{
closed = 1;
nodes = (
"183 47 OFFCURVE",
"158 75 OFFCURVE",
"150 104 CURVE",
"641 656 LINE",
"641 699 LINE",
"96 699 LINE",
"96 654 LINE",
"569 653 LINE",
"542 621 OFFCURVE",
"119 147 OFFCURVE",
"88 115 CURVE",
"89 62 OFFCURVE",
"127 -1 OFFCURVE",
"226 -1 CURVE SMOOTH",
"641 -1 LINE",
"641 47 LINE",
"508 47 OFFCURVE",
"375 47 OFFCURVE",
"242 47 CURVE SMOOTH"
);
}
);
width = 738;
}
);
note = Z;
unicode = 005A;
},
{
glyphname = a;
lastChange = "2017-12-19 04:55:21 +0000";
layers = (
{
layerId = "0B1DFD06-3317-40CA-B510-4969A0718C16";
paths = (
{
closed = 1;
nodes = (
"413 106 LINE",
"413 106 LINE",
"413 104 LINE",
"367 68 OFFCURVE",
"311 13 OFFCURVE",
"181 30 CURVE SMOOTH",
"131 36 OFFCURVE",
"96 75 OFFCURVE",
"96 127 CURVE SMOOTH",
"96 210 OFFCURVE",
"219 229 OFFCURVE",
"302 243 CURVE SMOOTH",
"345 250 OFFCURVE",
"377 266 OFFCURVE",
"413 293 CURVE"
);
},
{
closed = 1;
nodes = (
"467 1 OFFCURVE",
"480 10 OFFCURVE",
"492 23 CURVE",
"459 47 OFFCURVE",
"459 69 OFFCURVE",
"459 99 CURVE SMOOTH",
"459 355 LINE SMOOTH",
"459 408 OFFCURVE",
"430 456 OFFCURVE",
"387 475 CURVE",
"301 516 OFFCURVE",
"173 516 OFFCURVE",
"78 469 CURVE",
"69 423 LINE",
"154 466 OFFCURVE",
"295 490 OFFCURVE",
"362 439 CURVE SMOOTH",
"393 417 OFFCURVE",
"408 384 OFFCURVE",
"408 357 CURVE SMOOTH",
"408 315 OFFCURVE",
"335 285 OFFCURVE",
"302 278 CURVE SMOOTH",
"201 253 OFFCURVE",
"52 257 OFFCURVE",
"53 127 CURVE SMOOTH",
"53 50 OFFCURVE",
"98 7 OFFCURVE",
"170 -7 CURVE SMOOTH",
"282 -29 OFFCURVE",
"378 27 OFFCURVE",
"413 55 CURVE",
"417 29 OFFCURVE",
"434 3 OFFCURVE",
"459 -6 CURVE"
);
}
);
width = 549;
}
);
note = a;
unicode = 0061;
},
{
glyphname = b;
lastChange = "2017-12-19 04:55:21 +0000";
layers = (
{
layerId = "0B1DFD06-3317-40CA-B510-4969A0718C16";
paths = (
{
closed = 1;
nodes = (
"301 506 OFFCURVE",
"196 487 OFFCURVE",
"162 437 CURVE",
"162 690 LINE",
"118 690 LINE",
"118 347 LINE",
"118 347 LINE",
"118 154 LINE",
"118 154 LINE",
"118 101 LINE SMOOTH",
"118 70 OFFCURVE",
"118 49 OFFCURVE",
"85 24 CURVE",
"96 12 OFFCURVE",
"109 3 OFFCURVE",
"118 -6 CURVE",
"142 4 OFFCURVE",
"157 29 OFFCURVE",
"161 56 CURVE",
"161 56 LINE SMOOTH",
"161 56 OFFCURVE",
"161 56 OFFCURVE",
"162 56 CURVE",
"207 24 OFFCURVE",
"239 -4 OFFCURVE",
"351 -6 CURVE SMOOTH",
"472 -6 OFFCURVE",
"542 102 OFFCURVE",
"552 219 CURVE SMOOTH",
"562 349 OFFCURVE",
"493 493 OFFCURVE",
"329 503 CURVE"
);
},
{
closed = 1;
nodes = (
"498 125 OFFCURVE",
"439 35 OFFCURVE",
"341 32 CURVE SMOOTH",
"259 29 OFFCURVE",
"206 63 OFFCURVE",
"162 105 CURVE",
"162 106 LINE",
"161 106 LINE",
"161 347 LINE",
"162 347 LINE",
"162 378 LINE",
"201 440 OFFCURVE",
"286 475 OFFCURVE",
"331 470 CURVE SMOOTH",
"463 454 OFFCURVE",
"518 334 OFFCURVE",
"506 223 CURVE SMOOTH"
);
}
);
width = 618;
}
);
note = b;
unicode = 0062;
},
{
glyphname = c;
lastChange = "2017-12-19 04:55:21 +0000";
layers = (
{
layerId = "0B1DFD06-3317-40CA-B510-4969A0718C16";
paths = (
{
closed = 1;
nodes = (
"99 286 OFFCURVE",
"99 214 OFFCURVE",
"99 142 CURVE SMOOTH",
"99 93 OFFCURVE",
"137 55 OFFCURVE",
"181 29 CURVE SMOOTH",
"278 -27 OFFCURVE",
"479 -19 OFFCURVE",
"536 98 CURVE",
"498 114 LINE",
"456 14 OFFCURVE",
"290 12 OFFCURVE",
"214 56 CURVE SMOOTH",
"175 81 OFFCURVE",
"145 119 OFFCURVE",
"145 161 CURVE SMOOTH",
"145 221 OFFCURVE",
"145 280 OFFCURVE",
"145 341 CURVE SMOOTH",
"145 383 OFFCURVE",
"175 421 OFFCURVE",
"214 446 CURVE SMOOTH",
"290 490 OFFCURVE",
"456 487 OFFCURVE",
"498 388 CURVE",
"536 404 LINE",
"479 521 OFFCURVE",
"278 529 OFFCURVE",
"181 473 CURVE SMOOTH",
"137 447 OFFCURVE",
"99 408 OFFCURVE",
"99 360 CURVE SMOOTH"
);
}
);
width = 607;
}
);
note = c;
unicode = 0063;
},
{
glyphname = d;
lastChange = "2017-12-19 04:55:21 +0000";
layers = (
{
layerId = "0B1DFD06-3317-40CA-B510-4969A0718C16";
paths = (
{
closed = 1;
nodes = (
"503 154 LINE",
"503 154 LINE",
"503 347 LINE",
"503 347 LINE",
"503 690 LINE",
"460 690 LINE",
"460 437 LINE",
"426 487 OFFCURVE",
"322 506 OFFCURVE",
"292 503 CURVE SMOOTH",
"128 493 OFFCURVE",
"60 349 OFFCURVE",
"70 219 CURVE SMOOTH",
"79 102 OFFCURVE",
"150 -6 OFFCURVE",
"270 -6 CURVE SMOOTH",
"384 -4 OFFCURVE",
"416 24 OFFCURVE",
"460 56 CURVE",
"460 56 OFFCURVE",
"460 56 OFFCURVE",
"460 56 CURVE SMOOTH",
"460 56 LINE",
"466 29 OFFCURVE",
"479 4 OFFCURVE",
"502 -6 CURVE",
"512 3 OFFCURVE",
"523 12 OFFCURVE",
"536 24 CURVE",
"503 49 OFFCURVE",
"503 70 OFFCURVE",
"503 101 CURVE SMOOTH"
);
},
{
closed = 1;
nodes = (
"460 105 LINE",
"416 63 OFFCURVE",
"364 29 OFFCURVE",
"282 32 CURVE SMOOTH",
"183 35 OFFCURVE",
"124 125 OFFCURVE",
"115 223 CURVE SMOOTH",
"105 334 OFFCURVE",
"160 454 OFFCURVE",
"292 470 CURVE SMOOTH",
"336 475 OFFCURVE",
"421 440 OFFCURVE",
"460 378 CURVE",
"460 347 LINE",
"460 347 LINE",
"460 106 LINE",
"460 106 LINE"
);
}
);
width = 584;
}
);
note = d;
unicode = 0064;
},
{
glyphname = e;
lastChange = "2018-01-29 06:21:26 +0000";
layers = (
{
layerId = "0B1DFD06-3317-40CA-B510-4969A0718C16";
paths = (
{
closed = 1;
nodes = (
"101 89 OFFCURVE",
"139 50 OFFCURVE",
"183 24 CURVE SMOOTH",
"220 3 OFFCURVE",
"272 -9 OFFCURVE",
"326 -9 CURVE SMOOTH",
"412 -9 OFFCURVE",
"502 21 OFFCURVE",
"538 93 CURVE",
"499 109 LINE",
"475 49 OFFCURVE",
"404 24 OFFCURVE",
"335 24 CURVE SMOOTH",
"290 24 OFFCURVE",
"247 34 OFFCURVE",
"217 52 CURVE SMOOTH",
"178 76 OFFCURVE",
"147 115 OFFCURVE",
"147 157 CURVE SMOOTH",
"147 201 OFFCURVE",
"147 167 OFFCURVE",
"147 216 CURVE",
"331 216 LINE SMOOTH",
"489 216 OFFCURVE",
"541 231 OFFCURVE",
"541 330 CURVE SMOOTH",
"541 386 OFFCURVE",
"503 441 OFFCURVE",
"457 467 CURVE SMOOTH",
"415 492 OFFCURVE",
"366 503 OFFCURVE",
"318 503 CURVE SMOOTH",
"269 503 OFFCURVE",
"220 491 OFFCURVE",
"183 469 CURVE SMOOTH",
"139 443 OFFCURVE",
"101 404 OFFCURVE",
"101 355 CURVE SMOOTH",
"101 282 OFFCURVE",
"101 210 OFFCURVE",
"101 138 CURVE",
"101 138 LINE"
);
},
{
closed = 1;
nodes = (
"468 416 OFFCURVE",
"498 371 OFFCURVE",
"498 334 CURVE SMOOTH",
"498 265 OFFCURVE",
"458 255 OFFCURVE",
"370 255 CURVE SMOOTH",
"358 255 OFFCURVE",
"345 255 OFFCURVE",
"331 255 CURVE SMOOTH",
"147 255 LINE",
"147 283 OFFCURVE",
"147 308 OFFCURVE",
"147 336 CURVE SMOOTH",
"147 378 OFFCURVE",
"178 417 OFFCURVE",
"217 441 CURVE SMOOTH",
"246 458 OFFCURVE",
"285 468 OFFCURVE",
"324 468 CURVE SMOOTH",
"364 468 OFFCURVE",
"405 458 OFFCURVE",
"439 436 CURVE SMOOTH"
);
}
);
width = 607;
}
);
note = e;
unicode = 0065;
},
{
glyphname = f;
lastChange = "2017-12-19 04:55:21 +0000";
layers = (
{
layerId = "0B1DFD06-3317-40CA-B510-4969A0718C16";
paths = (
{
closed = 1;
nodes = (
"139 692 OFFCURVE",
"101 643 OFFCURVE",
"101 489 CURVE SMOOTH",
"101 81 LINE SMOOTH",
"101 50 OFFCURVE",
"99 29 OFFCURVE",
"68 4 CURVE",
"79 -9 OFFCURVE",
"91 -17 OFFCURVE",
"101 -24 CURVE",
"125 -16 OFFCURVE",
"142 10 OFFCURVE",
"147 36 CURVE",
"147 119 LINE",
"147 119 LINE",
"147 456 LINE",
"259 456 LINE",
"259 495 LINE",
"147 495 LINE",
"144 597 OFFCURVE",
"162 653 OFFCURVE",
"283 654 CURVE SMOOTH",
"303 654 OFFCURVE",
"289 654 OFFCURVE",
"309 654 CURVE",
"309 692 LINE",
"289 692 OFFCURVE",
"305 692 OFFCURVE",
"285 692 CURVE SMOOTH"
);
}
);
width = 362;
}
);
note = f;
unicode = 0066;
},
{
glyphname = g;
lastChange = "2017-12-19 04:55:21 +0000";
layers = (
{
layerId = "0B1DFD06-3317-40CA-B510-4969A0718C16";
paths = (
{
closed = 1;
nodes = (
"466 490 OFFCURVE",
"452 466 OFFCURVE",
"446 440 CURVE",
"446 439 LINE",
"446 439 OFFCURVE",
"446 439 OFFCURVE",
"446 439 CURVE",
"401 472 OFFCURVE",
"370 500 OFFCURVE",
"256 500 CURVE SMOOTH",
"135 502 OFFCURVE",
"65 394 OFFCURVE",
"56 278 CURVE SMOOTH",
"46 145 OFFCURVE",
"115 3 OFFCURVE",
"278 -9 CURVE SMOOTH",
"308 -10 OFFCURVE",
"411 7 OFFCURVE",
"446 58 CURVE",
"446 -19 LINE",
"447 -19 LINE",
"447 -26 LINE SMOOTH",
"450 -128 OFFCURVE",
"434 -183 OFFCURVE",
"316 -184 CURVE SMOOTH",
"296 -184 OFFCURVE",
"292 -184 OFFCURVE",
"272 -184 CURVE",
"272 -220 LINE",
"292 -220 OFFCURVE",
"295 -220 OFFCURVE",
"313 -220 CURVE SMOOTH",
"454 -221 OFFCURVE",
"490 -173 OFFCURVE",
"490 -23 CURVE SMOOTH",
"490 -19 LINE",
"490 -19 LINE",
"490 148 LINE",
"490 148 LINE",
"490 342 LINE",
"490 342 LINE",
"490 395 LINE SMOOTH",
"490 426 OFFCURVE",
"490 447 OFFCURVE",
"523 472 CURVE",
"510 483 OFFCURVE",
"499 493 OFFCURVE",
"490 500 CURVE"
);
},
{
closed = 1;
nodes = (
"407 56 OFFCURVE",
"322 20 OFFCURVE",
"278 26 CURVE SMOOTH",
"145 42 OFFCURVE",
"91 162 OFFCURVE",
"101 273 CURVE SMOOTH",
"109 371 OFFCURVE",
"168 462 OFFCURVE",
"267 464 CURVE SMOOTH",
"349 467 OFFCURVE",
"401 431 OFFCURVE",
"446 391 CURVE",
"446 118 LINE"
);
}
);
width = 584;
}
);
note = g;
unicode = 0067;
},
{
glyphname = h;
lastChange = "2017-12-19 04:55:21 +0000";
layers = (
{
layerId = "0B1DFD06-3317-40CA-B510-4969A0718C16";
paths = (
{
closed = 1;
nodes = (
"236 505 OFFCURVE",
"177 456 OFFCURVE",
"148 354 CURVE",
"148 565 LINE",
"148 565 LINE",
"148 631 LINE",
"144 657 OFFCURVE",
"127 683 OFFCURVE",
"102 692 CURVE",
"93 684 OFFCURVE",
"81 676 OFFCURVE",
"69 663 CURVE",
"102 638 OFFCURVE",
"102 617 OFFCURVE",
"102 587 CURVE SMOOTH",
"102 533 LINE",
"102 533 LINE",
"102 395 LINE",
"102 395 LINE",
"102 1 LINE",
"102 1 LINE",
"102 0 LINE",
"148 0 LINE",
"148 224 LINE",
"161 341 OFFCURVE",
"217 460 OFFCURVE",
"332 460 CURVE SMOOTH",
"434 460 OFFCURVE",
"454 380 OFFCURVE",
"454 280 CURVE SMOOTH",
"454 1 LINE",
"498 1 LINE",
"498 302 LINE SMOOTH",
"498 414 OFFCURVE",
"449 505 OFFCURVE",
"342 505 CURVE SMOOTH"
);
}
);
width = 580;
}
);
note = h;
unicode = 0068;
},
{
glyphname = i;
lastChange = "2017-12-19 04:55:21 +0000";
layers = (
{
layerId = "0B1DFD06-3317-40CA-B510-4969A0718C16";
paths = (
{
closed = 1;
nodes = (
"148 118 LINE",
"148 118 LINE",
"148 489 LINE",
"101 489 LINE",
"101 118 LINE",
"101 118 LINE",
"101 35 LINE",
"105 9 OFFCURVE",
"124 -17 OFFCURVE",
"147 -26 CURVE",
"157 -19 OFFCURVE",
"168 -10 OFFCURVE",
"180 3 CURVE",
"148 27 OFFCURVE",
"148 49 OFFCURVE",
"148 79 CURVE SMOOTH"
);
},
{
closed = 1;
nodes = (
"102 686 OFFCURVE",
"83 660 OFFCURVE",
"83 628 CURVE",
"82 598 OFFCURVE",
"101 572 OFFCURVE",
"125 572 CURVE SMOOTH",
"148 572 OFFCURVE",
"167 598 OFFCURVE",
"167 628 CURVE SMOOTH",
"167 660 OFFCURVE",
"148 686 OFFCURVE",
"125 684 CURVE"
);
}
);
width = 242;
}
);
note = i;
unicode = 0069;
},
{
glyphname = j;
lastChange = "2017-12-19 04:55:21 +0000";
layers = (
{
layerId = "0B1DFD06-3317-40CA-B510-4969A0718C16";
paths = (
{
closed = 1;
nodes = (
"168 -19 LINE SMOOTH",
"171 -125 OFFCURVE",
"155 -183 OFFCURVE",
"32 -183 CURVE SMOOTH",
"12 -183 OFFCURVE",
"26 -183 OFFCURVE",
"6 -183 CURVE",
"6 -221 LINE",
"26 -221 OFFCURVE",
"12 -220 OFFCURVE",
"30 -220 CURVE SMOOTH",
"175 -221 OFFCURVE",
"216 -171 OFFCURVE",
"216 -17 CURVE SMOOTH",
"216 489 LINE",
"168 489 LINE"
);
},
{
closed = 1;
nodes = (
"167 686 OFFCURVE",
"148 660 OFFCURVE",
"148 628 CURVE",
"147 598 OFFCURVE",
"165 572 OFFCURVE",
"190 572 CURVE SMOOTH",
"213 572 OFFCURVE",
"232 598 OFFCURVE",
"232 628 CURVE SMOOTH",
"232 660 OFFCURVE",
"213 686 OFFCURVE",
"190 684 CURVE"
);
}
);
width = 308;
}
);
note = j;
unicode = 006A;
},
{
glyphname = k;
lastChange = "2017-12-19 04:55:21 +0000";
layers = (
{
layerId = "0B1DFD06-3317-40CA-B510-4969A0718C16";
paths = (
{
closed = 1;
nodes = (
"462 492 LINE",
"404 492 LINE",
"145 243 LINE",
"145 562 LINE",
"145 562 LINE",
"145 633 LINE",
"141 659 OFFCURVE",
"124 684 OFFCURVE",
"99 693 CURVE",
"89 686 OFFCURVE",
"78 677 OFFCURVE",
"66 664 CURVE",
"99 640 OFFCURVE",
"99 618 OFFCURVE",
"99 588 CURVE SMOOTH",
"99 535 LINE",
"99 535 LINE",
"99 0 LINE",
"145 0 LINE",
"145 181 LINE",
"276 308 LINE",
"348 301 OFFCURVE",
"426 267 OFFCURVE",
"423 157 CURVE SMOOTH",
"423 1 LINE",
"470 1 LINE",
"470 158 LINE SMOOTH",
"470 289 OFFCURVE",
"393 329 OFFCURVE",
"308 341 CURVE"
);
}
);
width = 548;
}
);
note = k;
unicode = 006B;
},
{
glyphname = l;
lastChange = "2017-12-19 04:55:21 +0000";
layers = (
{
layerId = "0B1DFD06-3317-40CA-B510-4969A0718C16";
paths = (
{
closed = 1;
nodes = (
"147 568 LINE",
"147 568 LINE",
"147 630 LINE",
"142 656 OFFCURVE",
"125 682 OFFCURVE",
"101 690 CURVE",
"91 683 OFFCURVE",
"79 674 OFFCURVE",
"68 661 CURVE",
"99 637 OFFCURVE",
"99 615 OFFCURVE",
"99 585 CURVE",
"99 585 LINE",
"99 118 LINE",
"99 118 LINE",
"99 36 LINE",
"104 9 OFFCURVE",
"122 -16 OFFCURVE",
"145 -26 CURVE",
"155 -17 OFFCURVE",
"167 -9 OFFCURVE",
"178 4 CURVE",
"147 29 OFFCURVE",
"147 50 OFFCURVE",
"147 81 CURVE SMOOTH"
);
}
);
width = 236;
}
);
note = l;
unicode = 006C;
},
{
glyphname = m;
lastChange = "2017-12-19 04:55:21 +0000";
layers = (
{
layerId = "0B1DFD06-3317-40CA-B510-4969A0718C16";
paths = (
{
closed = 1;
nodes = (
"623 93 LINE",
"623 93 LINE",
"623 301 LINE SMOOTH",
"623 381 OFFCURVE",
"610 452 OFFCURVE",
"562 483 CURVE SMOOTH",
"532 503 OFFCURVE",
"480 505 OFFCURVE",
"447 483 CURVE SMOOTH",
"426 469 OFFCURVE",
"395 434 OFFCURVE",
"377 384 CURVE",
"370 427 OFFCURVE",
"354 463 OFFCURVE",
"324 483 CURVE SMOOTH",
"293 503 OFFCURVE",
"239 508 OFFCURVE",
"209 483 CURVE SMOOTH",
"184 464 OFFCURVE",
"164 424 OFFCURVE",
"148 370 CURVE",
"148 371 LINE",
"148 371 LINE",
"148 433 LINE",
"142 459 OFFCURVE",
"125 483 OFFCURVE",
"101 493 CURVE",
"92 486 OFFCURVE",
"79 476 OFFCURVE",
"68 464 CURVE",
"101 439 OFFCURVE",
"101 417 OFFCURVE",
"101 387 CURVE SMOOTH",
"101 56 LINE",
"101 56 LINE",
"101 -1 LINE",
"148 -1 LINE",
"148 148 LINE SMOOTH",
"148 155 OFFCURVE",
"148 161 OFFCURVE",
"148 168 CURVE SMOOTH",
"148 276 OFFCURVE",
"183 384 OFFCURVE",
"217 434 CURVE SMOOTH",
"240 469 OFFCURVE",
"288 470 OFFCURVE",
"312 437 CURVE SMOOTH",
"332 410 OFFCURVE",
"339 358 OFFCURVE",
"339 278 CURVE SMOOTH",
"339 -1 LINE",
"383 -1 LINE",
"383 56 LINE",
"384 56 LINE",
"384 96 OFFCURVE",
"384 101 OFFCURVE",
"384 141 CURVE SMOOTH",
"385 319 OFFCURVE",
"417 384 OFFCURVE",
"456 434 CURVE SMOOTH",
"480 467 OFFCURVE",
"526 470 OFFCURVE",
"551 437 CURVE SMOOTH",
"572 410 OFFCURVE",
"578 358 OFFCURVE",
"578 278 CURVE SMOOTH",
"578 119 LINE",
"578 119 LINE",
"578 27 LINE",
"582 3 OFFCURVE",
"600 -20 OFFCURVE",
"621 -29 CURVE",
"630 -22 OFFCURVE",
"641 -13 OFFCURVE",
"653 -1 CURVE",
"623 22 OFFCURVE",
"623 42 OFFCURVE",
"623 70 CURVE SMOOTH"
);
}
);
width = 710;
}
);
note = m;
unicode = 006D;
},
{
glyphname = n;
lastChange = "2018-01-29 08:09:56 +0000";
layers = (
{
background = {
paths = (
{
closed = 1;
nodes = (
"498 302 LINE SMOOTH",
"498 414 OFFCURVE",
"449 505 OFFCURVE",
"342 505 CURVE SMOOTH",
"234 505 OFFCURVE",
"175 420 OFFCURVE",
"147 312 CURVE",
"147 434 LINE",
"142 460 OFFCURVE",
"124 485 OFFCURVE",
"101 495 CURVE",
"91 487 OFFCURVE",
"79 477 OFFCURVE",
"68 466 CURVE",
"99 440 OFFCURVE",
"99 418 OFFCURVE",
"99 388 CURVE SMOOTH",
"99 0 LINE",
"101 0 LINE",
"101 0 LINE",
"147 0 LINE",
"147 184 LINE",
"161 309 OFFCURVE",
"217 459 OFFCURVE",
"332 459 CURVE SMOOTH",
"434 459 OFFCURVE",
"454 380 OFFCURVE",
"454 279 CURVE SMOOTH",
"454 29 LINE",
"459 4 OFFCURVE",
"475 -19 OFFCURVE",
"498 -27 CURVE",
"506 -20 OFFCURVE",
"518 -12 OFFCURVE",
"528 0 CURVE",
"498 23 OFFCURVE",
"498 43 OFFCURVE",
"498 76 CURVE SMOOTH"
);
}
);
};
layerId = "0B1DFD06-3317-40CA-B510-4969A0718C16";
paths = (
{
closed = 1;
nodes = (
"498 292 LINE SMOOTH",
"498 404 OFFCURVE",
"449 495 OFFCURVE",
"342 495 CURVE SMOOTH",
"234 495 OFFCURVE",
"175 410 OFFCURVE",
"147 302 CURVE",
"147 419 LINE",
"142 445 OFFCURVE",
"124 470 OFFCURVE",
"101 480 CURVE",
"91 472 OFFCURVE",
"79 462 OFFCURVE",
"68 451 CURVE",
"99 425 OFFCURVE",
"99 403 OFFCURVE",
"99 373 CURVE SMOOTH",
"99 0 LINE",
"147 0 LINE",
"147 174 LINE",
"161 299 OFFCURVE",
"217 449 OFFCURVE",
"332 449 CURVE SMOOTH",
"434 449 OFFCURVE",
"454 370 OFFCURVE",
"454 269 CURVE SMOOTH",
"454 46 LINE",
"459 21 OFFCURVE",
"475 -2 OFFCURVE",
"498 -10 CURVE",
"506 -3 OFFCURVE",
"518 5 OFFCURVE",
"528 17 CURVE",
"498 40 OFFCURVE",
"498 60 OFFCURVE",
"498 93 CURVE SMOOTH"
);
}
);
width = 588;
}
);
note = n;
unicode = 006E;
},
{
glyphname = o;
lastChange = "2017-12-19 04:55:21 +0000";
layers = (
{
layerId = "0B1DFD06-3317-40CA-B510-4969A0718C16";
paths = (
{
closed = 1;
nodes = (
"73 318 LINE",
"73 273 OFFCURVE",
"75 211 OFFCURVE",
"76 168 CURVE SMOOTH",
"82 -73 OFFCURVE",
"521 -73 OFFCURVE",
"521 168 CURVE SMOOTH",
"521 288 OFFCURVE",
"521 181 OFFCURVE",
"521 318 CURVE SMOOTH",
"521 561 OFFCURVE",
"73 559 OFFCURVE",
"73 318 CURVE"
);
},
{
closed = 1;
nodes = (
"118 519 OFFCURVE",
"473 519 OFFCURVE",
"476 299 CURVE SMOOTH",
"476 210 OFFCURVE",
"477 244 OFFCURVE",
"476 187 CURVE SMOOTH",
"472 -30 OFFCURVE",
"121 -33 OFFCURVE",
"121 187 CURVE SMOOTH",
"121 210 OFFCURVE",
"118 283 OFFCURVE",
"118 301 CURVE SMOOTH"
);
}
);
width = 592;
}
);
note = o;
unicode = 006F;
},
{
glyphname = p;
lastChange = "2017-12-19 04:55:21 +0000";
layers = (
{
layerId = "0B1DFD06-3317-40CA-B510-4969A0718C16";
paths = (
{
closed = 1;
nodes = (
"528 397 OFFCURVE",
"457 505 OFFCURVE",
"336 503 CURVE SMOOTH",
"223 503 OFFCURVE",
"191 475 OFFCURVE",
"147 441 CURVE",
"147 441 OFFCURVE",
"147 441 OFFCURVE",
"147 441 CURVE",
"147 443 LINE",
"142 469 OFFCURVE",
"124 493 OFFCURVE",
"101 503 CURVE",
"91 496 OFFCURVE",
"79 486 OFFCURVE",
"66 475 CURVE",
"99 450 OFFCURVE",
"99 427 OFFCURVE",
"99 398 CURVE SMOOTH",
"99 345 LINE",
"99 345 LINE",
"99 151 LINE",
"99 151 LINE",
"99 -183 LINE",
"147 -183 LINE",
"147 60 LINE",
"181 10 OFFCURVE",
"285 -7 OFFCURVE",
"315 -6 CURVE SMOOTH",
"479 4 OFFCURVE",
"546 148 OFFCURVE",
"536 280 CURVE SMOOTH"
);
},
{
closed = 1;
nodes = (
"270 23 OFFCURVE",
"186 59 OFFCURVE",
"147 121 CURVE",
"147 394 LINE",
"191 434 OFFCURVE",
"243 470 OFFCURVE",
"326 467 CURVE SMOOTH",
"424 464 OFFCURVE",
"483 374 OFFCURVE",
"492 276 CURVE SMOOTH",
"502 165 OFFCURVE",
"449 45 OFFCURVE",
"315 29 CURVE SMOOTH"
);
}
);
width = 607;
}
);
note = p;
unicode = 0070;
},
{
glyphname = q;
lastChange = "2017-12-19 04:55:21 +0000";
layers = (
{
layerId = "0B1DFD06-3317-40CA-B510-4969A0718C16";
paths = (
{
closed = 1;
nodes = (
"508 398 LINE SMOOTH",
"508 427 OFFCURVE",
"508 450 OFFCURVE",
"539 475 CURVE",
"528 486 OFFCURVE",
"516 496 OFFCURVE",
"506 503 CURVE",
"483 493 OFFCURVE",
"464 469 OFFCURVE",
"460 443 CURVE",
"460 441 LINE",
"460 441 OFFCURVE",
"460 441 OFFCURVE",
"460 441 CURVE",
"416 475 OFFCURVE",
"384 503 OFFCURVE",
"270 503 CURVE SMOOTH",
"150 505 OFFCURVE",
"79 397 OFFCURVE",
"70 280 CURVE SMOOTH",
"60 148 OFFCURVE",
"128 4 OFFCURVE",
"292 -6 CURVE SMOOTH",
"322 -7 OFFCURVE",
"426 10 OFFCURVE",
"460 60 CURVE",
"460 -96 LINE",
"460 -96 LINE",
"460 -147 LINE",
"464 -174 OFFCURVE",
"483 -198 OFFCURVE",
"506 -209 CURVE",
"516 -200 OFFCURVE",
"528 -191 OFFCURVE",
"539 -178 CURVE",
"508 -154 OFFCURVE",
"508 -132 OFFCURVE",
"508 -102 CURVE SMOOTH"
);
},
{
closed = 1;
nodes = (
"158 45 OFFCURVE",
"105 165 OFFCURVE",
"115 276 CURVE SMOOTH",
"124 374 OFFCURVE",
"183 464 OFFCURVE",
"280 467 CURVE SMOOTH",
"364 470 OFFCURVE",
"416 434 OFFCURVE",
"460 394 CURVE",
"460 391 LINE",
"460 391 LINE",
"460 151 LINE",
"460 151 LINE",
"460 121 LINE",
"421 59 OFFCURVE",
"336 23 OFFCURVE",
"292 29 CURVE SMOOTH"
);
}
);
width = 600;
}
);
note = q;
unicode = 0071;
},
{
glyphname = r;
lastChange = "2017-12-19 04:55:21 +0000";
layers = (
{
layerId = "0B1DFD06-3317-40CA-B510-4969A0718C16";
paths = (
{
closed = 1;
nodes = (
"216 495 OFFCURVE",
"170 456 OFFCURVE",
"141 400 CURVE",
"141 493 LINE",
"98 493 LINE",
"101 79 LINE SMOOTH",
"101 49 OFFCURVE",
"99 27 OFFCURVE",
"68 3 CURVE",
"79 -10 OFFCURVE",
"91 -19 OFFCURVE",
"101 -26 CURVE",
"125 -17 OFFCURVE",
"142 9 OFFCURVE",
"147 35 CURVE",
"147 177 LINE",
"144 283 OFFCURVE",
"161 456 OFFCURVE",
"283 457 CURVE SMOOTH",
"303 457 OFFCURVE",
"289 457 OFFCURVE",
"309 457 CURVE",
"309 495 LINE",
"289 495 OFFCURVE",
"305 493 OFFCURVE",
"285 493 CURVE SMOOTH"
);
}
);
width = 358;
}
);
note = r;
unicode = 0072;
},
{
glyphname = s;
lastChange = "2017-12-19 04:55:21 +0000";
layers = (
{
layerId = "0B1DFD06-3317-40CA-B510-4969A0718C16";
paths = (
{
closed = 1;
nodes = (
"385 49 OFFCURVE",
"322 23 OFFCURVE",
"249 23 CURVE SMOOTH",
"187 23 OFFCURVE",
"124 29 OFFCURVE",
"105 95 CURVE",
"56 95 LINE",
"73 12 OFFCURVE",
"168 -17 OFFCURVE",
"244 -17 CURVE SMOOTH",
"335 -17 OFFCURVE",
"433 27 OFFCURVE",
"429 131 CURVE SMOOTH",
"418 331 OFFCURVE",
"134 204 OFFCURVE",
"125 364 CURVE SMOOTH",
"122 430 OFFCURVE",
"168 466 OFFCURVE",
"243 466 CURVE SMOOTH",
"301 466 OFFCURVE",
"360 463 OFFCURVE",
"374 403 CURVE",
"417 403 LINE",
"401 477 OFFCURVE",
"315 508 OFFCURVE",
"246 508 CURVE SMOOTH",
"160 508 OFFCURVE",
"70 460 OFFCURVE",
"76 364 CURVE SMOOTH",
"85 175 OFFCURVE",
"371 296 OFFCURVE",
"381 131 CURVE SMOOTH"
);
}
);
width = 480;
}
);
note = s;
unicode = 0073;
},
{
glyphname = t;
lastChange = "2017-12-19 04:55:21 +0000";
layers = (
{
layerId = "0B1DFD06-3317-40CA-B510-4969A0718C16";
paths = (
{
closed = 1;
nodes = (
"161 36 OFFCURVE",
"144 93 OFFCURVE",
"147 198 CURVE SMOOTH",
"147 454 LINE",
"259 454 LINE",
"259 492 LINE",
"147 492 LINE",
"147 571 LINE",
"147 571 LINE",
"147 620 LINE",
"142 646 OFFCURVE",
"125 670 OFFCURVE",
"101 680 CURVE",
"91 673 OFFCURVE",
"79 663 OFFCURVE",
"68 651 CURVE",
"99 626 OFFCURVE",
"101 604 OFFCURVE",
"101 574 CURVE SMOOTH",
"101 201 LINE SMOOTH",
"101 46 OFFCURVE",
"139 -3 OFFCURVE",
"285 -3 CURVE SMOOTH",
"305 -3 OFFCURVE",
"289 -3 OFFCURVE",
"309 -3 CURVE",
"309 35 LINE",
"289 35 OFFCURVE",
"303 35 OFFCURVE",
"283 35 CURVE SMOOTH"
);
}
);
width = 354;
}
);
note = t;
unicode = 0074;
},
{
glyphname = u;
lastChange = "2017-12-19 04:55:21 +0000";
layers = (
{
layerId = "0B1DFD06-3317-40CA-B510-4969A0718C16";
paths = (
{
closed = 1;
nodes = (
"489 142 LINE",
"486 142 LINE",
"487 151 OFFCURVE",
"489 161 OFFCURVE",
"489 171 CURVE SMOOTH",
"489 492 LINE",
"443 492 LINE",
"443 190 LINE SMOOTH",
"443 83 OFFCURVE",
"371 23 OFFCURVE",
"298 20 CURVE SMOOTH",
"223 19 OFFCURVE",
"147 78 OFFCURVE",
"147 190 CURVE SMOOTH",
"147 493 LINE",
"101 493 LINE",
"101 171 LINE SMOOTH",
"101 50 OFFCURVE",
"198 -16 OFFCURVE",
"295 -16 CURVE SMOOTH",
"351 -16 OFFCURVE",
"406 6 OFFCURVE",
"443 47 CURVE",
"443 47 LINE",
"447 22 OFFCURVE",
"464 -3 OFFCURVE",
"487 -12 CURVE",
"498 -4 OFFCURVE",
"509 4 OFFCURVE",
"521 16 CURVE",
"489 40 OFFCURVE",
"489 62 OFFCURVE",
"489 91 CURVE SMOOTH"
);
}
);
width = 581;
}
);
note = u;
unicode = 0075;
},
{
glyphname = v;
lastChange = "2017-12-19 04:55:21 +0000";
layers = (
{
layerId = "0B1DFD06-3317-40CA-B510-4969A0718C16";
paths = (
{
closed = 1;
nodes = (
"407 492 LINE",
"361 492 LINE",
"288 158 LINE SMOOTH",
"282 134 OFFCURVE",
"267 30 OFFCURVE",
"233 27 CURVE",
"200 26 OFFCURVE",
"184 138 OFFCURVE",
"180 158 CURVE SMOOTH",
"102 492 LINE",
"56 492 LINE",
"138 134 LINE",
"162 46 OFFCURVE",
"168 -10 OFFCURVE",
"233 -10 CURVE SMOOTH",
"299 -10 OFFCURVE",
"311 72 OFFCURVE",
"328 150 CURVE SMOOTH"
);
}
);
width = 464;
}
);
note = v;
unicode = 0076;
},
{
glyphname = w;
lastChange = "2017-12-19 04:55:21 +0000";
layers = (
{
layerId = "0B1DFD06-3317-40CA-B510-4969A0718C16";
paths = (
{
closed = 1;
nodes = (
"257 45 OFFCURVE",
"298 138 OFFCURVE",
"334 260 CURVE",
"371 138 OFFCURVE",
"398 42 OFFCURVE",
"477 0 CURVE",
"519 0 LINE",
"608 493 LINE",
"564 493 LINE",
"533 345 OFFCURVE",
"499 175 OFFCURVE",
"476 56 CURVE",
"410 93 OFFCURVE",
"378 256 OFFCURVE",
"332 385 CURVE",
"295 255 OFFCURVE",
"244 91 OFFCURVE",
"184 53 CURVE",
"105 493 LINE",
"59 493 LINE",
"142 0 LINE",
"160 0 OFFCURVE",
"167 0 OFFCURVE",
"184 0 CURVE"
);
}
);
width = 669;
}
);
note = w;
unicode = 0077;
},
{
glyphname = x;
lastChange = "2017-12-19 04:55:21 +0000";
layers = (
{
layerId = "0B1DFD06-3317-40CA-B510-4969A0718C16";
paths = (
{
closed = 1;
nodes = (
"40 492 LINE",
"230 246 LINE",
"40 0 LINE",
"99 0 LINE",
"260 207 LINE",
"420 0 LINE",
"479 0 LINE",
"289 246 LINE",
"480 492 LINE",
"420 492 LINE",
"260 285 LINE",
"99 492 LINE"
);
}
);
width = 526;
}
);
note = x;
unicode = 0078;
},
{
glyphname = y;
lastChange = "2017-12-19 04:55:21 +0000";
layers = (
{
layerId = "0B1DFD06-3317-40CA-B510-4969A0718C16";
paths = (
{
closed = 1;
nodes = (
"508 505 OFFCURVE",
"496 515 OFFCURVE",
"487 522 CURVE",
"463 512 OFFCURVE",
"447 487 OFFCURVE",
"441 463 CURVE",
"440 162 LINE",
"429 73 OFFCURVE",
"364 23 OFFCURVE",
"298 22 CURVE SMOOTH",
"221 20 OFFCURVE",
"145 79 OFFCURVE",
"145 191 CURVE SMOOTH",
"145 493 LINE",
"99 493 LINE",
"99 173 LINE SMOOTH",
"99 52 OFFCURVE",
"197 -14 OFFCURVE",
"293 -14 CURVE SMOOTH",
"348 -14 OFFCURVE",
"403 7 OFFCURVE",
"440 47 CURVE",
"440 -20 LINE",
"444 -125 OFFCURVE",
"427 -183 OFFCURVE",
"305 -183 CURVE",
"283 -184 OFFCURVE",
"298 -183 OFFCURVE",
"278 -183 CURVE",
"278 -221 LINE",
"298 -221 OFFCURVE",
"283 -220 OFFCURVE",
"302 -220 CURVE SMOOTH",
"447 -221 OFFCURVE",
"487 -171 OFFCURVE",
"487 -17 CURVE SMOOTH",
"487 418 LINE SMOOTH",
"487 449 OFFCURVE",
"487 469 OFFCURVE",
"519 493 CURVE"
);
}
);
width = 581;
}
);
note = y;
unicode = 0079;
},
{
glyphname = z;
lastChange = "2017-12-19 04:55:21 +0000";
layers = (
{
layerId = "0B1DFD06-3317-40CA-B510-4969A0718C16";
paths = (
{
closed = 1;
nodes = (
"183 47 OFFCURVE",
"158 75 OFFCURVE",
"151 102 CURVE",
"523 450 LINE",
"523 492 LINE",
"96 493 LINE",
"96 449 LINE",
"452 447 LINE",
"424 416 OFFCURVE",
"121 145 OFFCURVE",
"89 114 CURVE",
"91 62 OFFCURVE",
"128 -1 OFFCURVE",
"226 -1 CURVE SMOOTH",
"523 -1 LINE",
"523 47 LINE",
"391 47 OFFCURVE",
"374 47 OFFCURVE",
"242 47 CURVE SMOOTH"
);
}
);
width = 607;
}
);
note = z;
unicode = 007A;
},
{
glyphname = AE;
lastChange = "2017-12-19 04:55:41 +0000";
layers = (
{
layerId = "0B1DFD06-3317-40CA-B510-4969A0718C16";
paths = (
{
closed = 1;
nodes = (
"1009 657 LINE",
"1009 695 LINE",
"814 695 LINE SMOOTH",
"725 693 OFFCURVE",
"643 677 OFFCURVE",
"598 614 CURVE",
"590 657 OFFCURVE",
"567 697 OFFCURVE",
"510 700 CURVE SMOOTH",
"423 703 OFFCURVE",
"375 611 OFFCURVE",
"334 523 CURVE SMOOTH",
"62 -10 LINE",
"106 -10 LINE",
"223 214 LINE",
"555 214 LINE",
"557 -10 LINE",
"601 -10 LINE",
"601 66 LINE",
"647 3 OFFCURVE",
"725 -9 OFFCURVE",
"814 -10 CURVE SMOOTH",
"1009 -10 LINE",
"1009 26 LINE",
"811 26 LINE",
"699 30 OFFCURVE",
"594 69 OFFCURVE",
"604 246 CURVE",
"604 311 LINE",
"900 311 LINE",
"900 349 LINE",
"604 349 LINE",
"605 479 LINE",
"617 627 OFFCURVE",
"712 656 OFFCURVE",
"811 657 CURVE SMOOTH"
);
},
{
closed = 1;
nodes = (
"243 253 LINE",
"371 499 LINE SMOOTH",
"393 539 OFFCURVE",
"408 568 OFFCURVE",
"433 605 CURVE SMOOTH",
"467 661 OFFCURVE",
"541 676 OFFCURVE",
"549 608 CURVE",
"557 569 OFFCURVE",
"555 541 OFFCURVE",
"557 499 CURVE",
"555 253 LINE"
);
}
);
width = 1093;
}
);
note = AE;
unicode = 00C6;
},
{
glyphname = Eth;
lastChange = "2017-12-19 04:55:48 +0000";
layers = (
{
layerId = "0B1DFD06-3317-40CA-B510-4969A0718C16";
paths = (
{
closed = 1;
nodes = (
"102 360 LINE",
"4 360 LINE",
"4 321 LINE",
"102 321 LINE",
"102 -4 LINE",
"339 -4 OFFCURVE",
"572 -27 OFFCURVE",
"577 348 CURVE",
"574 661 OFFCURVE",
"372 700 OFFCURVE",
"102 699 CURVE"
);
},
{
closed = 1;
nodes = (
"145 321 LINE",
"351 321 LINE",
"351 360 LINE",
"145 360 LINE",
"145 663 LINE",
"426 667 OFFCURVE",
"533 568 OFFCURVE",
"533 348 CURVE SMOOTH",
"535 114 OFFCURVE",
"444 19 OFFCURVE",
"145 32 CURVE"
);
}
);
width = 670;
}
);
note = Eth;
unicode = 00D0;
},
{
glyphname = Dcroat;
lastChange = "2017-12-19 04:55:51 +0000";
layers = (
{
layerId = "0B1DFD06-3317-40CA-B510-4969A0718C16";
paths = (
{
closed = 1;
nodes = (
"99 364 LINE",
"1 364 LINE",
"1 325 LINE",
"99 325 LINE",
"99 0 LINE",
"336 0 OFFCURVE",
"569 -23 OFFCURVE",
"574 352 CURVE",
"571 666 OFFCURVE",
"370 705 OFFCURVE",
"99 703 CURVE"
);
},
{
closed = 1;
nodes = (
"142 325 LINE",
"348 325 LINE",
"348 364 LINE",
"142 364 LINE",
"142 667 LINE",
"423 672 OFFCURVE",
"531 572 OFFCURVE",
"531 352 CURVE SMOOTH",
"532 118 OFFCURVE",
"441 23 OFFCURVE",
"142 36 CURVE"
);
}
);
width = 651;
}
);
note = Dcroat;
unicode = 0110;
},
{
glyphname = Eacute;
lastChange = "2017-12-18 07:59:54 +0000";
layers = (
{
background = {
paths = (
{
closed = 1;
nodes = (
"554 0 LINE",
"571 179 LINE",
"544 179 LINE",
"538 124 OFFCURVE",
"520 40 OFFCURVE",
"456 40 CURVE SMOOTH",
"201 40 LINE",
"201 659 LINE",
"441 659 LINE SMOOTH",
"516 659 OFFCURVE",
"525 567 OFFCURVE",
"528 527 CURVE",
"555 527 LINE",
"555 700 LINE",
"16 700 LINE",
"16 673 LINE",
"44 673 LINE SMOOTH",
"83 673 OFFCURVE",
"103 662 OFFCURVE",
"103 637 CURVE SMOOTH",
"103 62 LINE SMOOTH",
"103 37 OFFCURVE",
"83 26 OFFCURVE",
"44 26 CURVE SMOOTH",
"16 26 LINE",
"16 0 LINE"
);
},
{
closed = 1;
nodes = (
"455 251 LINE",
"455 485 LINE",
"431 485 LINE",
"427 436 OFFCURVE",
"424 388 OFFCURVE",
"379 388 CURVE SMOOTH",
"162 388 LINE",
"162 348 LINE",
"379 348 LINE SMOOTH",
"424 348 OFFCURVE",
"427 300 OFFCURVE",
"431 251 CURVE"
);
},
{
closed = 1;
nodes = (
"398 865 LINE SMOOTH",
"420 877 OFFCURVE",
"432 890 OFFCURVE",
"432 907 CURVE SMOOTH",
"432 922 OFFCURVE",
"420 937 OFFCURVE",
"398 937 CURVE SMOOTH",
"377 937 OFFCURVE",
"362 921 OFFCURVE",
"354 914 CURVE SMOOTH",
"239 807 LINE",
"256 782 LINE"
);
}
);
};
components = (
{
name = E;
},
{
name = acute;
transform = "{1, 0, 0, 1, 56, 230}";
}
);
layerId = "0B1DFD06-3317-40CA-B510-4969A0718C16";
width = 607;
}
);
note = Eacute;
unicode = 00C9;
},
{
glyphname = Ebreve;
lastChange = "2017-12-18 08:08:53 +0000";
layers = (
{
background = {
paths = (
{
closed = 1;
nodes = (
"554 0 LINE",
"571 179 LINE",
"544 179 LINE",
"538 124 OFFCURVE",
"520 40 OFFCURVE",
"456 40 CURVE SMOOTH",
"201 40 LINE",
"201 659 LINE",
"441 659 LINE SMOOTH",
"516 659 OFFCURVE",
"525 567 OFFCURVE",
"528 527 CURVE",
"555 527 LINE",
"555 700 LINE",
"16 700 LINE",
"16 673 LINE",
"44 673 LINE SMOOTH",
"83 673 OFFCURVE",
"103 662 OFFCURVE",
"103 637 CURVE SMOOTH",
"103 62 LINE SMOOTH",
"103 37 OFFCURVE",
"83 26 OFFCURVE",
"44 26 CURVE SMOOTH",
"16 26 LINE",
"16 0 LINE"
);
},
{
closed = 1;
nodes = (
"455 251 LINE",
"455 485 LINE",
"431 485 LINE",
"427 436 OFFCURVE",
"424 388 OFFCURVE",
"379 388 CURVE SMOOTH",
"162 388 LINE",
"162 348 LINE",
"379 348 LINE SMOOTH",
"424 348 OFFCURVE",
"427 300 OFFCURVE",
"431 251 CURVE"
);
},
{
closed = 1;
nodes = (
"432 776 OFFCURVE",
"474 832 OFFCURVE",
"478 907 CURVE",
"445 907 LINE",
"439 848 OFFCURVE",
"397 822 OFFCURVE",
"333 822 CURVE SMOOTH",
"269 822 OFFCURVE",
"226 848 OFFCURVE",
"219 907 CURVE",
"186 907 LINE",
"190 829 OFFCURVE",
"232 776 OFFCURVE",
"333 776 CURVE SMOOTH"
);
}
);
};
components = (
{
name = E;
},
{
name = breve;
transform = "{1, 0, 0, 1, 68, 230}";
}
);
layerId = "0B1DFD06-3317-40CA-B510-4969A0718C16";
width = 607;
}
);
note = Ebreve;
unicode = 0114;
},
{
glyphname = Ecaron;
lastChange = "2017-12-18 07:59:54 +0000";
layers = (
{
background = {
paths = (
{
closed = 1;
nodes = (
"554 0 LINE",
"571 179 LINE",
"544 179 LINE",
"538 124 OFFCURVE",
"520 40 OFFCURVE",
"456 40 CURVE SMOOTH",
"201 40 LINE",
"201 659 LINE",
"441 659 LINE SMOOTH",
"516 659 OFFCURVE",
"525 567 OFFCURVE",
"528 527 CURVE",
"555 527 LINE",
"555 700 LINE",
"16 700 LINE",
"16 673 LINE",
"44 673 LINE SMOOTH",
"83 673 OFFCURVE",
"103 662 OFFCURVE",
"103 637 CURVE SMOOTH",
"103 62 LINE SMOOTH",
"103 37 OFFCURVE",
"83 26 OFFCURVE",
"44 26 CURVE SMOOTH",
"16 26 LINE",
"16 0 LINE"
);
},
{
closed = 1;
nodes = (
"455 251 LINE",
"455 485 LINE",
"431 485 LINE",
"427 436 OFFCURVE",
"424 388 OFFCURVE",
"379 388 CURVE SMOOTH",
"162 388 LINE",
"162 348 LINE",
"379 348 LINE SMOOTH",
"424 348 OFFCURVE",
"427 300 OFFCURVE",
"431 251 CURVE"
);
},
{
closed = 1;
nodes = (
"357 782 LINE",
"481 911 LINE",
"462 932 LINE",
"354 847 LINE",
"346 840 OFFCURVE",
"337 836 OFFCURVE",
"331 836 CURVE SMOOTH",
"325 836 OFFCURVE",
"317 840 OFFCURVE",
"307 847 CURVE",
"199 932 LINE",
"180 911 LINE",
"304 782 LINE"
);
}
);
};
components = (
{
name = E;
},
{
name = caron;
transform = "{1, 0, 0, 1, 68, 230}";
}
);
layerId = "0B1DFD06-3317-40CA-B510-4969A0718C16";
width = 607;
}
);
note = Ecaron;
unicode = 011A;
},
{
glyphname = Ecircumflex;
lastChange = "2017-12-18 07:59:54 +0000";
layers = (
{
background = {
paths = (
{
closed = 1;
nodes = (
"554 0 LINE",
"571 179 LINE",
"544 179 LINE",
"538 124 OFFCURVE",
"520 40 OFFCURVE",
"456 40 CURVE SMOOTH",
"201 40 LINE",
"201 659 LINE",
"441 659 LINE SMOOTH",
"516 659 OFFCURVE",
"525 567 OFFCURVE",
"528 527 CURVE",
"555 527 LINE",
"555 700 LINE",
"16 700 LINE",
"16 673 LINE",
"44 673 LINE SMOOTH",
"83 673 OFFCURVE",
"103 662 OFFCURVE",
"103 637 CURVE SMOOTH",
"103 62 LINE SMOOTH",
"103 37 OFFCURVE",
"83 26 OFFCURVE",
"44 26 CURVE SMOOTH",
"16 26 LINE",
"16 0 LINE"
);
},
{
closed = 1;
nodes = (
"455 251 LINE",
"455 485 LINE",
"431 485 LINE",
"427 436 OFFCURVE",
"424 388 OFFCURVE",
"379 388 CURVE SMOOTH",
"162 388 LINE",
"162 348 LINE",
"379 348 LINE SMOOTH",
"424 348 OFFCURVE",
"427 300 OFFCURVE",
"431 251 CURVE"
);
},
{
closed = 1;
nodes = (
"304 868 LINE SMOOTH",
"312 874 OFFCURVE",
"322 879 OFFCURVE",
"328 879 CURVE SMOOTH",
"334 879 OFFCURVE",
"342 874 OFFCURVE",
"351 868 CURVE",
"459 782 LINE",
"478 803 LINE",
"354 932 LINE",
"301 932 LINE",
"177 803 LINE",
"196 782 LINE"
);
}
);
};
components = (
{
name = E;
},
{
name = circumflex;
transform = "{1, 0, 0, 1, 68, 230}";
}
);
layerId = "0B1DFD06-3317-40CA-B510-4969A0718C16";
width = 607;
}
);
note = Ecircumflex;
unicode = 00CA;
},
{
glyphname = Ecircumflexacute;
lastChange = "2017-12-18 08:14:04 +0000";
layers = (
{
background = {
paths = (
{
closed = 1;
nodes = (
"554 0 LINE",
"571 179 LINE",
"544 179 LINE",
"538 124 OFFCURVE",
"520 40 OFFCURVE",
"456 40 CURVE SMOOTH",
"201 40 LINE",
"201 659 LINE",
"441 659 LINE SMOOTH",
"516 659 OFFCURVE",
"525 567 OFFCURVE",
"528 527 CURVE",
"555 527 LINE",
"555 700 LINE",
"16 700 LINE",
"16 673 LINE",
"44 673 LINE SMOOTH",
"83 673 OFFCURVE",
"103 662 OFFCURVE",
"103 637 CURVE SMOOTH",
"103 62 LINE SMOOTH",
"103 37 OFFCURVE",
"83 26 OFFCURVE",
"44 26 CURVE SMOOTH",
"16 26 LINE",
"16 0 LINE"
);
},
{
closed = 1;
nodes = (
"455 251 LINE",
"455 485 LINE",
"431 485 LINE",
"427 436 OFFCURVE",
"424 388 OFFCURVE",
"379 388 CURVE SMOOTH",
"162 388 LINE",
"162 348 LINE",
"379 348 LINE SMOOTH",
"424 348 OFFCURVE",
"427 300 OFFCURVE",
"431 251 CURVE"
);
},
{
closed = 1;
nodes = (
"290 862 LINE SMOOTH",
"300 870 OFFCURVE",
"310 878 OFFCURVE",
"318 878 CURVE SMOOTH",
"324 878 OFFCURVE",
"332 873 OFFCURVE",
"341 867 CURVE",
"447 781 LINE",
"466 803 LINE",
"344 932 LINE",
"293 932 LINE",
"171 803 LINE",
"189 781 LINE"
);
},
{
closed = 1;
nodes = (
"555 960 LINE SMOOTH",
"578 972 OFFCURVE",
"591 988 OFFCURVE",
"591 1003 CURVE SMOOTH",
"591 1017 OFFCURVE",
"580 1034 OFFCURVE",
"557 1034 CURVE SMOOTH",
"538 1034 OFFCURVE",
"521 1018 OFFCURVE",
"511 1008 CURVE SMOOTH",
"415 915 LINE",
"433 893 LINE"
);
}
);
};
components = (
{
name = E;
},
{
name = circumflexacute;
transform = "{1, 0, 0, 1, 564, 230}";
}
);
layerId = "0B1DFD06-3317-40CA-B510-4969A0718C16";
width = 607;
}
);
note = Ecircumflexacute;
unicode = 1EBE;
},
{
glyphname = Ecircumflexdotbelow;
lastChange = "2017-12-18 08:06:02 +0000";
layers = (
{
background = {
paths = (
{
closed = 1;
nodes = (
"554 0 LINE",
"571 179 LINE",
"544 179 LINE",
"538 124 OFFCURVE",
"520 40 OFFCURVE",
"456 40 CURVE SMOOTH",
"201 40 LINE",
"201 659 LINE",
"441 659 LINE SMOOTH",
"516 659 OFFCURVE",
"525 567 OFFCURVE",
"528 527 CURVE",
"555 527 LINE",
"555 700 LINE",
"16 700 LINE",
"16 673 LINE",
"44 673 LINE SMOOTH",
"83 673 OFFCURVE",
"103 662 OFFCURVE",
"103 637 CURVE SMOOTH",
"103 62 LINE SMOOTH",
"103 37 OFFCURVE",
"83 26 OFFCURVE",
"44 26 CURVE SMOOTH",
"16 26 LINE",
"16 0 LINE"
);
},
{
closed = 1;
nodes = (
"350 -159 OFFCURVE",
"368 -140 OFFCURVE",
"368 -112 CURVE SMOOTH",
"368 -84 OFFCURVE",
"350 -64 OFFCURVE",
"322 -64 CURVE SMOOTH",
"294 -64 OFFCURVE",
"275 -84 OFFCURVE",
"275 -112 CURVE SMOOTH",
"275 -140 OFFCURVE",
"294 -159 OFFCURVE",
"322 -159 CURVE SMOOTH"
);
},
{
closed = 1;
nodes = (
"455 251 LINE",
"455 485 LINE",
"431 485 LINE",
"427 436 OFFCURVE",
"424 388 OFFCURVE",
"379 388 CURVE SMOOTH",
"162 388 LINE",
"162 348 LINE",
"379 348 LINE SMOOTH",
"424 348 OFFCURVE",
"427 300 OFFCURVE",
"431 251 CURVE"
);
},
{
closed = 1;
nodes = (
"294 868 LINE SMOOTH",
"302 874 OFFCURVE",
"312 879 OFFCURVE",
"318 879 CURVE SMOOTH",
"324 879 OFFCURVE",
"332 874 OFFCURVE",
"341 868 CURVE",
"449 782 LINE",
"468 803 LINE",
"344 932 LINE",
"291 932 LINE",
"167 803 LINE",
"186 782 LINE"
);
}
);
};
components = (
{
name = E;
},
{
name = dotbelowcomb;
transform = "{1, 0, 0, 1, 565, 0}";
},
{
name = circumflex;
transform = "{1, 0, 0, 1, 68, 230}";
}
);
layerId = "0B1DFD06-3317-40CA-B510-4969A0718C16";
width = 607;
}
);
note = Ecircumflexdotbelow;
unicode = 1EC6;
},
{
glyphname = Ecircumflexgrave;
lastChange = "2017-12-18 08:19:22 +0000";
layers = (
{
background = {
paths = (
{
closed = 1;
nodes = (
"554 0 LINE",
"571 179 LINE",
"544 179 LINE",
"538 124 OFFCURVE",
"520 40 OFFCURVE",
"456 40 CURVE SMOOTH",
"201 40 LINE",
"201 659 LINE",
"441 659 LINE SMOOTH",
"516 659 OFFCURVE",
"525 567 OFFCURVE",
"528 527 CURVE",
"555 527 LINE",
"555 700 LINE",
"16 700 LINE",
"16 673 LINE",
"44 673 LINE SMOOTH",
"83 673 OFFCURVE",
"103 662 OFFCURVE",
"103 637 CURVE SMOOTH",
"103 62 LINE SMOOTH",
"103 37 OFFCURVE",
"83 26 OFFCURVE",
"44 26 CURVE SMOOTH",
"16 26 LINE",
"16 0 LINE"
);
},
{
closed = 1;
nodes = (
"455 251 LINE",
"455 485 LINE",
"431 485 LINE",
"427 436 OFFCURVE",
"424 388 OFFCURVE",
"379 388 CURVE SMOOTH",
"162 388 LINE",
"162 348 LINE",
"379 348 LINE SMOOTH",
"424 348 OFFCURVE",
"427 300 OFFCURVE",
"431 251 CURVE"
);
},
{
closed = 1;
nodes = (
"227 915 LINE",
"132 1008 LINE SMOOTH",
"122 1018 OFFCURVE",
"105 1034 OFFCURVE",
"85 1034 CURVE SMOOTH",
"63 1034 OFFCURVE",
"52 1017 OFFCURVE",
"52 1003 CURVE SMOOTH",
"52 988 OFFCURVE",
"65 972 OFFCURVE",
"88 960 CURVE SMOOTH",
"210 893 LINE"
);
},
{
closed = 1;
nodes = (
"290 862 LINE SMOOTH",
"300 870 OFFCURVE",
"310 878 OFFCURVE",
"318 878 CURVE SMOOTH",
"324 878 OFFCURVE",
"332 873 OFFCURVE",
"341 867 CURVE",
"447 781 LINE",
"466 803 LINE",
"344 932 LINE",
"293 932 LINE",
"171 803 LINE",
"189 781 LINE"
);
}
);
};
components = (
{
name = E;
},
{
name = circumflexgrave;
transform = "{1, 0, 0, 1, 564, 230}";
}
);
layerId = "0B1DFD06-3317-40CA-B510-4969A0718C16";
width = 607;
}
);
note = Ecircumflexgrave;
unicode = 1EC0;
},
{
glyphname = Ecircumflexhookabove;
lastChange = "2017-12-18 08:19:34 +0000";
layers = (
{
background = {
paths = (
{
closed = 1;
nodes = (
"554 0 LINE",
"571 179 LINE",
"544 179 LINE",
"538 124 OFFCURVE",
"520 40 OFFCURVE",
"456 40 CURVE SMOOTH",
"201 40 LINE",
"201 659 LINE",
"441 659 LINE SMOOTH",
"516 659 OFFCURVE",
"525 567 OFFCURVE",
"528 527 CURVE",
"555 527 LINE",
"555 700 LINE",
"16 700 LINE",
"16 673 LINE",
"44 673 LINE SMOOTH",
"83 673 OFFCURVE",
"103 662 OFFCURVE",
"103 637 CURVE SMOOTH",
"103 62 LINE SMOOTH",
"103 37 OFFCURVE",
"83 26 OFFCURVE",
"44 26 CURVE SMOOTH",
"16 26 LINE",
"16 0 LINE"
);
},
{
closed = 1;
nodes = (
"455 251 LINE",
"455 485 LINE",
"431 485 LINE",
"427 436 OFFCURVE",
"424 388 OFFCURVE",
"379 388 CURVE SMOOTH",
"162 388 LINE",
"162 348 LINE",
"379 348 LINE SMOOTH",
"424 348 OFFCURVE",
"427 300 OFFCURVE",
"431 251 CURVE"
);
},
{
closed = 1;
nodes = (
"286 858 LINE",
"297 868 OFFCURVE",
"309 878 OFFCURVE",
"318 878 CURVE SMOOTH",
"324 878 OFFCURVE",
"332 873 OFFCURVE",
"341 867 CURVE",
"447 781 LINE",
"466 803 LINE",
"344 932 LINE",
"293 932 LINE",
"171 803 LINE",
"189 781 LINE"
);
},
{
closed = 1;
nodes = (
"493 898 LINE",
"474 905 OFFCURVE",
"464 912 OFFCURVE",
"464 926 CURVE SMOOTH",
"464 954 OFFCURVE",
"544 965 OFFCURVE",
"544 1010 CURVE SMOOTH",
"544 1047 OFFCURVE",
"502 1063 OFFCURVE",
"460 1063 CURVE SMOOTH",
"429 1063 OFFCURVE",
"384 1053 OFFCURVE",
"384 1022 CURVE SMOOTH",
"384 1010 OFFCURVE",
"395 1001 OFFCURVE",
"405 1001 CURVE SMOOTH",
"434 1001 OFFCURVE",
"421 1040 OFFCURVE",
"464 1040 CURVE SMOOTH",
"483 1040 OFFCURVE",
"494 1028 OFFCURVE",
"494 1013 CURVE SMOOTH",
"494 973 OFFCURVE",
"421 965 OFFCURVE",
"421 925 CURVE SMOOTH",
"421 901 OFFCURVE",
"437 880 OFFCURVE",
"484 880 CURVE"
);
}
);
};
components = (
{
name = E;
},
{
name = circumflexhookabove;
transform = "{1, 0, 0, 1, 564, 230}";
}
);
layerId = "0B1DFD06-3317-40CA-B510-4969A0718C16";
width = 607;
}
);
note = Ecircumflexhookabove;
unicode = 1EC2;
},
{
glyphname = Ecircumflextilde;
lastChange = "2017-12-18 08:19:45 +0000";
layers = (
{
background = {
paths = (
{
closed = 1;
nodes = (
"554 0 LINE",
"571 179 LINE",
"544 179 LINE",
"538 124 OFFCURVE",
"520 40 OFFCURVE",
"456 40 CURVE SMOOTH",
"201 40 LINE",
"201 659 LINE",
"441 659 LINE SMOOTH",
"516 659 OFFCURVE",
"525 567 OFFCURVE",
"528 527 CURVE",
"555 527 LINE",
"555 700 LINE",
"16 700 LINE",
"16 673 LINE",
"44 673 LINE SMOOTH",
"83 673 OFFCURVE",
"103 662 OFFCURVE",
"103 637 CURVE SMOOTH",
"103 62 LINE SMOOTH",
"103 37 OFFCURVE",
"83 26 OFFCURVE",
"44 26 CURVE SMOOTH",
"16 26 LINE",
"16 0 LINE"
);
},
{
closed = 1;
nodes = (
"455 251 LINE",
"455 485 LINE",
"431 485 LINE",
"427 436 OFFCURVE",
"424 388 OFFCURVE",
"379 388 CURVE SMOOTH",
"162 388 LINE",
"162 348 LINE",
"379 348 LINE SMOOTH",
"424 348 OFFCURVE",
"427 300 OFFCURVE",
"431 251 CURVE"
);
},
{
closed = 1;
nodes = (
"290 862 LINE SMOOTH",
"300 870 OFFCURVE",
"310 878 OFFCURVE",
"318 878 CURVE SMOOTH",
"324 878 OFFCURVE",
"332 873 OFFCURVE",
"341 867 CURVE",
"447 781 LINE",
"466 803 LINE",
"344 932 LINE",
"293 932 LINE",
"171 803 LINE",
"189 781 LINE"
);
},
{
closed = 1;
nodes = (
"193 997 OFFCURVE",
"211 1018 OFFCURVE",
"242 1018 CURVE SMOOTH",
"291 1018 OFFCURVE",
"338 964 OFFCURVE",
"387 964 CURVE SMOOTH",
"440 964 OFFCURVE",
"469 1012 OFFCURVE",
"481 1063 CURVE",
"460 1075 LINE",
"447 1035 OFFCURVE",
"431 1012 OFFCURVE",
"398 1012 CURVE SMOOTH",
"351 1012 OFFCURVE",
"302 1065 OFFCURVE",
"253 1065 CURVE SMOOTH",
"202 1065 OFFCURVE",
"170 1021 OFFCURVE",
"160 970 CURVE",
"180 958 LINE"
);
}
);
};
components = (
{
name = E;
},
{
name = circumflextilde;
transform = "{1, 0, 0, 1, 564, 230}";
}
);
layerId = "0B1DFD06-3317-40CA-B510-4969A0718C16";
width = 607;
}
);
note = Ecircumflextilde;
unicode = 1EC4;
},
{
glyphname = Edieresis;
lastChange = "2017-12-18 07:59:54 +0000";
layers = (
{
background = {
paths = (
{
closed = 1;
nodes = (
"554 0 LINE",
"571 179 LINE",
"544 179 LINE",
"538 124 OFFCURVE",
"520 40 OFFCURVE",
"456 40 CURVE SMOOTH",
"201 40 LINE",
"201 659 LINE",
"441 659 LINE SMOOTH",
"516 659 OFFCURVE",
"525 567 OFFCURVE",
"528 527 CURVE",
"555 527 LINE",
"555 700 LINE",
"16 700 LINE",
"16 673 LINE",
"44 673 LINE SMOOTH",
"83 673 OFFCURVE",
"103 662 OFFCURVE",
"103 637 CURVE SMOOTH",
"103 62 LINE SMOOTH",
"103 37 OFFCURVE",
"83 26 OFFCURVE",
"44 26 CURVE SMOOTH",
"16 26 LINE",
"16 0 LINE"
);
},
{
closed = 1;
nodes = (
"455 251 LINE",
"455 485 LINE",
"431 485 LINE",
"427 436 OFFCURVE",
"424 388 OFFCURVE",
"379 388 CURVE SMOOTH",
"162 388 LINE",
"162 348 LINE",
"379 348 LINE SMOOTH",
"424 348 OFFCURVE",
"427 300 OFFCURVE",
"431 251 CURVE"
);
},
{
closed = 1;
nodes = (
"254 781 OFFCURVE",
"272 800 OFFCURVE",
"272 827 CURVE SMOOTH",
"272 855 OFFCURVE",
"254 875 OFFCURVE",
"225 875 CURVE SMOOTH",
"197 875 OFFCURVE",
"179 855 OFFCURVE",
"179 827 CURVE SMOOTH",
"179 800 OFFCURVE",
"197 781 OFFCURVE",
"225 781 CURVE SMOOTH"
);
},
{
closed = 1;
nodes = (
"470 781 OFFCURVE",
"488 800 OFFCURVE",
"488 827 CURVE SMOOTH",
"488 855 OFFCURVE",
"470 875 OFFCURVE",
"441 875 CURVE SMOOTH",
"412 875 OFFCURVE",
"394 855 OFFCURVE",
"394 827 CURVE SMOOTH",
"394 800 OFFCURVE",
"412 781 OFFCURVE",
"441 781 CURVE SMOOTH"
);
}
);
};
components = (
{
name = E;
},
{
name = dieresis;
transform = "{1, 0, 0, 1, 68, 230}";
}
);
layerId = "0B1DFD06-3317-40CA-B510-4969A0718C16";
width = 607;
}
);
note = Edieresis;
unicode = 00CB;
},
{
glyphname = Edotaccent;
lastChange = "2017-12-18 07:59:54 +0000";
layers = (
{
background = {
paths = (
{
closed = 1;
nodes = (
"554 0 LINE",
"571 179 LINE",
"544 179 LINE",
"538 124 OFFCURVE",
"520 40 OFFCURVE",
"456 40 CURVE SMOOTH",
"201 40 LINE",
"201 659 LINE",
"441 659 LINE SMOOTH",
"516 659 OFFCURVE",
"525 567 OFFCURVE",
"528 527 CURVE",
"555 527 LINE",
"555 700 LINE",
"16 700 LINE",
"16 673 LINE",
"44 673 LINE SMOOTH",
"83 673 OFFCURVE",
"103 662 OFFCURVE",
"103 637 CURVE SMOOTH",
"103 62 LINE SMOOTH",
"103 37 OFFCURVE",
"83 26 OFFCURVE",
"44 26 CURVE SMOOTH",
"16 26 LINE",
"16 0 LINE"
);
},
{
closed = 1;
nodes = (
"455 251 LINE",
"455 485 LINE",
"431 485 LINE",
"427 436 OFFCURVE",
"424 388 OFFCURVE",
"379 388 CURVE SMOOTH",
"162 388 LINE",
"162 348 LINE",
"379 348 LINE SMOOTH",
"424 348 OFFCURVE",
"427 300 OFFCURVE",
"431 251 CURVE"
);
},
{
closed = 1;
nodes = (
"362 765 OFFCURVE",
"380 784 OFFCURVE",
"380 811 CURVE SMOOTH",
"380 839 OFFCURVE",
"362 858 OFFCURVE",
"334 858 CURVE SMOOTH",
"305 858 OFFCURVE",
"287 839 OFFCURVE",
"287 811 CURVE SMOOTH",
"287 784 OFFCURVE",
"305 765 OFFCURVE",
"334 765 CURVE SMOOTH"
);
}
);
};
components = (
{
name = E;
},
{
name = dotaccent;
transform = "{1, 0, 0, 1, 68, 230}";
}
);
layerId = "0B1DFD06-3317-40CA-B510-4969A0718C16";
width = 607;
}
);
note = Edotaccent;
unicode = 0116;
},
{
glyphname = Edotbelow;
lastChange = "2017-12-18 08:06:02 +0000";
layers = (
{
background = {
paths = (
{
closed = 1;
nodes = (
"554 0 LINE",
"571 179 LINE",
"544 179 LINE",
"538 124 OFFCURVE",
"520 40 OFFCURVE",
"456 40 CURVE SMOOTH",
"201 40 LINE",
"201 659 LINE",
"441 659 LINE SMOOTH",
"516 659 OFFCURVE",
"525 567 OFFCURVE",
"528 527 CURVE",
"555 527 LINE",
"555 700 LINE",
"16 700 LINE",
"16 673 LINE",
"44 673 LINE SMOOTH",
"83 673 OFFCURVE",
"103 662 OFFCURVE",
"103 637 CURVE SMOOTH",
"103 62 LINE SMOOTH",
"103 37 OFFCURVE",
"83 26 OFFCURVE",
"44 26 CURVE SMOOTH",
"16 26 LINE",
"16 0 LINE"
);
},
{
closed = 1;
nodes = (
"343 -159 OFFCURVE",
"361 -140 OFFCURVE",
"361 -112 CURVE SMOOTH",
"361 -84 OFFCURVE",
"343 -64 OFFCURVE",
"315 -64 CURVE SMOOTH",
"287 -64 OFFCURVE",
"268 -84 OFFCURVE",
"268 -112 CURVE SMOOTH",
"268 -140 OFFCURVE",
"287 -159 OFFCURVE",
"315 -159 CURVE SMOOTH"
);
},
{
closed = 1;
nodes = (
"455 251 LINE",
"455 485 LINE",
"431 485 LINE",
"427 436 OFFCURVE",
"424 388 OFFCURVE",
"379 388 CURVE SMOOTH",
"162 388 LINE",
"162 348 LINE",
"379 348 LINE SMOOTH",
"424 348 OFFCURVE",
"427 300 OFFCURVE",
"431 251 CURVE"
);
}
);
};
components = (
{
name = E;
},
{
name = dotbelowcomb;
transform = "{1, 0, 0, 1, 565, 0}";
}
);
layerId = "0B1DFD06-3317-40CA-B510-4969A0718C16";
width = 607;
}
);
note = Edotbelow;
unicode = 1EB8;
},
{
glyphname = Egrave;
lastChange = "2017-12-18 07:59:54 +0000";
layers = (
{
background = {
paths = (
{
closed = 1;
nodes = (
"554 0 LINE",
"571 179 LINE",
"544 179 LINE",
"538 124 OFFCURVE",
"520 40 OFFCURVE",
"456 40 CURVE SMOOTH",
"201 40 LINE",
"201 659 LINE",
"441 659 LINE SMOOTH",
"516 659 OFFCURVE",
"525 567 OFFCURVE",
"528 527 CURVE",
"555 527 LINE",
"555 700 LINE",
"16 700 LINE",
"16 673 LINE",
"44 673 LINE SMOOTH",
"83 673 OFFCURVE",
"103 662 OFFCURVE",
"103 637 CURVE SMOOTH",
"103 62 LINE SMOOTH",
"103 37 OFFCURVE",
"83 26 OFFCURVE",
"44 26 CURVE SMOOTH",
"16 26 LINE",
"16 0 LINE"
);
},
{
closed = 1;
nodes = (
"455 251 LINE",
"455 485 LINE",
"431 485 LINE",
"427 436 OFFCURVE",
"424 388 OFFCURVE",
"379 388 CURVE SMOOTH",
"162 388 LINE",
"162 348 LINE",
"379 348 LINE SMOOTH",
"424 348 OFFCURVE",
"427 300 OFFCURVE",
"431 251 CURVE"
);
},
{
closed = 1;
nodes = (
"425 807 LINE",
"310 913 LINE",
"301 922 OFFCURVE",
"285 937 OFFCURVE",
"265 937 CURVE SMOOTH",
"245 937 OFFCURVE",
"233 924 OFFCURVE",
"233 908 CURVE SMOOTH",
"233 890 OFFCURVE",
"245 876 OFFCURVE",
"264 865 CURVE SMOOTH",
"407 782 LINE"
);
}
);
};
components = (
{
name = E;
},
{
name = grave;
transform = "{1, 0, 0, 1, 68, 230}";
}
);
layerId = "0B1DFD06-3317-40CA-B510-4969A0718C16";
width = 607;
}
);
note = Egrave;
unicode = 00C8;
},
{
glyphname = Ehookabove;
lastChange = "2017-12-18 07:59:54 +0000";
layers = (
{
background = {
paths = (
{
closed = 1;
nodes = (
"554 0 LINE",
"571 179 LINE",
"544 179 LINE",
"538 124 OFFCURVE",
"520 40 OFFCURVE",
"456 40 CURVE SMOOTH",
"201 40 LINE",
"201 659 LINE",
"441 659 LINE SMOOTH",
"516 659 OFFCURVE",
"525 567 OFFCURVE",
"528 527 CURVE",
"555 527 LINE",
"555 700 LINE",
"16 700 LINE",
"16 673 LINE",
"44 673 LINE SMOOTH",
"83 673 OFFCURVE",
"103 662 OFFCURVE",
"103 637 CURVE SMOOTH",
"103 62 LINE SMOOTH",
"103 37 OFFCURVE",
"83 26 OFFCURVE",
"44 26 CURVE SMOOTH",
"16 26 LINE",
"16 0 LINE"
);
},
{
closed = 1;
nodes = (
"455 251 LINE",
"455 485 LINE",
"431 485 LINE",
"427 436 OFFCURVE",
"424 388 OFFCURVE",
"379 388 CURVE SMOOTH",
"162 388 LINE",
"162 348 LINE",
"379 348 LINE SMOOTH",
"424 348 OFFCURVE",
"427 300 OFFCURVE",
"431 251 CURVE"
);
},
{
closed = 1;
nodes = (
"367 798 LINE",
"348 805 OFFCURVE",
"336 811 OFFCURVE",
"336 828 CURVE SMOOTH",
"336 861 OFFCURVE",
"425 876 OFFCURVE",
"425 927 CURVE SMOOTH",
"425 969 OFFCURVE",
"389 991 OFFCURVE",
"336 991 CURVE SMOOTH",
"289 991 OFFCURVE",
"248 974 OFFCURVE",
"248 940 CURVE SMOOTH",
"248 923 OFFCURVE",
"256 915 OFFCURVE",
"271 915 CURVE SMOOTH",
"294 915 OFFCURVE",
"296 934 OFFCURVE",
"299 942 CURVE SMOOTH",
"304 956 OFFCURVE",
"321 962 OFFCURVE",
"337 962 CURVE SMOOTH",
"358 962 OFFCURVE",
"371 947 OFFCURVE",
"371 930 CURVE SMOOTH",
"371 885 OFFCURVE",
"289 874 OFFCURVE",
"289 828 CURVE SMOOTH",
"289 801 OFFCURVE",
"307 778 OFFCURVE",
"358 778 CURVE"
);
}
);
};
components = (
{
name = E;
},
{
name = hookabovecomb;
transform = "{1, 0, 0, 1, 565, 230}";
}
);
layerId = "0B1DFD06-3317-40CA-B510-4969A0718C16";
width = 607;
}
);
note = Ehookabove;
unicode = 1EBA;
},
{
glyphname = Emacron;
lastChange = "2017-12-18 07:59:54 +0000";
layers = (
{
background = {
paths = (
{
closed = 1;
nodes = (
"554 0 LINE",
"571 179 LINE",
"544 179 LINE",
"538 124 OFFCURVE",
"520 40 OFFCURVE",
"456 40 CURVE SMOOTH",
"201 40 LINE",
"201 659 LINE",
"441 659 LINE SMOOTH",
"516 659 OFFCURVE",
"525 567 OFFCURVE",
"528 527 CURVE",
"555 527 LINE",
"555 700 LINE",
"16 700 LINE",
"16 673 LINE",
"44 673 LINE SMOOTH",
"83 673 OFFCURVE",
"103 662 OFFCURVE",
"103 637 CURVE SMOOTH",
"103 62 LINE SMOOTH",
"103 37 OFFCURVE",
"83 26 OFFCURVE",
"44 26 CURVE SMOOTH",
"16 26 LINE",
"16 0 LINE"
);
},
{
closed = 1;
nodes = (
"455 251 LINE",
"455 485 LINE",
"431 485 LINE",
"427 436 OFFCURVE",
"424 388 OFFCURVE",
"379 388 CURVE SMOOTH",
"162 388 LINE",
"162 348 LINE",
"379 348 LINE SMOOTH",
"424 348 OFFCURVE",
"427 300 OFFCURVE",
"431 251 CURVE"
);
},
{
closed = 1;
nodes = (
"495 782 LINE",
"495 824 LINE",
"162 824 LINE",
"162 782 LINE"
);
}
);
};
components = (
{
name = E;
},
{
name = macron;
transform = "{1, 0, 0, 1, 68, 230}";
}
);
layerId = "0B1DFD06-3317-40CA-B510-4969A0718C16";
width = 607;
}
);
note = Emacron;
unicode = 0112;
},
{
glyphname = Eogonek;
lastChange = "2017-12-18 07:59:54 +0000";
layers = (
{
background = {
paths = (
{
closed = 1;
nodes = (
"554 0 LINE",
"571 179 LINE",
"544 179 LINE",
"538 124 OFFCURVE",
"520 40 OFFCURVE",
"456 40 CURVE SMOOTH",
"201 40 LINE",
"201 659 LINE",
"441 659 LINE SMOOTH",
"516 659 OFFCURVE",
"525 567 OFFCURVE",
"528 527 CURVE",
"555 527 LINE",
"555 700 LINE",
"16 700 LINE",
"16 673 LINE",
"44 673 LINE SMOOTH",
"83 673 OFFCURVE",
"103 662 OFFCURVE",
"103 637 CURVE SMOOTH",
"103 62 LINE SMOOTH",
"103 37 OFFCURVE",
"83 26 OFFCURVE",
"44 26 CURVE SMOOTH",
"16 26 LINE",
"16 0 LINE"
);
},
{
closed = 1;
nodes = (
"496 -196 OFFCURVE",
"524 -189 OFFCURVE",
"549 -172 CURVE",
"543 -152 LINE",
"527 -158 OFFCURVE",
"510 -162 OFFCURVE",
"497 -162 CURVE SMOOTH",
"464 -162 OFFCURVE",
"437 -146 OFFCURVE",
"437 -106 CURVE SMOOTH",
"437 -66 OFFCURVE",
"464 -26 OFFCURVE",
"510 4 CURVE",
"469 4 LINE",
"416 -22 OFFCURVE",
"376 -64 OFFCURVE",
"376 -114 CURVE SMOOTH",
"376 -147 OFFCURVE",
"395 -196 OFFCURVE",
"470 -196 CURVE SMOOTH"
);
},
{
closed = 1;
nodes = (
"455 251 LINE",
"455 485 LINE",
"431 485 LINE",
"427 436 OFFCURVE",
"424 388 OFFCURVE",
"379 388 CURVE SMOOTH",
"162 388 LINE",
"162 348 LINE",
"379 348 LINE SMOOTH",
"424 348 OFFCURVE",
"427 300 OFFCURVE",
"431 251 CURVE"
);
}
);
};
components = (
{
name = E;
},
{
name = ogonek;
transform = "{1, 0, 0, 1, 256, 0}";
}
);
layerId = "0B1DFD06-3317-40CA-B510-4969A0718C16";
width = 607;
}
);
note = Eogonek;
unicode = 0118;
},
{
glyphname = Etilde;
lastChange = "2017-12-18 07:59:54 +0000";
layers = (
{
background = {
paths = (
{
closed = 1;
nodes = (
"554 0 LINE",
"571 179 LINE",
"544 179 LINE",
"538 124 OFFCURVE",
"520 40 OFFCURVE",
"456 40 CURVE SMOOTH",
"201 40 LINE",
"201 659 LINE",
"441 659 LINE SMOOTH",
"516 659 OFFCURVE",
"525 567 OFFCURVE",
"528 527 CURVE",
"555 527 LINE",
"555 700 LINE",
"16 700 LINE",
"16 673 LINE",
"44 673 LINE SMOOTH",
"83 673 OFFCURVE",
"103 662 OFFCURVE",
"103 637 CURVE SMOOTH",
"103 62 LINE SMOOTH",
"103 37 OFFCURVE",
"83 26 OFFCURVE",
"44 26 CURVE SMOOTH",
"16 26 LINE",
"16 0 LINE"
);
},
{
closed = 1;
nodes = (
"455 251 LINE",
"455 485 LINE",
"431 485 LINE",
"427 436 OFFCURVE",
"424 388 OFFCURVE",
"379 388 CURVE SMOOTH",
"162 388 LINE",
"162 348 LINE",
"379 348 LINE SMOOTH",
"424 348 OFFCURVE",
"427 300 OFFCURVE",
"431 251 CURVE"
);
},
{
closed = 1;
nodes = (
"190 817 OFFCURVE",
"208 838 OFFCURVE",
"241 838 CURVE SMOOTH",
"292 838 OFFCURVE",
"341 784 OFFCURVE",
"392 784 CURVE SMOOTH",
"450 784 OFFCURVE",
"480 832 OFFCURVE",
"492 884 CURVE",
"471 895 LINE",
"455 855 OFFCURVE",
"439 833 OFFCURVE",
"405 833 CURVE SMOOTH",
"356 833 OFFCURVE",
"304 886 OFFCURVE",
"253 886 CURVE SMOOTH",
"199 886 OFFCURVE",
"166 842 OFFCURVE",
"154 790 CURVE",
"176 779 LINE"
);
}
);
};
components = (
{
name = E;
},
{
name = tilde;
transform = "{1, 0, 0, 1, 68, 230}";
}
);
layerId = "0B1DFD06-3317-40CA-B510-4969A0718C16";
width = 607;
}
);
note = Etilde;
unicode = 1EBC;
},
{
glyphname = Hbar;
lastChange = "2017-12-18 08:22:19 +0000";
layers = (
{
components = (
{
name = H;
}
);
layerId = "0B1DFD06-3317-40CA-B510-4969A0718C16";
paths = (
{
closed = 1;
nodes = (
"719 504 LINE",
"719 544 LINE",
"43 544 LINE",
"43 504 LINE"
);
}
);
width = 773;
}
);
note = Hbar;
unicode = 0126;
},
{
color = 0;
glyphname = IJ;
lastChange = "2017-12-19 04:56:16 +0000";
layers = (
{
layerId = "0B1DFD06-3317-40CA-B510-4969A0718C16";
paths = (
{
closed = 1;
nodes = (
"472 -114 OFFCURVE",
"561 -45 OFFCURVE",
"561 89 CURVE SMOOTH",
"561 637 LINE SMOOTH",
"561 662 OFFCURVE",
"581 673 OFFCURVE",
"619 673 CURVE SMOOTH",
"649 673 LINE",
"649 700 LINE",
"376 700 LINE",
"376 673 LINE",
"405 673 LINE SMOOTH",
"444 673 OFFCURVE",
"463 662 OFFCURVE",
"463 637 CURVE SMOOTH",
"463 90 LINE SMOOTH",
"463 -8 OFFCURVE",
"424 -75 OFFCURVE",
"339 -93 CURVE",
"343 -114 LINE"
);
},
{
closed = 1;
nodes = (
"298 0 LINE",
"298 26 LINE",
"270 26 LINE SMOOTH",
"231 26 OFFCURVE",
"211 37 OFFCURVE",
"211 62 CURVE SMOOTH",
"211 637 LINE SMOOTH",
"211 662 OFFCURVE",
"231 673 OFFCURVE",
"270 673 CURVE SMOOTH",
"298 673 LINE",
"298 700 LINE",
"26 700 LINE",
"26 673 LINE",
"55 673 LINE SMOOTH",
"93 673 OFFCURVE",
"113 662 OFFCURVE",
"113 637 CURVE SMOOTH",
"113 62 LINE SMOOTH",
"113 37 OFFCURVE",
"93 26 OFFCURVE",
"55 26 CURVE SMOOTH",
"26 26 LINE",
"26 0 LINE"
);
}
);
width = 675;
}
);
note = IJ;
rightKerningGroup = J;
unicode = 0132;
},
{
glyphname = Lslash;
lastChange = "2017-12-19 04:56:22 +0000";
layers = (
{
layerId = "0B1DFD06-3317-40CA-B510-4969A0718C16";
paths = (
{
closed = 1;
nodes = (
"487 0 LINE",
"487 49 LINE",
"145 49 LINE",
"145 338 LINE",
"295 439 LINE",
"295 492 LINE",
"246 460 OFFCURVE",
"194 421 OFFCURVE",
"145 390 CURVE",
"145 696 LINE",
"88 696 LINE",
"88 355 LINE",
"-7 288 LINE",
"-7 236 LINE",
"23 257 OFFCURVE",
"56 282 OFFCURVE",
"88 303 CURVE",
"88 0 LINE"
);
}
);
width = 508;
}
);
note = Lslash;
unicode = 0141;
},
{
glyphname = Nacute;
lastChange = "2017-12-18 08:29:18 +0000";
layers = (
{
background = {
paths = (
{
closed = 1;
nodes = (
"247 0 LINE",
"247 26 LINE",
"217 26 LINE SMOOTH",
"179 26 OFFCURVE",
"159 37 OFFCURVE",
"159 62 CURVE SMOOTH",
"159 642 LINE",
"587 0 LINE",
"645 0 LINE",
"645 637 LINE SMOOTH",
"645 662 OFFCURVE",
"665 673 OFFCURVE",
"703 673 CURVE SMOOTH",
"733 673 LINE",
"733 700 LINE",
"508 700 LINE",
"508 673 LINE",
"537 673 LINE SMOOTH",
"576 673 OFFCURVE",
"595 662 OFFCURVE",
"595 637 CURVE SMOOTH",
"595 126 LINE",
"217 700 LINE",
"22 700 LINE",
"22 673 LINE",
"51 673 LINE SMOOTH",
"90 673 OFFCURVE",
"109 662 OFFCURVE",
"109 637 CURVE SMOOTH",
"109 62 LINE SMOOTH",
"109 37 OFFCURVE",
"90 26 OFFCURVE",
"51 26 CURVE SMOOTH",
"22 26 LINE",
"22 0 LINE"
);
},
{
closed = 1;
nodes = (
"458 865 LINE SMOOTH",
"480 877 OFFCURVE",
"492 890 OFFCURVE",
"492 907 CURVE SMOOTH",
"492 922 OFFCURVE",
"480 937 OFFCURVE",
"458 937 CURVE SMOOTH",
"437 937 OFFCURVE",
"422 921 OFFCURVE",
"414 914 CURVE SMOOTH",
"299 807 LINE",
"316 782 LINE"
);
}
);
};
components = (
{
name = N;
},
{
name = acute;
transform = "{1, 0, 0, 1, 120, 230}";
}
);
layerId = "0B1DFD06-3317-40CA-B510-4969A0718C16";
width = 755;
}
);
note = Nacute;
unicode = 0143;
},
{
glyphname = Ncaron;
lastChange = "2017-12-18 08:29:18 +0000";
layers = (
{
background = {
paths = (
{
closed = 1;
nodes = (
"247 0 LINE",
"247 26 LINE",
"217 26 LINE SMOOTH",
"179 26 OFFCURVE",
"159 37 OFFCURVE",
"159 62 CURVE SMOOTH",
"159 642 LINE",
"587 0 LINE",
"645 0 LINE",
"645 637 LINE SMOOTH",
"645 662 OFFCURVE",
"665 673 OFFCURVE",
"703 673 CURVE SMOOTH",
"733 673 LINE",
"733 700 LINE",
"508 700 LINE",
"508 673 LINE",
"537 673 LINE SMOOTH",
"576 673 OFFCURVE",
"595 662 OFFCURVE",
"595 637 CURVE SMOOTH",
"595 126 LINE",
"217 700 LINE",
"22 700 LINE",
"22 673 LINE",
"51 673 LINE SMOOTH",
"90 673 OFFCURVE",
"109 662 OFFCURVE",
"109 637 CURVE SMOOTH",
"109 62 LINE SMOOTH",
"109 37 OFFCURVE",
"90 26 OFFCURVE",
"51 26 CURVE SMOOTH",
"22 26 LINE",
"22 0 LINE"
);
},
{
closed = 1;
nodes = (
"403 782 LINE",
"527 911 LINE",
"508 932 LINE",
"400 847 LINE",
"392 840 OFFCURVE",
"383 836 OFFCURVE",
"377 836 CURVE SMOOTH",
"371 836 OFFCURVE",
"363 840 OFFCURVE",
"353 847 CURVE",
"245 932 LINE",
"226 911 LINE",
"350 782 LINE"
);
}
);
};
components = (
{
name = N;
},
{
name = caron;
transform = "{1, 0, 0, 1, 132, 230}";
}
);
layerId = "0B1DFD06-3317-40CA-B510-4969A0718C16";
width = 755;
}
);
note = Ncaron;
unicode = 0147;
},
{
glyphname = Ncommaaccent;
lastChange = "2017-12-19 04:56:50 +0000";
layers = (
{
background = {
paths = (
{
closed = 1;
nodes = (
"247 0 LINE",
"247 26 LINE",
"217 26 LINE SMOOTH",
"179 26 OFFCURVE",
"159 37 OFFCURVE",
"159 62 CURVE SMOOTH",
"159 642 LINE",
"587 0 LINE",
"645 0 LINE",
"645 637 LINE SMOOTH",
"645 662 OFFCURVE",
"665 673 OFFCURVE",
"703 673 CURVE SMOOTH",
"733 673 LINE",
"733 700 LINE",
"508 700 LINE",
"508 673 LINE",
"537 673 LINE SMOOTH",
"576 673 OFFCURVE",
"595 662 OFFCURVE",
"595 637 CURVE SMOOTH",
"595 126 LINE",
"217 700 LINE",
"22 700 LINE",
"22 673 LINE",
"51 673 LINE SMOOTH",
"90 673 OFFCURVE",
"109 662 OFFCURVE",
"109 637 CURVE SMOOTH",
"109 62 LINE SMOOTH",
"109 37 OFFCURVE",
"90 26 OFFCURVE",
"51 26 CURVE SMOOTH",
"22 26 LINE",
"22 0 LINE"
);
},
{
closed = 1;
nodes = (
"369 -258 OFFCURVE",
"413 -198 OFFCURVE",
"413 -135 CURVE SMOOTH",
"413 -87 OFFCURVE",
"389 -67 OFFCURVE",
"360 -67 CURVE SMOOTH",
"331 -67 OFFCURVE",
"314 -87 OFFCURVE",
"314 -111 CURVE SMOOTH",
"314 -145 OFFCURVE",
"349 -152 OFFCURVE",
"349 -187 CURVE SMOOTH",
"349 -223 OFFCURVE",
"323 -256 OFFCURVE",
"296 -282 CURVE",
"313 -299 LINE"
);
}
);
};
components = (
{
name = N;
},
{
name = commaaccentcomb;
}
);
layerId = "0B1DFD06-3317-40CA-B510-4969A0718C16";
width = 707;
}
);
note = Ncommaaccent;
unicode = 0145;
},
{
glyphname = Ndotaccent;
lastChange = "2017-12-18 08:29:18 +0000";
layers = (
{
background = {
paths = (
{
closed = 1;
nodes = (
"247 0 LINE",
"247 26 LINE",
"217 26 LINE SMOOTH",
"179 26 OFFCURVE",
"159 37 OFFCURVE",
"159 62 CURVE SMOOTH",
"159 642 LINE",
"587 0 LINE",
"645 0 LINE",
"645 637 LINE SMOOTH",
"645 662 OFFCURVE",
"665 673 OFFCURVE",
"703 673 CURVE SMOOTH",
"733 673 LINE",
"733 700 LINE",
"508 700 LINE",
"508 673 LINE",
"537 673 LINE SMOOTH",
"576 673 OFFCURVE",
"595 662 OFFCURVE",
"595 637 CURVE SMOOTH",
"595 126 LINE",
"217 700 LINE",
"22 700 LINE",
"22 673 LINE",
"51 673 LINE SMOOTH",
"90 673 OFFCURVE",
"109 662 OFFCURVE",
"109 637 CURVE SMOOTH",
"109 62 LINE SMOOTH",
"109 37 OFFCURVE",
"90 26 OFFCURVE",
"51 26 CURVE SMOOTH",
"22 26 LINE",
"22 0 LINE"
);
},
{
closed = 1;
nodes = (
"405 765 OFFCURVE",
"423 784 OFFCURVE",
"423 811 CURVE SMOOTH",
"423 839 OFFCURVE",
"405 858 OFFCURVE",
"377 858 CURVE SMOOTH",
"348 858 OFFCURVE",
"330 839 OFFCURVE",
"330 811 CURVE SMOOTH",
"330 784 OFFCURVE",
"348 765 OFFCURVE",
"377 765 CURVE SMOOTH"
);
}
);
};
components = (
{
name = N;
},
{
name = dotaccent;
transform = "{1, 0, 0, 1, 132, 230}";
}
);
layerId = "0B1DFD06-3317-40CA-B510-4969A0718C16";
width = 755;
}
);
note = Ndotaccent;
unicode = 1E44;
},
{
glyphname = Ndotbelow;
lastChange = "2017-12-18 08:29:18 +0000";
layers = (
{
background = {
paths = (
{
closed = 1;
nodes = (
"247 0 LINE",
"247 26 LINE",
"217 26 LINE SMOOTH",
"179 26 OFFCURVE",
"159 37 OFFCURVE",
"159 62 CURVE SMOOTH",
"159 642 LINE",
"587 0 LINE",
"645 0 LINE",
"645 637 LINE SMOOTH",
"645 662 OFFCURVE",
"665 673 OFFCURVE",
"703 673 CURVE SMOOTH",
"733 673 LINE",
"733 700 LINE",
"508 700 LINE",
"508 673 LINE",
"537 673 LINE SMOOTH",
"576 673 OFFCURVE",
"595 662 OFFCURVE",
"595 637 CURVE SMOOTH",
"595 126 LINE",
"217 700 LINE",
"22 700 LINE",
"22 673 LINE",
"51 673 LINE SMOOTH",
"90 673 OFFCURVE",
"109 662 OFFCURVE",
"109 637 CURVE SMOOTH",
"109 62 LINE SMOOTH",
"109 37 OFFCURVE",
"90 26 OFFCURVE",
"51 26 CURVE SMOOTH",
"22 26 LINE",
"22 0 LINE"
);
},
{
closed = 1;
nodes = (
"415 -159 OFFCURVE",
"433 -140 OFFCURVE",
"433 -112 CURVE SMOOTH",
"433 -84 OFFCURVE",
"415 -64 OFFCURVE",
"387 -64 CURVE SMOOTH",
"359 -64 OFFCURVE",
"340 -84 OFFCURVE",
"340 -112 CURVE SMOOTH",
"340 -140 OFFCURVE",
"359 -159 OFFCURVE",
"387 -159 CURVE SMOOTH"
);
}
);
};
components = (
{
name = N;
},
{
name = dotbelowcomb;
transform = "{1, 0, 0, 1, 629, 0}";
}
);
layerId = "0B1DFD06-3317-40CA-B510-4969A0718C16";
width = 755;
}
);
note = uni1E46;
unicode = 1E46;
},
{
color = 0;
glyphname = Eng;
lastChange = "2017-12-19 04:56:54 +0000";
layers = (
{
background = {
paths = (
{
closed = 1;
nodes = (
"592 -259 OFFCURVE",
"645 -182 OFFCURVE",
"645 -36 CURVE SMOOTH",
"645 637 LINE SMOOTH",
"645 662 OFFCURVE",
"665 673 OFFCURVE",
"703 673 CURVE SMOOTH",
"733 673 LINE",
"733 700 LINE",
"508 700 LINE",
"508 673 LINE",
"537 673 LINE SMOOTH",
"576 673 OFFCURVE",
"595 662 OFFCURVE",
"595 637 CURVE SMOOTH",
"595 125 LINE",
"219 700 LINE",
"22 700 LINE",
"22 673 LINE",
"51 673 LINE SMOOTH",
"90 673 OFFCURVE",
"109 662 OFFCURVE",
"109 637 CURVE SMOOTH",
"109 62 LINE SMOOTH",
"109 37 OFFCURVE",
"93 26 OFFCURVE",
"51 26 CURVE SMOOTH",
"22 26 LINE",
"22 0 LINE",
"247 0 LINE",
"247 26 LINE",
"217 26 LINE SMOOTH",
"179 26 OFFCURVE",
"159 37 OFFCURVE",
"159 62 CURVE SMOOTH",
"159 647 LINE",
"586 0 LINE",
"586 -76 LINE SMOOTH",
"586 -173 OFFCURVE",
"510 -238 OFFCURVE",
"423 -243 CURVE",
"427 -268 LINE"
);
}
);
};
layerId = "0B1DFD06-3317-40CA-B510-4969A0718C16";
paths = (
{
closed = 1;
nodes = (
"592 -259 OFFCURVE",
"645 -182 OFFCURVE",
"645 -36 CURVE SMOOTH",
"645 637 LINE SMOOTH",
"645 662 OFFCURVE",
"665 673 OFFCURVE",
"703 673 CURVE SMOOTH",
"733 673 LINE",
"733 700 LINE",
"508 700 LINE",
"508 673 LINE",
"537 673 LINE SMOOTH",
"576 673 OFFCURVE",
"595 662 OFFCURVE",
"595 637 CURVE SMOOTH",
"595 125 LINE",
"219 700 LINE",
"22 700 LINE",
"22 673 LINE",
"51 673 LINE SMOOTH",
"90 673 OFFCURVE",
"109 662 OFFCURVE",
"109 637 CURVE SMOOTH",
"109 62 LINE SMOOTH",
"109 37 OFFCURVE",
"93 26 OFFCURVE",
"51 26 CURVE SMOOTH",
"22 26 LINE",
"22 0 LINE",
"247 0 LINE",
"247 26 LINE",
"217 26 LINE SMOOTH",
"179 26 OFFCURVE",
"159 37 OFFCURVE",
"159 62 CURVE SMOOTH",
"159 647 LINE",
"586 0 LINE",
"586 -76 LINE SMOOTH",
"586 -173 OFFCURVE",
"510 -238 OFFCURVE",
"423 -243 CURVE",
"427 -268 LINE"
);
}
);
width = 755;
}
);
note = Eng;
unicode = 014A;
},
{
glyphname = Nlinebelow;
lastChange = "2017-12-18 08:29:18 +0000";
layers = (
{
background = {
paths = (
{
closed = 1;
nodes = (
"247 0 LINE",
"247 26 LINE",
"217 26 LINE SMOOTH",
"179 26 OFFCURVE",
"159 37 OFFCURVE",
"159 62 CURVE SMOOTH",
"159 642 LINE",
"587 0 LINE",
"645 0 LINE",
"645 637 LINE SMOOTH",
"645 662 OFFCURVE",
"665 673 OFFCURVE",
"703 673 CURVE SMOOTH",
"733 673 LINE",
"733 700 LINE",
"508 700 LINE",
"508 673 LINE",
"537 673 LINE SMOOTH",
"576 673 OFFCURVE",
"595 662 OFFCURVE",
"595 637 CURVE SMOOTH",
"595 126 LINE",
"217 700 LINE",
"22 700 LINE",
"22 673 LINE",
"51 673 LINE SMOOTH",
"90 673 OFFCURVE",
"109 662 OFFCURVE",
"109 637 CURVE SMOOTH",
"109 62 LINE SMOOTH",
"109 37 OFFCURVE",
"90 26 OFFCURVE",
"51 26 CURVE SMOOTH",
"22 26 LINE",
"22 0 LINE"
);
},
{
closed = 1;
nodes = (
"542 -110 LINE",
"542 -72 LINE",
"210 -72 LINE",
"210 -110 LINE"
);
}
);
};
components = (
{
name = N;
},
{
name = macronbelowcomb;
transform = "{1, 0, 0, 1, 378, 0}";
}
);
layerId = "0B1DFD06-3317-40CA-B510-4969A0718C16";
width = 755;
}
);
note = Nlinebelow;
unicode = 1E48;
},
{
glyphname = Ntilde;
lastChange = "2017-12-18 08:29:18 +0000";
layers = (
{
background = {
paths = (
{
closed = 1;
nodes = (
"247 0 LINE",
"247 26 LINE",
"217 26 LINE SMOOTH",
"179 26 OFFCURVE",
"159 37 OFFCURVE",
"159 62 CURVE SMOOTH",
"159 642 LINE",
"587 0 LINE",
"645 0 LINE",
"645 637 LINE SMOOTH",
"645 662 OFFCURVE",
"665 673 OFFCURVE",
"703 673 CURVE SMOOTH",
"733 673 LINE",
"733 700 LINE",
"508 700 LINE",
"508 673 LINE",
"537 673 LINE SMOOTH",
"576 673 OFFCURVE",
"595 662 OFFCURVE",
"595 637 CURVE SMOOTH",
"595 126 LINE",
"217 700 LINE",
"22 700 LINE",
"22 673 LINE",
"51 673 LINE SMOOTH",
"90 673 OFFCURVE",
"109 662 OFFCURVE",
"109 637 CURVE SMOOTH",
"109 62 LINE SMOOTH",
"109 37 OFFCURVE",
"90 26 OFFCURVE",
"51 26 CURVE SMOOTH",
"22 26 LINE",
"22 0 LINE"
);
},
{
closed = 1;
nodes = (
"254 818 OFFCURVE",
"272 839 OFFCURVE",
"305 839 CURVE SMOOTH",
"356 839 OFFCURVE",
"405 785 OFFCURVE",
"456 785 CURVE SMOOTH",
"514 785 OFFCURVE",
"544 833 OFFCURVE",
"556 885 CURVE",
"535 896 LINE",
"519 856 OFFCURVE",
"503 834 OFFCURVE",
"469 834 CURVE SMOOTH",
"420 834 OFFCURVE",
"368 887 OFFCURVE",
"317 887 CURVE SMOOTH",
"263 887 OFFCURVE",
"230 843 OFFCURVE",
"218 791 CURVE",
"240 780 LINE"
);
}
);
};
components = (
{
name = N;
},
{
name = tilde;
transform = "{1, 0, 0, 1, 132, 230}";
}
);
layerId = "0B1DFD06-3317-40CA-B510-4969A0718C16";
width = 755;
}
);
note = Ntilde;
unicode = 00D1;
},
{
glyphname = Oacute;
lastChange = "2017-12-18 08:30:49 +0000";
layers = (
{
background = {
paths = (
{
closed = 1;
nodes = (
"601 -10 OFFCURVE",
"719 124 OFFCURVE",
"719 350 CURVE SMOOTH",
"719 574 OFFCURVE",
"601 710 OFFCURVE",
"378 710 CURVE SMOOTH",
"154 710 OFFCURVE",
"36 574 OFFCURVE",
"36 350 CURVE SMOOTH",
"36 124 OFFCURVE",
"154 -10 OFFCURVE",
"378 -10 CURVE SMOOTH"
);
},
{
closed = 1;
nodes = (
"215 32 OFFCURVE",
"135 158 OFFCURVE",
"135 350 CURVE SMOOTH",
"135 541 OFFCURVE",
"215 668 OFFCURVE",
"377 668 CURVE SMOOTH",
"541 668 OFFCURVE",
"620 541 OFFCURVE",
"620 350 CURVE SMOOTH",
"620 158 OFFCURVE",
"541 32 OFFCURVE",
"377 32 CURVE SMOOTH"
);
},
{
closed = 1;
nodes = (
"440 865 LINE SMOOTH",
"462 877 OFFCURVE",
"474 890 OFFCURVE",
"474 907 CURVE SMOOTH",
"474 922 OFFCURVE",
"462 937 OFFCURVE",
"440 937 CURVE SMOOTH",
"419 937 OFFCURVE",
"404 921 OFFCURVE",
"396 914 CURVE SMOOTH",
"281 807 LINE",
"298 782 LINE"
);
}
);
};
components = (
{
name = O;
},
{
name = acute;
transform = "{1, 0, 0, 1, 120, 230}";
}
);
layerId = "0B1DFD06-3317-40CA-B510-4969A0718C16";
width = 755;
}
);
leftKerningGroup = O;
note = Oacute;
rightKerningGroup = O;
unicode = 00D3;
},
{
glyphname = Obreve;
lastChange = "2017-12-18 08:30:49 +0000";
layers = (
{
background = {
paths = (
{
closed = 1;
nodes = (
"601 -10 OFFCURVE",
"719 124 OFFCURVE",
"719 350 CURVE SMOOTH",
"719 574 OFFCURVE",
"601 710 OFFCURVE",
"378 710 CURVE SMOOTH",
"154 710 OFFCURVE",
"36 574 OFFCURVE",
"36 350 CURVE SMOOTH",
"36 124 OFFCURVE",
"154 -10 OFFCURVE",
"378 -10 CURVE SMOOTH"
);
},
{
closed = 1;
nodes = (
"215 32 OFFCURVE",
"135 158 OFFCURVE",
"135 350 CURVE SMOOTH",
"135 541 OFFCURVE",
"215 668 OFFCURVE",
"377 668 CURVE SMOOTH",
"541 668 OFFCURVE",
"620 541 OFFCURVE",
"620 350 CURVE SMOOTH",
"620 158 OFFCURVE",
"541 32 OFFCURVE",
"377 32 CURVE SMOOTH"
);
},
{
closed = 1;
nodes = (
"477 774 OFFCURVE",
"519 830 OFFCURVE",
"523 905 CURVE",
"490 905 LINE",
"484 846 OFFCURVE",
"442 820 OFFCURVE",
"378 820 CURVE SMOOTH",
"314 820 OFFCURVE",
"271 846 OFFCURVE",
"264 905 CURVE",
"231 905 LINE",
"235 827 OFFCURVE",
"277 774 OFFCURVE",
"378 774 CURVE SMOOTH"
);
}
);
};
components = (
{
name = O;
},
{
name = breve;
transform = "{1, 0, 0, 1, 132, 230}";
}
);
layerId = "0B1DFD06-3317-40CA-B510-4969A0718C16";
width = 755;
}
);
leftKerningGroup = O;
note = Obreve;
rightKerningGroup = O;
unicode = 014E;
},
{
glyphname = Ocaron;
lastChange = "2017-12-18 08:30:49 +0000";
layers = (
{
background = {
paths = (
{
closed = 1;
nodes = (
"601 -10 OFFCURVE",
"719 124 OFFCURVE",
"719 350 CURVE SMOOTH",
"719 574 OFFCURVE",
"601 710 OFFCURVE",
"378 710 CURVE SMOOTH",
"154 710 OFFCURVE",
"36 574 OFFCURVE",
"36 350 CURVE SMOOTH",
"36 124 OFFCURVE",
"154 -10 OFFCURVE",
"378 -10 CURVE SMOOTH"
);
},
{
closed = 1;
nodes = (
"215 32 OFFCURVE",
"135 158 OFFCURVE",
"135 350 CURVE SMOOTH",
"135 541 OFFCURVE",
"215 668 OFFCURVE",
"377 668 CURVE SMOOTH",
"541 668 OFFCURVE",
"620 541 OFFCURVE",
"620 350 CURVE SMOOTH",
"620 158 OFFCURVE",
"541 32 OFFCURVE",
"377 32 CURVE SMOOTH"
);
},
{
closed = 1;
nodes = (
"404 782 LINE",
"528 911 LINE",
"509 932 LINE",
"401 847 LINE",
"393 840 OFFCURVE",
"384 836 OFFCURVE",
"378 836 CURVE SMOOTH",
"372 836 OFFCURVE",
"364 840 OFFCURVE",
"354 847 CURVE",
"246 932 LINE",
"227 911 LINE",
"351 782 LINE"
);
}
);
};
components = (
{
name = O;
},
{
name = caron;
transform = "{1, 0, 0, 1, 132, 230}";
}
);
layerId = "0B1DFD06-3317-40CA-B510-4969A0718C16";
width = 755;
}
);
leftKerningGroup = O;
note = Ocaron;
rightKerningGroup = O;
unicode = 01D1;
},
{
glyphname = Ocircumflex;
lastChange = "2017-12-18 08:30:49 +0000";
layers = (
{
background = {
paths = (
{
closed = 1;
nodes = (
"601 -10 OFFCURVE",
"719 124 OFFCURVE",
"719 350 CURVE SMOOTH",
"719 574 OFFCURVE",
"601 710 OFFCURVE",
"378 710 CURVE SMOOTH",
"154 710 OFFCURVE",
"36 574 OFFCURVE",
"36 350 CURVE SMOOTH",
"36 124 OFFCURVE",
"154 -10 OFFCURVE",
"378 -10 CURVE SMOOTH"
);
},
{
closed = 1;
nodes = (
"215 32 OFFCURVE",
"135 158 OFFCURVE",
"135 350 CURVE SMOOTH",
"135 541 OFFCURVE",
"215 668 OFFCURVE",
"377 668 CURVE SMOOTH",
"541 668 OFFCURVE",
"620 541 OFFCURVE",
"620 350 CURVE SMOOTH",
"620 158 OFFCURVE",
"541 32 OFFCURVE",
"377 32 CURVE SMOOTH"
);
},
{
closed = 1;
nodes = (
"354 868 LINE SMOOTH",
"362 874 OFFCURVE",
"372 879 OFFCURVE",
"378 879 CURVE SMOOTH",
"384 879 OFFCURVE",
"392 874 OFFCURVE",
"401 868 CURVE",
"509 782 LINE",
"528 803 LINE",
"404 932 LINE",
"351 932 LINE",
"227 803 LINE",
"246 782 LINE"
);
}
);
};
components = (
{
name = O;
},
{
name = circumflex;
transform = "{1, 0, 0, 1, 132, 230}";
}
);
layerId = "0B1DFD06-3317-40CA-B510-4969A0718C16";
width = 755;
}
);
leftKerningGroup = O;
note = Ocircumflex;
rightKerningGroup = O;
unicode = 00D4;
},
{
glyphname = Ocircumflexacute;
lastChange = "2017-12-18 08:31:35 +0000";
layers = (
{
background = {
paths = (
{
closed = 1;
nodes = (
"601 -10 OFFCURVE",
"719 124 OFFCURVE",
"719 350 CURVE SMOOTH",
"719 574 OFFCURVE",
"601 710 OFFCURVE",
"378 710 CURVE SMOOTH",
"154 710 OFFCURVE",
"36 574 OFFCURVE",
"36 350 CURVE SMOOTH",
"36 124 OFFCURVE",
"154 -10 OFFCURVE",
"378 -10 CURVE SMOOTH"
);
},
{
closed = 1;
nodes = (
"215 32 OFFCURVE",
"135 158 OFFCURVE",
"135 350 CURVE SMOOTH",
"135 541 OFFCURVE",
"215 668 OFFCURVE",
"377 668 CURVE SMOOTH",
"541 668 OFFCURVE",
"620 541 OFFCURVE",
"620 350 CURVE SMOOTH",
"620 158 OFFCURVE",
"541 32 OFFCURVE",
"377 32 CURVE SMOOTH"
);
},
{
closed = 1;
nodes = (
"348 861 LINE SMOOTH",
"358 869 OFFCURVE",
"368 877 OFFCURVE",
"376 877 CURVE SMOOTH",
"382 877 OFFCURVE",
"390 872 OFFCURVE",
"399 866 CURVE",
"505 780 LINE",
"524 802 LINE",
"402 931 LINE",
"351 931 LINE",
"229 802 LINE",
"247 780 LINE"
);
},
{
closed = 1;
nodes = (
"613 959 LINE SMOOTH",
"636 971 OFFCURVE",
"649 987 OFFCURVE",
"649 1002 CURVE SMOOTH",
"649 1016 OFFCURVE",
"638 1033 OFFCURVE",
"615 1033 CURVE SMOOTH",
"596 1033 OFFCURVE",
"579 1017 OFFCURVE",
"569 1007 CURVE SMOOTH",
"473 914 LINE",
"491 892 LINE"
);
}
);
};
components = (
{
name = O;
},
{
name = circumflexacute;
transform = "{1, 0, 0, 1, 628, 230}";
}
);
layerId = "0B1DFD06-3317-40CA-B510-4969A0718C16";
width = 755;
}
);
leftKerningGroup = O;
note = Ocircumflexacute;
rightKerningGroup = O;
unicode = 1ED0;
},
{
glyphname = Ocircumflexdotbelow;
lastChange = "2017-12-18 08:30:49 +0000";
layers = (
{
background = {
paths = (
{
closed = 1;
nodes = (
"36 124 OFFCURVE",
"154 -10 OFFCURVE",
"378 -10 CURVE SMOOTH",
"601 -10 OFFCURVE",
"719 124 OFFCURVE",
"719 350 CURVE SMOOTH",
"719 574 OFFCURVE",
"601 710 OFFCURVE",
"378 710 CURVE SMOOTH",
"154 710 OFFCURVE",
"36 574 OFFCURVE",
"36 350 CURVE SMOOTH"
);
},
{
closed = 1;
nodes = (
"135 541 OFFCURVE",
"215 668 OFFCURVE",
"377 668 CURVE SMOOTH",
"541 668 OFFCURVE",
"620 541 OFFCURVE",
"620 350 CURVE SMOOTH",
"620 158 OFFCURVE",
"541 32 OFFCURVE",
"377 32 CURVE SMOOTH",
"215 32 OFFCURVE",
"135 158 OFFCURVE",
"135 350 CURVE SMOOTH"
);
},
{
closed = 1;
nodes = (
"245 782 LINE",
"353 868 LINE SMOOTH",
"361 874 OFFCURVE",
"371 879 OFFCURVE",
"377 879 CURVE SMOOTH",
"383 879 OFFCURVE",
"391 874 OFFCURVE",
"400 868 CURVE",
"508 782 LINE",
"527 803 LINE",
"403 932 LINE",
"350 932 LINE",
"226 803 LINE"
);
},
{
closed = 1;
nodes = (
"330 -140 OFFCURVE",
"349 -159 OFFCURVE",
"377 -159 CURVE SMOOTH",
"405 -159 OFFCURVE",
"423 -140 OFFCURVE",
"423 -112 CURVE SMOOTH",
"423 -84 OFFCURVE",
"405 -64 OFFCURVE",
"377 -64 CURVE SMOOTH",
"349 -64 OFFCURVE",
"330 -84 OFFCURVE",
"330 -112 CURVE SMOOTH"
);
}
);
};
components = (
{
name = O;
},
{
name = dotbelowcomb;
transform = "{1, 0, 0, 1, 629, 0}";
},
{
name = circumflex;
transform = "{1, 0, 0, 1, 132, 230}";
}
);
layerId = "0B1DFD06-3317-40CA-B510-4969A0718C16";
width = 755;
}
);
leftKerningGroup = O;
note = Ocircumflexdotbelow;
rightKerningGroup = O;
unicode = 1ED8;
},
{
glyphname = Ocircumflexgrave;
lastChange = "2017-12-18 08:32:22 +0000";
layers = (
{
background = {
paths = (
{
closed = 1;
nodes = (
"601 -10 OFFCURVE",
"719 124 OFFCURVE",
"719 350 CURVE SMOOTH",
"719 574 OFFCURVE",
"601 710 OFFCURVE",
"378 710 CURVE SMOOTH",
"154 710 OFFCURVE",
"36 574 OFFCURVE",
"36 350 CURVE SMOOTH",
"36 124 OFFCURVE",
"154 -10 OFFCURVE",
"378 -10 CURVE SMOOTH"
);
},
{
closed = 1;
nodes = (
"215 32 OFFCURVE",
"135 158 OFFCURVE",
"135 350 CURVE SMOOTH",
"135 541 OFFCURVE",
"215 668 OFFCURVE",
"377 668 CURVE SMOOTH",
"541 668 OFFCURVE",
"620 541 OFFCURVE",
"620 350 CURVE SMOOTH",
"620 158 OFFCURVE",
"541 32 OFFCURVE",
"377 32 CURVE SMOOTH"
);
},
{
closed = 1;
nodes = (
"285 914 LINE",
"190 1007 LINE SMOOTH",
"180 1017 OFFCURVE",
"163 1033 OFFCURVE",
"143 1033 CURVE SMOOTH",
"121 1033 OFFCURVE",
"110 1016 OFFCURVE",
"110 1002 CURVE SMOOTH",
"110 987 OFFCURVE",
"123 971 OFFCURVE",
"146 959 CURVE SMOOTH",
"268 892 LINE"
);
},
{
closed = 1;
nodes = (
"348 861 LINE SMOOTH",
"358 869 OFFCURVE",
"368 877 OFFCURVE",
"376 877 CURVE SMOOTH",
"382 877 OFFCURVE",
"390 872 OFFCURVE",
"399 866 CURVE",
"505 780 LINE",
"524 802 LINE",
"402 931 LINE",
"351 931 LINE",
"229 802 LINE",
"247 780 LINE"
);
}
);
};
components = (
{
name = O;
},
{
name = circumflexgrave;
transform = "{1, 0, 0, 1, 628, 230}";
}
);
layerId = "0B1DFD06-3317-40CA-B510-4969A0718C16";
width = 755;
}
);
leftKerningGroup = O;
note = Ocircumflexgrave;
rightKerningGroup = O;
unicode = 1ED2;
},
{
glyphname = Ocircumflexhookabove;
lastChange = "2017-12-18 09:45:48 +0000";
layers = (
{
background = {
paths = (
{
closed = 1;
nodes = (
"601 -10 OFFCURVE",
"719 124 OFFCURVE",
"719 350 CURVE SMOOTH",
"719 574 OFFCURVE",
"601 710 OFFCURVE",
"378 710 CURVE SMOOTH",
"154 710 OFFCURVE",
"36 574 OFFCURVE",
"36 350 CURVE SMOOTH",
"36 124 OFFCURVE",
"154 -10 OFFCURVE",
"378 -10 CURVE SMOOTH"
);
},
{
closed = 1;
nodes = (
"215 32 OFFCURVE",
"135 158 OFFCURVE",
"135 350 CURVE SMOOTH",
"135 541 OFFCURVE",
"215 668 OFFCURVE",
"377 668 CURVE SMOOTH",
"541 668 OFFCURVE",
"620 541 OFFCURVE",
"620 350 CURVE SMOOTH",
"620 158 OFFCURVE",
"541 32 OFFCURVE",
"377 32 CURVE SMOOTH"
);
},
{
closed = 1;
nodes = (
"344 858 LINE",
"355 868 OFFCURVE",
"367 878 OFFCURVE",
"376 878 CURVE SMOOTH",
"382 878 OFFCURVE",
"390 873 OFFCURVE",
"399 867 CURVE",
"505 781 LINE",
"524 803 LINE",
"402 932 LINE",
"351 932 LINE",
"229 803 LINE",
"247 781 LINE"
);
},
{
closed = 1;
nodes = (
"551 898 LINE",
"532 905 OFFCURVE",
"522 912 OFFCURVE",
"522 926 CURVE SMOOTH",
"522 954 OFFCURVE",
"602 965 OFFCURVE",
"602 1010 CURVE SMOOTH",
"602 1047 OFFCURVE",
"560 1063 OFFCURVE",
"518 1063 CURVE SMOOTH",
"487 1063 OFFCURVE",
"442 1053 OFFCURVE",
"442 1022 CURVE SMOOTH",
"442 1010 OFFCURVE",
"453 1001 OFFCURVE",
"463 1001 CURVE SMOOTH",
"492 1001 OFFCURVE",
"479 1040 OFFCURVE",
"522 1040 CURVE SMOOTH",
"541 1040 OFFCURVE",
"552 1028 OFFCURVE",
"552 1013 CURVE SMOOTH",
"552 973 OFFCURVE",
"479 965 OFFCURVE",
"479 925 CURVE SMOOTH",
"479 901 OFFCURVE",
"495 880 OFFCURVE",
"542 880 CURVE"
);
}
);
};
components = (
{
name = O;
},
{
name = circumflexhookabove;
transform = "{1, 0, 0, 1, 628, 230}";
}
);
layerId = "0B1DFD06-3317-40CA-B510-4969A0718C16";
width = 755;
}
);
leftKerningGroup = O;
note = Ocircumflexhookabove;
rightKerningGroup = O;
unicode = 1ED4;
},
{
glyphname = Ocircumflextilde;
lastChange = "2017-12-18 08:33:54 +0000";
layers = (
{
background = {
paths = (
{
closed = 1;
nodes = (
"601 -10 OFFCURVE",
"719 124 OFFCURVE",
"719 350 CURVE SMOOTH",
"719 574 OFFCURVE",
"601 710 OFFCURVE",
"378 710 CURVE SMOOTH",
"154 710 OFFCURVE",
"36 574 OFFCURVE",
"36 350 CURVE SMOOTH",
"36 124 OFFCURVE",
"154 -10 OFFCURVE",
"378 -10 CURVE SMOOTH"
);
},
{
closed = 1;
nodes = (
"215 32 OFFCURVE",
"135 158 OFFCURVE",
"135 350 CURVE SMOOTH",
"135 541 OFFCURVE",
"215 668 OFFCURVE",
"377 668 CURVE SMOOTH",
"541 668 OFFCURVE",
"620 541 OFFCURVE",
"620 350 CURVE SMOOTH",
"620 158 OFFCURVE",
"541 32 OFFCURVE",
"377 32 CURVE SMOOTH"
);
},
{
closed = 1;
nodes = (
"348 862 LINE SMOOTH",
"358 870 OFFCURVE",
"368 878 OFFCURVE",
"376 878 CURVE SMOOTH",
"382 878 OFFCURVE",
"390 873 OFFCURVE",
"399 867 CURVE",
"505 781 LINE",
"524 803 LINE",
"402 932 LINE",
"351 932 LINE",
"229 803 LINE",
"247 781 LINE"
);
},
{
closed = 1;
nodes = (
"251 997 OFFCURVE",
"269 1018 OFFCURVE",
"300 1018 CURVE SMOOTH",
"349 1018 OFFCURVE",
"396 964 OFFCURVE",
"445 964 CURVE SMOOTH",
"498 964 OFFCURVE",
"527 1012 OFFCURVE",
"539 1063 CURVE",
"518 1075 LINE",
"505 1035 OFFCURVE",
"489 1012 OFFCURVE",
"456 1012 CURVE SMOOTH",
"409 1012 OFFCURVE",
"360 1065 OFFCURVE",
"311 1065 CURVE SMOOTH",
"260 1065 OFFCURVE",
"228 1021 OFFCURVE",
"218 970 CURVE",
"238 958 LINE"
);
}
);
};
components = (
{
name = O;
},
{
name = circumflextilde;
transform = "{1, 0, 0, 1, 628, 230}";
}
);
layerId = "0B1DFD06-3317-40CA-B510-4969A0718C16";
width = 755;
}
);
leftKerningGroup = O;
note = Ocircumflextilde;
rightKerningGroup = O;
unicode = 1ED6;
},
{
glyphname = Odieresis;
lastChange = "2017-12-18 08:30:49 +0000";
layers = (
{
background = {
paths = (
{
closed = 1;
nodes = (
"601 -10 OFFCURVE",
"719 124 OFFCURVE",
"719 350 CURVE SMOOTH",
"719 574 OFFCURVE",
"601 710 OFFCURVE",
"378 710 CURVE SMOOTH",
"154 710 OFFCURVE",
"36 574 OFFCURVE",
"36 350 CURVE SMOOTH",
"36 124 OFFCURVE",
"154 -10 OFFCURVE",
"378 -10 CURVE SMOOTH"
);
},
{
closed = 1;
nodes = (
"215 32 OFFCURVE",
"135 158 OFFCURVE",
"135 350 CURVE SMOOTH",
"135 541 OFFCURVE",
"215 668 OFFCURVE",
"377 668 CURVE SMOOTH",
"541 668 OFFCURVE",
"620 541 OFFCURVE",
"620 350 CURVE SMOOTH",
"620 158 OFFCURVE",
"541 32 OFFCURVE",
"377 32 CURVE SMOOTH"
);
},
{
closed = 1;
nodes = (
"298 781 OFFCURVE",
"316 800 OFFCURVE",
"316 827 CURVE SMOOTH",
"316 855 OFFCURVE",
"298 875 OFFCURVE",
"269 875 CURVE SMOOTH",
"241 875 OFFCURVE",
"223 855 OFFCURVE",
"223 827 CURVE SMOOTH",
"223 800 OFFCURVE",
"241 781 OFFCURVE",
"269 781 CURVE SMOOTH"
);
},
{
closed = 1;
nodes = (
"514 781 OFFCURVE",
"532 800 OFFCURVE",
"532 827 CURVE SMOOTH",
"532 855 OFFCURVE",
"514 875 OFFCURVE",
"485 875 CURVE SMOOTH",
"456 875 OFFCURVE",
"438 855 OFFCURVE",
"438 827 CURVE SMOOTH",
"438 800 OFFCURVE",
"456 781 OFFCURVE",
"485 781 CURVE SMOOTH"
);
}
);
};
components = (
{
name = O;
},
{
name = dieresis;
transform = "{1, 0, 0, 1, 132, 230}";
}
);
layerId = "0B1DFD06-3317-40CA-B510-4969A0718C16";
width = 755;
}
);
leftKerningGroup = O;
note = Odieresis;
rightKerningGroup = O;
unicode = 00D6;
},
{
glyphname = Odotbelow;
lastChange = "2017-12-18 08:30:49 +0000";
layers = (
{
background = {
paths = (
{
closed = 1;
nodes = (
"36 124 OFFCURVE",
"154 -10 OFFCURVE",
"378 -10 CURVE SMOOTH",
"601 -10 OFFCURVE",
"719 124 OFFCURVE",
"719 350 CURVE SMOOTH",
"719 574 OFFCURVE",
"601 710 OFFCURVE",
"378 710 CURVE SMOOTH",
"154 710 OFFCURVE",
"36 574 OFFCURVE",
"36 350 CURVE SMOOTH"
);
},
{
closed = 1;
nodes = (
"135 541 OFFCURVE",
"215 668 OFFCURVE",
"377 668 CURVE SMOOTH",
"541 668 OFFCURVE",
"620 541 OFFCURVE",
"620 350 CURVE SMOOTH",
"620 158 OFFCURVE",
"541 32 OFFCURVE",
"377 32 CURVE SMOOTH",
"215 32 OFFCURVE",
"135 158 OFFCURVE",
"135 350 CURVE SMOOTH"
);
},
{
closed = 1;
nodes = (
"330 -140 OFFCURVE",
"349 -159 OFFCURVE",
"377 -159 CURVE SMOOTH",
"405 -159 OFFCURVE",
"423 -140 OFFCURVE",
"423 -112 CURVE SMOOTH",
"423 -84 OFFCURVE",
"405 -64 OFFCURVE",
"377 -64 CURVE SMOOTH",
"349 -64 OFFCURVE",
"330 -84 OFFCURVE",
"330 -112 CURVE SMOOTH"
);
}
);
};
components = (
{
name = O;
},
{
name = dotbelowcomb;
transform = "{1, 0, 0, 1, 629, 0}";
}
);
layerId = "0B1DFD06-3317-40CA-B510-4969A0718C16";
width = 755;
}
);
leftKerningGroup = O;
note = Odotbelow;
rightKerningGroup = O;
unicode = 1ECC;
},
{
glyphname = Ograve;
lastChange = "2017-12-18 08:30:49 +0000";
layers = (
{
background = {
paths = (
{
closed = 1;
nodes = (
"601 -10 OFFCURVE",
"719 124 OFFCURVE",
"719 350 CURVE SMOOTH",
"719 574 OFFCURVE",
"601 710 OFFCURVE",
"378 710 CURVE SMOOTH",
"154 710 OFFCURVE",
"36 574 OFFCURVE",
"36 350 CURVE SMOOTH",
"36 124 OFFCURVE",
"154 -10 OFFCURVE",
"378 -10 CURVE SMOOTH"
);
},
{
closed = 1;
nodes = (
"215 32 OFFCURVE",
"135 158 OFFCURVE",
"135 350 CURVE SMOOTH",
"135 541 OFFCURVE",
"215 668 OFFCURVE",
"377 668 CURVE SMOOTH",
"541 668 OFFCURVE",
"620 541 OFFCURVE",
"620 350 CURVE SMOOTH",
"620 158 OFFCURVE",
"541 32 OFFCURVE",
"377 32 CURVE SMOOTH"
);
},
{
closed = 1;
nodes = (
"459 807 LINE",
"344 913 LINE",
"335 922 OFFCURVE",
"319 937 OFFCURVE",
"299 937 CURVE SMOOTH",
"279 937 OFFCURVE",
"267 924 OFFCURVE",
"267 908 CURVE SMOOTH",
"267 890 OFFCURVE",
"279 876 OFFCURVE",
"298 865 CURVE SMOOTH",
"441 782 LINE"
);
}
);
};
components = (
{
name = O;
},
{
name = grave;
transform = "{1, 0, 0, 1, 132, 230}";
}
);
layerId = "0B1DFD06-3317-40CA-B510-4969A0718C16";
width = 755;
}
);
leftKerningGroup = O;
note = Ograve;
rightKerningGroup = O;
unicode = 00D2;
},
{
glyphname = Ohookabove;
lastChange = "2017-12-18 08:30:49 +0000";
layers = (
{
background = {
paths = (
{
closed = 1;
nodes = (
"601 -10 OFFCURVE",
"719 124 OFFCURVE",
"719 350 CURVE SMOOTH",
"719 574 OFFCURVE",
"601 710 OFFCURVE",
"378 710 CURVE SMOOTH",
"154 710 OFFCURVE",
"36 574 OFFCURVE",
"36 350 CURVE SMOOTH",
"36 124 OFFCURVE",
"154 -10 OFFCURVE",
"378 -10 CURVE SMOOTH"
);
},
{
closed = 1;
nodes = (
"215 32 OFFCURVE",
"135 158 OFFCURVE",
"135 350 CURVE SMOOTH",
"135 541 OFFCURVE",
"215 668 OFFCURVE",
"377 668 CURVE SMOOTH",
"541 668 OFFCURVE",
"620 541 OFFCURVE",
"620 350 CURVE SMOOTH",
"620 158 OFFCURVE",
"541 32 OFFCURVE",
"377 32 CURVE SMOOTH"
);
},
{
closed = 1;
nodes = (
"407 798 LINE",
"388 805 OFFCURVE",
"376 811 OFFCURVE",
"376 828 CURVE SMOOTH",
"376 861 OFFCURVE",
"465 876 OFFCURVE",
"465 927 CURVE SMOOTH",
"465 969 OFFCURVE",
"429 991 OFFCURVE",
"376 991 CURVE SMOOTH",
"329 991 OFFCURVE",
"288 974 OFFCURVE",
"288 940 CURVE SMOOTH",
"288 923 OFFCURVE",
"296 915 OFFCURVE",
"311 915 CURVE SMOOTH",
"334 915 OFFCURVE",
"336 934 OFFCURVE",
"339 942 CURVE SMOOTH",
"344 956 OFFCURVE",
"361 962 OFFCURVE",
"377 962 CURVE SMOOTH",
"398 962 OFFCURVE",
"411 947 OFFCURVE",
"411 930 CURVE SMOOTH",
"411 885 OFFCURVE",
"329 874 OFFCURVE",
"329 828 CURVE SMOOTH",
"329 801 OFFCURVE",
"347 778 OFFCURVE",
"398 778 CURVE"
);
}
);
};
components = (
{
name = O;
},
{
name = hookabovecomb;
transform = "{1, 0, 0, 1, 629, 230}";
}
);
layerId = "0B1DFD06-3317-40CA-B510-4969A0718C16";
width = 755;
}
);
leftKerningGroup = O;
note = Ohookabove;
rightKerningGroup = O;
unicode = 1ECE;
},
{
glyphname = Ohorn;
lastChange = "2017-12-19 04:57:04 +0000";
layers = (
{
layerId = "0B1DFD06-3317-40CA-B510-4969A0718C16";
paths = (
{
closed = 1;
nodes = (
"700 765 OFFCURVE",
"696 765 OFFCURVE",
"653 765 CURVE",
"653 679 OFFCURVE",
"605 631 OFFCURVE",
"564 604 CURVE",
"585 580 LINE",
"683 636 OFFCURVE",
"700 719 OFFCURVE",
"700 765 CURVE"
);
},
{
closed = 1;
nodes = (
"101 393 OFFCURVE",
"101 306 OFFCURVE",
"101 168 CURVE SMOOTH",
"101 -76 OFFCURVE",
"598 -76 OFFCURVE",
"598 168 CURVE SMOOTH",
"598 306 OFFCURVE",
"598 393 OFFCURVE",
"598 531 CURVE SMOOTH",
"598 775 OFFCURVE",
"101 775 OFFCURVE",
"101 531 CURVE SMOOTH"
);
},
{
closed = 1;
nodes = (
"145 732 OFFCURVE",
"552 733 OFFCURVE",
"552 510 CURVE SMOOTH",
"552 385 OFFCURVE",
"552 313 OFFCURVE",
"552 187 CURVE SMOOTH",
"552 -33 OFFCURVE",
"145 -36 OFFCURVE",
"145 187 CURVE SMOOTH",
"145 313 OFFCURVE",
"145 385 OFFCURVE",
"145 510 CURVE SMOOTH"
);
}
);
width = 754;
}
);
note = Ohorn;
unicode = 01A0;
},
{
glyphname = Ohornacute;
lastChange = "2017-12-19 04:57:16 +0000";
layers = (
{
background = {
paths = (
{
closed = 1;
nodes = (
"602 -10 OFFCURVE",
"720 124 OFFCURVE",
"720 350 CURVE SMOOTH",
"720 574 OFFCURVE",
"602 710 OFFCURVE",
"379 710 CURVE SMOOTH",
"155 710 OFFCURVE",
"37 574 OFFCURVE",
"37 350 CURVE SMOOTH",
"37 124 OFFCURVE",
"155 -10 OFFCURVE",
"379 -10 CURVE SMOOTH"
);
},
{
closed = 1;
nodes = (
"216 32 OFFCURVE",
"136 158 OFFCURVE",
"136 350 CURVE SMOOTH",
"136 541 OFFCURVE",
"216 668 OFFCURVE",
"378 668 CURVE SMOOTH",
"542 668 OFFCURVE",
"621 541 OFFCURVE",
"621 350 CURVE SMOOTH",
"621 158 OFFCURVE",
"542 32 OFFCURVE",
"378 32 CURVE SMOOTH"
);
},
{
closed = 1;
nodes = (
"424 864 LINE SMOOTH",
"446 876 OFFCURVE",
"458 889 OFFCURVE",
"458 906 CURVE SMOOTH",
"458 921 OFFCURVE",
"446 936 OFFCURVE",
"424 936 CURVE SMOOTH",
"403 936 OFFCURVE",
"388 920 OFFCURVE",
"380 913 CURVE SMOOTH",
"265 806 LINE",
"282 781 LINE"
);
},
{
closed = 1;
nodes = (
"691 567 OFFCURVE",
"756 632 OFFCURVE",
"756 705 CURVE SMOOTH",
"756 752 OFFCURVE",
"729 772 OFFCURVE",
"701 772 CURVE SMOOTH",
"672 772 OFFCURVE",
"656 752 OFFCURVE",
"656 729 CURVE SMOOTH",
"656 695 OFFCURVE",
"689 688 OFFCURVE",
"689 653 CURVE SMOOTH",
"689 617 OFFCURVE",
"658 588 OFFCURVE",
"623 568 CURVE",
"623 543 LINE"
);
}
);
};
components = (
{
name = acute;
transform = "{1, 0, 0, 1, 120, 230}";
},
{
name = Ohorn;
}
);
layerId = "0B1DFD06-3317-40CA-B510-4969A0718C16";
width = 755;
}
);
leftKerningGroup = O;
note = Ohornacute;
rightKerningGroup = O;
unicode = 1EDA;
},
{
glyphname = Ohorndotbelow;
lastChange = "2017-12-19 04:57:19 +0000";
layers = (
{
background = {
paths = (
{
closed = 1;
nodes = (
"602 -10 OFFCURVE",
"720 124 OFFCURVE",
"720 350 CURVE SMOOTH",
"720 574 OFFCURVE",
"602 710 OFFCURVE",
"379 710 CURVE SMOOTH",
"155 710 OFFCURVE",
"37 574 OFFCURVE",
"37 350 CURVE SMOOTH",
"37 124 OFFCURVE",
"155 -10 OFFCURVE",
"379 -10 CURVE SMOOTH"
);
},
{
closed = 1;
nodes = (
"216 32 OFFCURVE",
"136 158 OFFCURVE",
"136 350 CURVE SMOOTH",
"136 541 OFFCURVE",
"216 668 OFFCURVE",
"378 668 CURVE SMOOTH",
"542 668 OFFCURVE",
"621 541 OFFCURVE",
"621 350 CURVE SMOOTH",
"621 158 OFFCURVE",
"542 32 OFFCURVE",
"378 32 CURVE SMOOTH"
);
},
{
closed = 1;
nodes = (
"691 567 OFFCURVE",
"756 632 OFFCURVE",
"756 705 CURVE SMOOTH",
"756 752 OFFCURVE",
"729 772 OFFCURVE",
"701 772 CURVE SMOOTH",
"672 772 OFFCURVE",
"656 752 OFFCURVE",
"656 729 CURVE SMOOTH",
"656 695 OFFCURVE",
"689 688 OFFCURVE",
"689 653 CURVE SMOOTH",
"689 617 OFFCURVE",
"658 588 OFFCURVE",
"623 568 CURVE",
"623 543 LINE"
);
},
{
closed = 1;
nodes = (
"395 -159 OFFCURVE",
"413 -140 OFFCURVE",
"413 -112 CURVE SMOOTH",
"413 -84 OFFCURVE",
"395 -64 OFFCURVE",
"367 -64 CURVE SMOOTH",
"339 -64 OFFCURVE",
"320 -84 OFFCURVE",
"320 -112 CURVE SMOOTH",
"320 -140 OFFCURVE",
"339 -159 OFFCURVE",
"367 -159 CURVE SMOOTH"
);
}
);
};
components = (
{
name = dotbelowcomb;
transform = "{1, 0, 0, 1, 629, 0}";
},
{
name = Ohorn;
}
);
layerId = "0B1DFD06-3317-40CA-B510-4969A0718C16";
width = 755;
}
);
leftKerningGroup = O;
note = Ohorndotbelow;
rightKerningGroup = O;
unicode = 1EE2;
},
{
glyphname = Ohorngrave;
lastChange = "2017-12-19 04:57:22 +0000";
layers = (
{
background = {
paths = (
{
closed = 1;
nodes = (
"602 -10 OFFCURVE",
"720 124 OFFCURVE",
"720 350 CURVE SMOOTH",
"720 574 OFFCURVE",
"602 710 OFFCURVE",
"379 710 CURVE SMOOTH",
"155 710 OFFCURVE",
"37 574 OFFCURVE",
"37 350 CURVE SMOOTH",
"37 124 OFFCURVE",
"155 -10 OFFCURVE",
"379 -10 CURVE SMOOTH"
);
},
{
closed = 1;
nodes = (
"216 32 OFFCURVE",
"136 158 OFFCURVE",
"136 350 CURVE SMOOTH",
"136 541 OFFCURVE",
"216 668 OFFCURVE",
"378 668 CURVE SMOOTH",
"542 668 OFFCURVE",
"621 541 OFFCURVE",
"621 350 CURVE SMOOTH",
"621 158 OFFCURVE",
"542 32 OFFCURVE",
"378 32 CURVE SMOOTH"
);
},
{
closed = 1;
nodes = (
"464 816 LINE",
"349 922 LINE",
"340 931 OFFCURVE",
"324 946 OFFCURVE",
"304 946 CURVE SMOOTH",
"284 946 OFFCURVE",
"272 933 OFFCURVE",
"272 917 CURVE SMOOTH",
"272 899 OFFCURVE",
"284 885 OFFCURVE",
"303 874 CURVE SMOOTH",
"446 791 LINE"
);
},
{
closed = 1;
nodes = (
"691 567 OFFCURVE",
"756 632 OFFCURVE",
"756 705 CURVE SMOOTH",
"756 752 OFFCURVE",
"729 772 OFFCURVE",
"701 772 CURVE SMOOTH",
"672 772 OFFCURVE",
"656 752 OFFCURVE",
"656 729 CURVE SMOOTH",
"656 695 OFFCURVE",
"689 688 OFFCURVE",
"689 653 CURVE SMOOTH",
"689 617 OFFCURVE",
"658 588 OFFCURVE",
"623 568 CURVE",
"623 543 LINE"
);
}
);
};
components = (
{
name = grave;
transform = "{1, 0, 0, 1, 132, 230}";
},
{
name = Ohorn;
}
);
layerId = "0B1DFD06-3317-40CA-B510-4969A0718C16";
width = 755;
}
);
leftKerningGroup = O;
note = Ohorngrave;
rightKerningGroup = O;
unicode = 1EDC;
},
{
glyphname = Ohornhookabove;
lastChange = "2017-12-19 04:57:25 +0000";
layers = (
{
background = {
paths = (
{
closed = 1;
nodes = (
"602 -10 OFFCURVE",
"720 124 OFFCURVE",
"720 350 CURVE SMOOTH",
"720 574 OFFCURVE",
"602 710 OFFCURVE",
"379 710 CURVE SMOOTH",
"155 710 OFFCURVE",
"37 574 OFFCURVE",
"37 350 CURVE SMOOTH",
"37 124 OFFCURVE",
"155 -10 OFFCURVE",
"379 -10 CURVE SMOOTH"
);
},
{
closed = 1;
nodes = (
"216 32 OFFCURVE",
"136 158 OFFCURVE",
"136 350 CURVE SMOOTH",
"136 541 OFFCURVE",
"216 668 OFFCURVE",
"378 668 CURVE SMOOTH",
"542 668 OFFCURVE",
"621 541 OFFCURVE",
"621 350 CURVE SMOOTH",
"621 158 OFFCURVE",
"542 32 OFFCURVE",
"378 32 CURVE SMOOTH"
);
},
{
closed = 1;
nodes = (
"412 809 LINE",
"393 816 OFFCURVE",
"381 822 OFFCURVE",
"381 839 CURVE SMOOTH",
"381 872 OFFCURVE",
"470 887 OFFCURVE",
"470 938 CURVE SMOOTH",
"470 980 OFFCURVE",
"434 1002 OFFCURVE",
"381 1002 CURVE SMOOTH",
"334 1002 OFFCURVE",
"293 985 OFFCURVE",
"293 951 CURVE SMOOTH",
"293 934 OFFCURVE",
"301 926 OFFCURVE",
"316 926 CURVE SMOOTH",
"339 926 OFFCURVE",
"341 945 OFFCURVE",
"344 953 CURVE SMOOTH",
"349 967 OFFCURVE",
"366 973 OFFCURVE",
"382 973 CURVE SMOOTH",
"403 973 OFFCURVE",
"416 958 OFFCURVE",
"416 941 CURVE SMOOTH",
"416 896 OFFCURVE",
"334 885 OFFCURVE",
"334 839 CURVE SMOOTH",
"334 812 OFFCURVE",
"352 789 OFFCURVE",
"403 789 CURVE"
);
},
{
closed = 1;
nodes = (
"691 567 OFFCURVE",
"756 632 OFFCURVE",
"756 705 CURVE SMOOTH",
"756 752 OFFCURVE",
"729 772 OFFCURVE",
"701 772 CURVE SMOOTH",
"672 772 OFFCURVE",
"656 752 OFFCURVE",
"656 729 CURVE SMOOTH",
"656 695 OFFCURVE",
"689 688 OFFCURVE",
"689 653 CURVE SMOOTH",
"689 617 OFFCURVE",
"658 588 OFFCURVE",
"623 568 CURVE",
"623 543 LINE"
);
}
);
};
components = (
{
name = hookabovecomb;
transform = "{1, 0, 0, 1, 629, 230}";
},
{
name = Ohorn;
}
);
layerId = "0B1DFD06-3317-40CA-B510-4969A0718C16";
width = 755;
}
);
leftKerningGroup = O;
note = Ohornhookabove;
rightKerningGroup = O;
unicode = 1EDE;
},
{
glyphname = Ohorntilde;
lastChange = "2017-12-19 04:57:29 +0000";
layers = (
{
background = {
paths = (
{
closed = 1;
nodes = (
"602 -10 OFFCURVE",
"720 124 OFFCURVE",
"720 350 CURVE SMOOTH",
"720 574 OFFCURVE",
"602 710 OFFCURVE",
"379 710 CURVE SMOOTH",
"155 710 OFFCURVE",
"37 574 OFFCURVE",
"37 350 CURVE SMOOTH",
"37 124 OFFCURVE",
"155 -10 OFFCURVE",
"379 -10 CURVE SMOOTH"
);
},
{
closed = 1;
nodes = (
"216 32 OFFCURVE",
"136 158 OFFCURVE",
"136 350 CURVE SMOOTH",
"136 541 OFFCURVE",
"216 668 OFFCURVE",
"378 668 CURVE SMOOTH",
"542 668 OFFCURVE",
"621 541 OFFCURVE",
"621 350 CURVE SMOOTH",
"621 158 OFFCURVE",
"542 32 OFFCURVE",
"378 32 CURVE SMOOTH"
);
},
{
closed = 1;
nodes = (
"234 828 OFFCURVE",
"252 849 OFFCURVE",
"285 849 CURVE SMOOTH",
"336 849 OFFCURVE",
"385 795 OFFCURVE",
"436 795 CURVE SMOOTH",
"494 795 OFFCURVE",
"524 843 OFFCURVE",
"536 895 CURVE",
"515 906 LINE",
"499 866 OFFCURVE",
"483 844 OFFCURVE",
"449 844 CURVE SMOOTH",
"400 844 OFFCURVE",
"348 897 OFFCURVE",
"297 897 CURVE SMOOTH",
"243 897 OFFCURVE",
"210 853 OFFCURVE",
"198 801 CURVE",
"220 790 LINE"
);
},
{
closed = 1;
nodes = (
"691 567 OFFCURVE",
"756 632 OFFCURVE",
"756 705 CURVE SMOOTH",
"756 752 OFFCURVE",
"729 772 OFFCURVE",
"701 772 CURVE SMOOTH",
"672 772 OFFCURVE",
"656 752 OFFCURVE",
"656 729 CURVE SMOOTH",
"656 695 OFFCURVE",
"689 688 OFFCURVE",
"689 653 CURVE SMOOTH",
"689 617 OFFCURVE",
"658 588 OFFCURVE",
"623 568 CURVE",
"623 543 LINE"
);
}
);
};
components = (
{
name = tilde;
transform = "{1, 0, 0, 1, 132, 230}";
},
{
name = Ohorn;
}
);
layerId = "0B1DFD06-3317-40CA-B510-4969A0718C16";
width = 755;
}
);
leftKerningGroup = O;
note = Ohorntilde;
rightKerningGroup = O;
unicode = 1EE0;
},
{
glyphname = Ohungarumlaut;
lastChange = "2017-12-18 08:30:49 +0000";
layers = (
{
background = {
paths = (
{
closed = 1;
nodes = (
"601 -10 OFFCURVE",
"719 124 OFFCURVE",
"719 350 CURVE SMOOTH",
"719 574 OFFCURVE",
"601 710 OFFCURVE",
"378 710 CURVE SMOOTH",
"154 710 OFFCURVE",
"36 574 OFFCURVE",
"36 350 CURVE SMOOTH",
"36 124 OFFCURVE",
"154 -10 OFFCURVE",
"378 -10 CURVE SMOOTH"
);
},
{
closed = 1;
nodes = (
"215 32 OFFCURVE",
"135 158 OFFCURVE",
"135 350 CURVE SMOOTH",
"135 541 OFFCURVE",
"215 668 OFFCURVE",
"377 668 CURVE SMOOTH",
"541 668 OFFCURVE",
"620 541 OFFCURVE",
"620 350 CURVE SMOOTH",
"620 158 OFFCURVE",
"541 32 OFFCURVE",
"377 32 CURVE SMOOTH"
);
},
{
closed = 1;
nodes = (
"395 864 LINE SMOOTH",
"417 877 OFFCURVE",
"429 891 OFFCURVE",
"429 908 CURVE SMOOTH",
"429 922 OFFCURVE",
"421 937 OFFCURVE",
"399 937 CURVE SMOOTH",
"378 937 OFFCURVE",
"357 919 OFFCURVE",
"350 913 CURVE",
"236 807 LINE",
"253 782 LINE"
);
},
{
closed = 1;
nodes = (
"556 864 LINE SMOOTH",
"577 877 OFFCURVE",
"589 891 OFFCURVE",
"589 908 CURVE SMOOTH",
"589 922 OFFCURVE",
"578 937 OFFCURVE",
"556 937 CURVE SMOOTH",
"534 937 OFFCURVE",
"517 919 OFFCURVE",
"510 913 CURVE",
"396 807 LINE",
"414 782 LINE"
);
}
);
};
components = (
{
name = O;
},
{
name = hungarumlaut;
transform = "{1, 0, 0, 1, 131, 230}";
}
);
layerId = "0B1DFD06-3317-40CA-B510-4969A0718C16";
width = 755;
}
);
leftKerningGroup = O;
note = Ohungarumlaut;
rightKerningGroup = O;
unicode = 0150;
},
{
glyphname = Omacron;
lastChange = "2017-12-18 08:30:49 +0000";
layers = (
{
background = {
paths = (
{
closed = 1;
nodes = (
"601 -10 OFFCURVE",
"719 124 OFFCURVE",
"719 350 CURVE SMOOTH",
"719 574 OFFCURVE",
"601 710 OFFCURVE",
"378 710 CURVE SMOOTH",
"154 710 OFFCURVE",
"36 574 OFFCURVE",
"36 350 CURVE SMOOTH",
"36 124 OFFCURVE",
"154 -10 OFFCURVE",
"378 -10 CURVE SMOOTH"
);
},
{
closed = 1;
nodes = (
"215 32 OFFCURVE",
"135 158 OFFCURVE",
"135 350 CURVE SMOOTH",
"135 541 OFFCURVE",
"215 668 OFFCURVE",
"377 668 CURVE SMOOTH",
"541 668 OFFCURVE",
"620 541 OFFCURVE",
"620 350 CURVE SMOOTH",
"620 158 OFFCURVE",
"541 32 OFFCURVE",
"377 32 CURVE SMOOTH"
);
},
{
closed = 1;
nodes = (
"543 793 LINE",
"543 835 LINE",
"210 835 LINE",
"210 793 LINE"
);
}
);
};
components = (
{
name = O;
},
{
name = macron;
transform = "{1, 0, 0, 1, 132, 230}";
}
);
layerId = "0B1DFD06-3317-40CA-B510-4969A0718C16";
width = 755;
}
);
leftKerningGroup = O;
note = Omacron;
rightKerningGroup = O;
unicode = 014C;
},
{
glyphname = Oslash;
lastChange = "2017-12-19 04:57:43 +0000";
layers = (
{
layerId = "0B1DFD06-3317-40CA-B510-4969A0718C16";
paths = (
{
closed = 1;
nodes = (
"582 492 OFFCURVE",
"564 557 OFFCURVE",
"525 611 CURVE",
"521 618 OFFCURVE",
"515 626 OFFCURVE",
"509 633 CURVE",
"552 720 LINE",
"508 720 LINE",
"480 663 LINE",
"447 689 OFFCURVE",
"406 699 OFFCURVE",
"342 700 CURVE",
"279 699 OFFCURVE",
"237 676 OFFCURVE",
"204 647 CURVE SMOOTH",
"167 615 OFFCURVE",
"139 567 OFFCURVE",
"122 505 CURVE SMOOTH",
"105 444 OFFCURVE",
"102 368 OFFCURVE",
"105 279 CURVE SMOOTH",
"109 186 OFFCURVE",
"141 114 OFFCURVE",
"188 66 CURVE",
"141 -30 LINE",
"187 -30 LINE",
"220 39 LINE",
"260 10 OFFCURVE",
"308 -6 OFFCURVE",
"357 -7 CURVE SMOOTH",
"431 -10 OFFCURVE",
"544 49 OFFCURVE",
"577 196 CURVE SMOOTH",
"591 257 OFFCURVE",
"592 319 OFFCURVE",
"588 395 CURVE SMOOTH"
);
},
{
closed = 1;
nodes = (
"139 344 OFFCURVE",
"144 398 OFFCURVE",
"151 450 CURVE SMOOTH",
"168 559 OFFCURVE",
"224 670 OFFCURVE",
"344 672 CURVE",
"400 674 OFFCURVE",
"437 660 OFFCURVE",
"464 633 CURVE",
"203 95 LINE",
"165 142 OFFCURVE",
"148 209 OFFCURVE",
"144 282 CURVE SMOOTH"
);
},
{
closed = 1;
nodes = (
"535 141 OFFCURVE",
"469 19 OFFCURVE",
"358 22 CURVE SMOOTH",
"306 23 OFFCURVE",
"265 39 OFFCURVE",
"233 65 CURVE",
"492 597 LINE",
"502 581 OFFCURVE",
"512 562 OFFCURVE",
"521 541 CURVE",
"535 499 OFFCURVE",
"544 454 OFFCURVE",
"546 401 CURVE SMOOTH",
"549 339 OFFCURVE",
"551 290 OFFCURVE",
"545 236 CURVE SMOOTH"
);
}
);
width = 683;
}
);
note = Oslash;
unicode = 00D8;
},
{
glyphname = OE;
lastChange = "2017-12-19 04:58:09 +0000";
layers = (
{
layerId = "0B1DFD06-3317-40CA-B510-4969A0718C16";
paths = (
{
closed = 1;
nodes = (
"925 656 LINE",
"925 693 LINE",
"729 693 LINE SMOOTH",
"644 692 OFFCURVE",
"569 680 OFFCURVE",
"523 626 CURVE",
"444 715 OFFCURVE",
"252 716 OFFCURVE",
"164 664 CURVE SMOOTH",
"119 640 OFFCURVE",
"82 600 OFFCURVE",
"82 549 CURVE SMOOTH",
"82 135 LINE SMOOTH",
"82 85 OFFCURVE",
"119 45 OFFCURVE",
"164 19 CURVE SMOOTH",
"252 -33 OFFCURVE",
"443 -32 OFFCURVE",
"523 58 CURVE",
"569 1 OFFCURVE",
"643 -10 OFFCURVE",
"729 -12 CURVE SMOOTH",
"925 -12 LINE",
"925 24 LINE",
"726 24 LINE SMOOTH",
"618 26 OFFCURVE",
"516 62 OFFCURVE",
"519 244 CURVE SMOOTH",
"519 309 LINE",
"815 309 LINE",
"815 348 LINE",
"519 348 LINE",
"519 437 LINE",
"516 620 OFFCURVE",
"618 654 OFFCURVE",
"726 656 CURVE SMOOTH"
);
},
{
closed = 1;
nodes = (
"160 70 OFFCURVE",
"128 111 OFFCURVE",
"128 154 CURVE SMOOTH",
"128 531 LINE SMOOTH",
"128 572 OFFCURVE",
"160 613 OFFCURVE",
"198 637 CURVE SMOOTH",
"273 682 OFFCURVE",
"450 679 OFFCURVE",
"500 590 CURVE",
"483 554 OFFCURVE",
"473 503 OFFCURVE",
"473 436 CURVE SMOOTH",
"473 246 LINE SMOOTH",
"473 180 OFFCURVE",
"483 129 OFFCURVE",
"500 93 CURVE",
"449 4 OFFCURVE",
"273 3 OFFCURVE",
"198 47 CURVE SMOOTH"
);
}
);
width = 997;
}
);
note = OE;
unicode = 0152;
},
{
glyphname = Thorn;
lastChange = "2017-12-19 04:58:09 +0000";
layers = (
{
layerId = "0B1DFD06-3317-40CA-B510-4969A0718C16";
paths = (
{
closed = 1;
nodes = (
"286 600 OFFCURVE",
"181 581 OFFCURVE",
"148 531 CURVE",
"148 683 LINE",
"101 683 LINE",
"101 1 LINE",
"148 1 LINE",
"148 150 LINE",
"193 118 OFFCURVE",
"224 89 OFFCURVE",
"336 88 CURVE SMOOTH",
"457 88 OFFCURVE",
"528 196 OFFCURVE",
"538 312 CURVE SMOOTH",
"548 443 OFFCURVE",
"479 587 OFFCURVE",
"315 597 CURVE"
);
},
{
closed = 1;
nodes = (
"483 219 OFFCURVE",
"424 128 OFFCURVE",
"326 125 CURVE SMOOTH",
"244 122 OFFCURVE",
"191 157 OFFCURVE",
"148 198 CURVE",
"148 472 LINE",
"187 533 OFFCURVE",
"272 568 OFFCURVE",
"316 564 CURVE SMOOTH",
"449 548 OFFCURVE",
"503 427 OFFCURVE",
"492 316 CURVE SMOOTH"
);
}
);
width = 610;
}
);
note = Thorn;
unicode = 00DE;
},
{
color = 0;
glyphname = Germandbls;
lastChange = "2017-12-19 04:58:14 +0000";
layers = (
{
layerId = "0B1DFD06-3317-40CA-B510-4969A0718C16";
paths = (
{
closed = 1;
nodes = (
"606 -10 OFFCURVE",
"674 88 OFFCURVE",
"674 203 CURVE SMOOTH",
"674 313 OFFCURVE",
"592 385 OFFCURVE",
"445 398 CURVE",
"591 553 LINE",
"569 627 OFFCURVE",
"489 710 OFFCURVE",
"354 710 CURVE SMOOTH",
"177 710 OFFCURVE",
"92 616 OFFCURVE",
"92 470 CURVE SMOOTH",
"92 62 LINE SMOOTH",
"92 37 OFFCURVE",
"72 26 OFFCURVE",
"33 26 CURVE SMOOTH",
"5 26 LINE",
"5 0 LINE",
"255 0 LINE",
"255 26 LINE",
"227 26 LINE SMOOTH",
"202 26 OFFCURVE",
"188 44 OFFCURVE",
"188 63 CURVE SMOOTH",
"188 495 LINE SMOOTH",
"188 602 OFFCURVE",
"246 668 OFFCURVE",
"347 668 CURVE SMOOTH",
"431 668 OFFCURVE",
"479 617 OFFCURVE",
"499 555 CURVE",
"344 387 LINE",
"344 361 LINE",
"406 361 LINE SMOOTH",
"520 361 OFFCURVE",
"578 296 OFFCURVE",
"578 203 CURVE SMOOTH",
"578 100 OFFCURVE",
"521 29 OFFCURVE",
"419 29 CURVE SMOOTH",
"374 29 OFFCURVE",
"324 37 OFFCURVE",
"277 56 CURVE",
"277 14 LINE",
"318 -2 OFFCURVE",
"367 -10 OFFCURVE",
"423 -10 CURVE SMOOTH"
);
}
);
width = 703;
}
);
note = uni1E9E;
unicode = 1E9E;
},
{
color = 0;
glyphname = Schwa;
lastChange = "2017-12-19 04:58:14 +0000";
layers = (
{
layerId = "0B1DFD06-3317-40CA-B510-4969A0718C16";
paths = (
{
closed = 1;
nodes = (
"543 -10 OFFCURVE",
"658 120 OFFCURVE",
"658 346 CURVE SMOOTH",
"658 569 OFFCURVE",
"533 710 OFFCURVE",
"323 710 CURVE SMOOTH",
"160 710 OFFCURVE",
"56 618 OFFCURVE",
"41 500 CURVE",
"84 500 LINE",
"111 616 OFFCURVE",
"202 660 OFFCURVE",
"298 660 CURVE SMOOTH",
"479 660 OFFCURVE",
"559 515 OFFCURVE",
"559 341 CURVE SMOOTH",
"559 185 OFFCURVE",
"486 39 OFFCURVE",
"327 39 CURVE SMOOTH",
"181 39 OFFCURVE",
"133 180 OFFCURVE",
"132 283 CURVE",
"573 283 LINE",
"573 333 LINE",
"33 333 LINE",
"33 303 LINE SMOOTH",
"33 132 OFFCURVE",
"119 -10 OFFCURVE",
"330 -10 CURVE SMOOTH"
);
}
);
width = 692;
}
);
note = uni018F;
unicode = 018F;
},
{
glyphname = Tbar;
lastChange = "2017-12-18 08:47:22 +0000";
layers = (
{
components = (
{
name = T;
}
);
layerId = "0B1DFD06-3317-40CA-B510-4969A0718C16";
paths = (
{
closed = 1;
nodes = (
"520 317 LINE",
"520 363 LINE",
"134 363 LINE",
"134 317 LINE"
);
}
);
width = 652;
}
);
leftKerningGroup = T;
note = Tbar;
rightKerningGroup = T;
unicode = 0166;
},
{
glyphname = Uacute;
lastChange = "2017-12-18 08:53:01 +0000";
layers = (
{
background = {
paths = (
{
closed = 1;
nodes = (
"539 -10 OFFCURVE",
"636 51 OFFCURVE",
"636 204 CURVE SMOOTH",
"636 637 LINE SMOOTH",
"636 662 OFFCURVE",
"660 673 OFFCURVE",
"690 673 CURVE SMOOTH",
"713 673 LINE",
"713 700 LINE",
"510 700 LINE",
"510 673 LINE",
"532 673 LINE SMOOTH",
"564 673 OFFCURVE",
"586 662 OFFCURVE",
"586 637 CURVE SMOOTH",
"586 197 LINE SMOOTH",
"586 65 OFFCURVE",
"489 31 OFFCURVE",
"397 31 CURVE SMOOTH",
"290 31 OFFCURVE",
"203 63 OFFCURVE",
"203 197 CURVE SMOOTH",
"203 637 LINE SMOOTH",
"203 662 OFFCURVE",
"226 673 OFFCURVE",
"257 673 CURVE SMOOTH",
"280 673 LINE",
"280 700 LINE",
"28 700 LINE",
"28 673 LINE",
"51 673 LINE SMOOTH",
"82 673 OFFCURVE",
"105 662 OFFCURVE",
"105 637 CURVE SMOOTH",
"105 204 LINE SMOOTH",
"105 46 OFFCURVE",
"208 -10 OFFCURVE",
"375 -10 CURVE SMOOTH"
);
},
{
closed = 1;
nodes = (
"447 865 LINE SMOOTH",
"469 877 OFFCURVE",
"481 890 OFFCURVE",
"481 907 CURVE SMOOTH",
"481 922 OFFCURVE",
"469 937 OFFCURVE",
"447 937 CURVE SMOOTH",
"426 937 OFFCURVE",
"411 921 OFFCURVE",
"403 914 CURVE SMOOTH",
"288 807 LINE",
"305 782 LINE"
);
}
);
};
components = (
{
name = U;
},
{
name = acute;
transform = "{1, 0, 0, 1, 136, 230}";
}
);
layerId = "0B1DFD06-3317-40CA-B510-4969A0718C16";
width = 742;
}
);
leftKerningGroup = U;
note = Uacute;
rightKerningGroup = U;
unicode = 00DA;
},
{
glyphname = Ubreve;
lastChange = "2017-12-18 08:53:01 +0000";
layers = (
{
background = {
paths = (
{
closed = 1;
nodes = (
"539 -10 OFFCURVE",
"636 51 OFFCURVE",
"636 204 CURVE SMOOTH",
"636 637 LINE SMOOTH",
"636 662 OFFCURVE",
"660 673 OFFCURVE",
"690 673 CURVE SMOOTH",
"713 673 LINE",
"713 700 LINE",
"510 700 LINE",
"510 673 LINE",
"532 673 LINE SMOOTH",
"564 673 OFFCURVE",
"586 662 OFFCURVE",
"586 637 CURVE SMOOTH",
"586 197 LINE SMOOTH",
"586 65 OFFCURVE",
"489 31 OFFCURVE",
"397 31 CURVE SMOOTH",
"290 31 OFFCURVE",
"203 63 OFFCURVE",
"203 197 CURVE SMOOTH",
"203 637 LINE SMOOTH",
"203 662 OFFCURVE",
"226 673 OFFCURVE",
"257 673 CURVE SMOOTH",
"280 673 LINE",
"280 700 LINE",
"28 700 LINE",
"28 673 LINE",
"51 673 LINE SMOOTH",
"82 673 OFFCURVE",
"105 662 OFFCURVE",
"105 637 CURVE SMOOTH",
"105 204 LINE SMOOTH",
"105 46 OFFCURVE",
"208 -10 OFFCURVE",
"375 -10 CURVE SMOOTH"
);
},
{
closed = 1;
nodes = (
"483 774 OFFCURVE",
"525 830 OFFCURVE",
"529 905 CURVE",
"496 905 LINE",
"490 846 OFFCURVE",
"448 820 OFFCURVE",
"384 820 CURVE SMOOTH",
"320 820 OFFCURVE",
"277 846 OFFCURVE",
"270 905 CURVE",
"237 905 LINE",
"241 827 OFFCURVE",
"283 774 OFFCURVE",
"384 774 CURVE SMOOTH"
);
}
);
};
components = (
{
name = U;
},
{
name = breve;
transform = "{1, 0, 0, 1, 148, 230}";
}
);
layerId = "0B1DFD06-3317-40CA-B510-4969A0718C16";
width = 742;
}
);
leftKerningGroup = U;
note = Ubreve;
rightKerningGroup = U;
unicode = 016C;
},
{
glyphname = Ucaron;
lastChange = "2017-12-18 08:53:01 +0000";
layers = (
{
background = {
paths = (
{
closed = 1;
nodes = (
"539 -10 OFFCURVE",
"636 51 OFFCURVE",
"636 204 CURVE SMOOTH",
"636 637 LINE SMOOTH",
"636 662 OFFCURVE",
"660 673 OFFCURVE",
"690 673 CURVE SMOOTH",
"713 673 LINE",
"713 700 LINE",
"510 700 LINE",
"510 673 LINE",
"532 673 LINE SMOOTH",
"564 673 OFFCURVE",
"586 662 OFFCURVE",
"586 637 CURVE SMOOTH",
"586 197 LINE SMOOTH",
"586 65 OFFCURVE",
"489 31 OFFCURVE",
"397 31 CURVE SMOOTH",
"290 31 OFFCURVE",
"203 63 OFFCURVE",
"203 197 CURVE SMOOTH",
"203 637 LINE SMOOTH",
"203 662 OFFCURVE",
"226 673 OFFCURVE",
"257 673 CURVE SMOOTH",
"280 673 LINE",
"280 700 LINE",
"28 700 LINE",
"28 673 LINE",
"51 673 LINE SMOOTH",
"82 673 OFFCURVE",
"105 662 OFFCURVE",
"105 637 CURVE SMOOTH",
"105 204 LINE SMOOTH",
"105 46 OFFCURVE",
"208 -10 OFFCURVE",
"375 -10 CURVE SMOOTH"
);
},
{
closed = 1;
nodes = (
"397 782 LINE",
"521 911 LINE",
"502 932 LINE",
"394 847 LINE",
"386 840 OFFCURVE",
"377 836 OFFCURVE",
"371 836 CURVE SMOOTH",
"365 836 OFFCURVE",
"357 840 OFFCURVE",
"347 847 CURVE",
"239 932 LINE",
"220 911 LINE",
"344 782 LINE"
);
}
);
};
components = (
{
name = U;
},
{
name = caron;
transform = "{1, 0, 0, 1, 148, 230}";
}
);
layerId = "0B1DFD06-3317-40CA-B510-4969A0718C16";
width = 742;
}
);
leftKerningGroup = U;
note = Ucaron;
rightKerningGroup = U;
unicode = 01D3;
},
{
glyphname = Ucircumflex;
lastChange = "2017-12-18 08:53:01 +0000";
layers = (
{
background = {
paths = (
{
closed = 1;
nodes = (
"539 -10 OFFCURVE",
"636 51 OFFCURVE",
"636 204 CURVE SMOOTH",
"636 637 LINE SMOOTH",
"636 662 OFFCURVE",
"660 673 OFFCURVE",
"690 673 CURVE SMOOTH",
"713 673 LINE",
"713 700 LINE",
"510 700 LINE",
"510 673 LINE",
"532 673 LINE SMOOTH",
"564 673 OFFCURVE",
"586 662 OFFCURVE",
"586 637 CURVE SMOOTH",
"586 197 LINE SMOOTH",
"586 65 OFFCURVE",
"489 31 OFFCURVE",
"397 31 CURVE SMOOTH",
"290 31 OFFCURVE",
"203 63 OFFCURVE",
"203 197 CURVE SMOOTH",
"203 637 LINE SMOOTH",
"203 662 OFFCURVE",
"226 673 OFFCURVE",
"257 673 CURVE SMOOTH",
"280 673 LINE",
"280 700 LINE",
"28 700 LINE",
"28 673 LINE",
"51 673 LINE SMOOTH",
"82 673 OFFCURVE",
"105 662 OFFCURVE",
"105 637 CURVE SMOOTH",
"105 204 LINE SMOOTH",
"105 46 OFFCURVE",
"208 -10 OFFCURVE",
"375 -10 CURVE SMOOTH"
);
},
{
closed = 1;
nodes = (
"360 868 LINE SMOOTH",
"368 874 OFFCURVE",
"378 879 OFFCURVE",
"384 879 CURVE SMOOTH",
"390 879 OFFCURVE",
"398 874 OFFCURVE",
"407 868 CURVE",
"515 782 LINE",
"534 803 LINE",
"410 932 LINE",
"357 932 LINE",
"233 803 LINE",
"252 782 LINE"
);
}
);
};
components = (
{
name = U;
},
{
name = circumflex;
transform = "{1, 0, 0, 1, 148, 230}";
}
);
layerId = "0B1DFD06-3317-40CA-B510-4969A0718C16";
width = 742;
}
);
leftKerningGroup = U;
note = Ucircumflex;
rightKerningGroup = U;
unicode = 00DB;
},
{
glyphname = Udieresis;
lastChange = "2017-12-18 08:53:01 +0000";
layers = (
{
background = {
paths = (
{
closed = 1;
nodes = (
"539 -10 OFFCURVE",
"636 51 OFFCURVE",
"636 204 CURVE SMOOTH",
"636 637 LINE SMOOTH",
"636 662 OFFCURVE",
"660 673 OFFCURVE",
"690 673 CURVE SMOOTH",
"713 673 LINE",
"713 700 LINE",
"510 700 LINE",
"510 673 LINE",
"532 673 LINE SMOOTH",
"564 673 OFFCURVE",
"586 662 OFFCURVE",
"586 637 CURVE SMOOTH",
"586 197 LINE SMOOTH",
"586 65 OFFCURVE",
"489 31 OFFCURVE",
"397 31 CURVE SMOOTH",
"290 31 OFFCURVE",
"203 63 OFFCURVE",
"203 197 CURVE SMOOTH",
"203 637 LINE SMOOTH",
"203 662 OFFCURVE",
"226 673 OFFCURVE",
"257 673 CURVE SMOOTH",
"280 673 LINE",
"280 700 LINE",
"28 700 LINE",
"28 673 LINE",
"51 673 LINE SMOOTH",
"82 673 OFFCURVE",
"105 662 OFFCURVE",
"105 637 CURVE SMOOTH",
"105 204 LINE SMOOTH",
"105 46 OFFCURVE",
"208 -10 OFFCURVE",
"375 -10 CURVE SMOOTH"
);
},
{
closed = 1;
nodes = (
"304 781 OFFCURVE",
"322 800 OFFCURVE",
"322 827 CURVE SMOOTH",
"322 855 OFFCURVE",
"304 875 OFFCURVE",
"275 875 CURVE SMOOTH",
"247 875 OFFCURVE",
"229 855 OFFCURVE",
"229 827 CURVE SMOOTH",
"229 800 OFFCURVE",
"247 781 OFFCURVE",
"275 781 CURVE SMOOTH"
);
},
{
closed = 1;
nodes = (
"520 781 OFFCURVE",
"538 800 OFFCURVE",
"538 827 CURVE SMOOTH",
"538 855 OFFCURVE",
"520 875 OFFCURVE",
"491 875 CURVE SMOOTH",
"462 875 OFFCURVE",
"444 855 OFFCURVE",
"444 827 CURVE SMOOTH",
"444 800 OFFCURVE",
"462 781 OFFCURVE",
"491 781 CURVE SMOOTH"
);
}
);
};
components = (
{
name = U;
},
{
name = dieresis;
transform = "{1, 0, 0, 1, 148, 230}";
}
);
layerId = "0B1DFD06-3317-40CA-B510-4969A0718C16";
width = 742;
}
);
leftKerningGroup = U;
note = Udieresis;
rightKerningGroup = U;
unicode = 00DC;
},
{
glyphname = Udieresisacute;
lastChange = "2017-12-18 08:53:01 +0000";
layers = (
{
background = {
paths = (
{
closed = 1;
nodes = (
"539 -10 OFFCURVE",
"636 51 OFFCURVE",
"636 204 CURVE SMOOTH",
"636 637 LINE SMOOTH",
"636 662 OFFCURVE",
"660 673 OFFCURVE",
"690 673 CURVE SMOOTH",
"713 673 LINE",
"713 700 LINE",
"510 700 LINE",
"510 673 LINE",
"532 673 LINE SMOOTH",
"564 673 OFFCURVE",
"586 662 OFFCURVE",
"586 637 CURVE SMOOTH",
"586 197 LINE SMOOTH",
"586 65 OFFCURVE",
"489 31 OFFCURVE",
"397 31 CURVE SMOOTH",
"290 31 OFFCURVE",
"203 63 OFFCURVE",
"203 197 CURVE SMOOTH",
"203 637 LINE SMOOTH",
"203 662 OFFCURVE",
"226 673 OFFCURVE",
"257 673 CURVE SMOOTH",
"280 673 LINE",
"280 700 LINE",
"28 700 LINE",
"28 673 LINE",
"51 673 LINE SMOOTH",
"82 673 OFFCURVE",
"105 662 OFFCURVE",
"105 637 CURVE SMOOTH",
"105 204 LINE SMOOTH",
"105 46 OFFCURVE",
"208 -10 OFFCURVE",
"375 -10 CURVE SMOOTH"
);
},
{
closed = 1;
nodes = (
"291 780 OFFCURVE",
"310 799 OFFCURVE",
"310 827 CURVE SMOOTH",
"310 855 OFFCURVE",
"291 875 OFFCURVE",
"262 875 CURVE SMOOTH",
"235 875 OFFCURVE",
"216 855 OFFCURVE",
"216 827 CURVE SMOOTH",
"216 799 OFFCURVE",
"235 780 OFFCURVE",
"262 780 CURVE SMOOTH"
);
},
{
closed = 1;
nodes = (
"507 780 OFFCURVE",
"526 799 OFFCURVE",
"526 827 CURVE SMOOTH",
"526 855 OFFCURVE",
"507 875 OFFCURVE",
"479 875 CURVE SMOOTH",
"451 875 OFFCURVE",
"432 855 OFFCURVE",
"432 827 CURVE SMOOTH",
"432 799 OFFCURVE",
"451 780 OFFCURVE",
"479 780 CURVE SMOOTH"
);
},
{
closed = 1;
nodes = (
"481 969 LINE SMOOTH",
"502 981 OFFCURVE",
"512 993 OFFCURVE",
"512 1009 CURVE SMOOTH",
"512 1024 OFFCURVE",
"503 1037 OFFCURVE",
"481 1037 CURVE SMOOTH",
"460 1037 OFFCURVE",
"442 1020 OFFCURVE",
"435 1013 CURVE SMOOTH",
"344 924 LINE",
"362 899 LINE"
);
}
);
};
components = (
{
name = U;
},
{
name = dieresisacute;
transform = "{1, 0, 0, 1, 149, 230}";
}
);
layerId = "0B1DFD06-3317-40CA-B510-4969A0718C16";
width = 742;
}
);
leftKerningGroup = U;
note = Udieresisacute;
rightKerningGroup = U;
unicode = 01D7;
},
{
glyphname = Udieresiscaron;
lastChange = "2017-12-18 08:53:01 +0000";
layers = (
{
background = {
paths = (
{
closed = 1;
nodes = (
"539 -10 OFFCURVE",
"636 51 OFFCURVE",
"636 204 CURVE SMOOTH",
"636 637 LINE SMOOTH",
"636 662 OFFCURVE",
"660 673 OFFCURVE",
"690 673 CURVE SMOOTH",
"713 673 LINE",
"713 700 LINE",
"510 700 LINE",
"510 673 LINE",
"532 673 LINE SMOOTH",
"564 673 OFFCURVE",
"586 662 OFFCURVE",
"586 637 CURVE SMOOTH",
"586 197 LINE SMOOTH",
"586 65 OFFCURVE",
"489 31 OFFCURVE",
"397 31 CURVE SMOOTH",
"290 31 OFFCURVE",
"203 63 OFFCURVE",
"203 197 CURVE SMOOTH",
"203 637 LINE SMOOTH",
"203 662 OFFCURVE",
"226 673 OFFCURVE",
"257 673 CURVE SMOOTH",
"280 673 LINE",
"280 700 LINE",
"28 700 LINE",
"28 673 LINE",
"51 673 LINE SMOOTH",
"82 673 OFFCURVE",
"105 662 OFFCURVE",
"105 637 CURVE SMOOTH",
"105 204 LINE SMOOTH",
"105 46 OFFCURVE",
"208 -10 OFFCURVE",
"375 -10 CURVE SMOOTH"
);
},
{
closed = 1;
nodes = (
"296 780 OFFCURVE",
"315 799 OFFCURVE",
"315 827 CURVE SMOOTH",
"315 855 OFFCURVE",
"296 875 OFFCURVE",
"267 875 CURVE SMOOTH",
"240 875 OFFCURVE",
"221 855 OFFCURVE",
"221 827 CURVE SMOOTH",
"221 799 OFFCURVE",
"240 780 OFFCURVE",
"267 780 CURVE SMOOTH"
);
},
{
closed = 1;
nodes = (
"512 780 OFFCURVE",
"531 799 OFFCURVE",
"531 827 CURVE SMOOTH",
"531 855 OFFCURVE",
"512 875 OFFCURVE",
"484 875 CURVE SMOOTH",
"456 875 OFFCURVE",
"437 855 OFFCURVE",
"437 827 CURVE SMOOTH",
"437 799 OFFCURVE",
"456 780 OFFCURVE",
"484 780 CURVE SMOOTH"
);
},
{
closed = 1;
nodes = (
"401 911 LINE",
"523 1035 LINE",
"505 1056 LINE",
"404 978 LINE",
"394 971 OFFCURVE",
"385 963 OFFCURVE",
"376 963 CURVE SMOOTH",
"369 963 OFFCURVE",
"357 971 OFFCURVE",
"347 978 CURVE",
"246 1056 LINE",
"228 1035 LINE",
"350 911 LINE"
);
}
);
};
components = (
{
name = U;
},
{
name = dieresiscaron;
transform = "{1, 0, 0, 1, 149, 230}";
}
);
layerId = "0B1DFD06-3317-40CA-B510-4969A0718C16";
width = 742;
}
);
leftKerningGroup = U;
note = Udieresiscaron;
rightKerningGroup = U;
unicode = 01D9;
},
{
glyphname = Udieresisgrave;
lastChange = "2017-12-18 08:53:01 +0000";
layers = (
{
background = {
paths = (
{
closed = 1;
nodes = (
"539 -10 OFFCURVE",
"636 51 OFFCURVE",
"636 204 CURVE SMOOTH",
"636 637 LINE SMOOTH",
"636 662 OFFCURVE",
"660 673 OFFCURVE",
"690 673 CURVE SMOOTH",
"713 673 LINE",
"713 700 LINE",
"510 700 LINE",
"510 673 LINE",
"532 673 LINE SMOOTH",
"564 673 OFFCURVE",
"586 662 OFFCURVE",
"586 637 CURVE SMOOTH",
"586 197 LINE SMOOTH",
"586 65 OFFCURVE",
"489 31 OFFCURVE",
"397 31 CURVE SMOOTH",
"290 31 OFFCURVE",
"203 63 OFFCURVE",
"203 197 CURVE SMOOTH",
"203 637 LINE SMOOTH",
"203 662 OFFCURVE",
"226 673 OFFCURVE",
"257 673 CURVE SMOOTH",
"280 673 LINE",
"280 700 LINE",
"28 700 LINE",
"28 673 LINE",
"51 673 LINE SMOOTH",
"82 673 OFFCURVE",
"105 662 OFFCURVE",
"105 637 CURVE SMOOTH",
"105 204 LINE SMOOTH",
"105 46 OFFCURVE",
"208 -10 OFFCURVE",
"375 -10 CURVE SMOOTH"
);
},
{
closed = 1;
nodes = (
"296 780 OFFCURVE",
"315 799 OFFCURVE",
"315 827 CURVE SMOOTH",
"315 855 OFFCURVE",
"296 875 OFFCURVE",
"267 875 CURVE SMOOTH",
"240 875 OFFCURVE",
"221 855 OFFCURVE",
"221 827 CURVE SMOOTH",
"221 799 OFFCURVE",
"240 780 OFFCURVE",
"267 780 CURVE SMOOTH"
);
},
{
closed = 1;
nodes = (
"403 924 LINE",
"312 1013 LINE SMOOTH",
"305 1020 OFFCURVE",
"288 1036 OFFCURVE",
"267 1036 CURVE SMOOTH",
"245 1036 OFFCURVE",
"235 1024 OFFCURVE",
"235 1009 CURVE SMOOTH",
"235 993 OFFCURVE",
"245 981 OFFCURVE",
"266 969 CURVE SMOOTH",
"385 899 LINE"
);
},
{
closed = 1;
nodes = (
"512 780 OFFCURVE",
"531 799 OFFCURVE",
"531 827 CURVE SMOOTH",
"531 855 OFFCURVE",
"512 875 OFFCURVE",
"484 875 CURVE SMOOTH",
"456 875 OFFCURVE",
"437 855 OFFCURVE",
"437 827 CURVE SMOOTH",
"437 799 OFFCURVE",
"456 780 OFFCURVE",
"484 780 CURVE SMOOTH"
);
}
);
};
components = (
{
name = U;
},
{
name = dieresisgrave;
transform = "{1, 0, 0, 1, 149, 230}";
}
);
layerId = "0B1DFD06-3317-40CA-B510-4969A0718C16";
width = 742;
}
);
leftKerningGroup = U;
note = Udieresisgrave;
rightKerningGroup = U;
unicode = 01DB;
},
{
glyphname = Udieresismacron;
lastChange = "2017-12-18 08:53:01 +0000";
layers = (
{
background = {
paths = (
{
closed = 1;
nodes = (
"539 -10 OFFCURVE",
"636 51 OFFCURVE",
"636 204 CURVE SMOOTH",
"636 637 LINE SMOOTH",
"636 662 OFFCURVE",
"660 673 OFFCURVE",
"690 673 CURVE SMOOTH",
"713 673 LINE",
"713 700 LINE",
"510 700 LINE",
"510 673 LINE",
"532 673 LINE SMOOTH",
"564 673 OFFCURVE",
"586 662 OFFCURVE",
"586 637 CURVE SMOOTH",
"586 197 LINE SMOOTH",
"586 65 OFFCURVE",
"489 31 OFFCURVE",
"397 31 CURVE SMOOTH",
"290 31 OFFCURVE",
"203 63 OFFCURVE",
"203 197 CURVE SMOOTH",
"203 637 LINE SMOOTH",
"203 662 OFFCURVE",
"226 673 OFFCURVE",
"257 673 CURVE SMOOTH",
"280 673 LINE",
"280 700 LINE",
"28 700 LINE",
"28 673 LINE",
"51 673 LINE SMOOTH",
"82 673 OFFCURVE",
"105 662 OFFCURVE",
"105 637 CURVE SMOOTH",
"105 204 LINE SMOOTH",
"105 46 OFFCURVE",
"208 -10 OFFCURVE",
"375 -10 CURVE SMOOTH"
);
},
{
closed = 1;
nodes = (
"291 781 OFFCURVE",
"309 800 OFFCURVE",
"309 827 CURVE SMOOTH",
"309 855 OFFCURVE",
"291 875 OFFCURVE",
"262 875 CURVE SMOOTH",
"234 875 OFFCURVE",
"216 855 OFFCURVE",
"216 827 CURVE SMOOTH",
"216 800 OFFCURVE",
"234 781 OFFCURVE",
"262 781 CURVE SMOOTH"
);
},
{
closed = 1;
nodes = (
"507 781 OFFCURVE",
"525 800 OFFCURVE",
"525 827 CURVE SMOOTH",
"525 855 OFFCURVE",
"507 875 OFFCURVE",
"478 875 CURVE SMOOTH",
"449 875 OFFCURVE",
"431 855 OFFCURVE",
"431 827 CURVE SMOOTH",
"431 800 OFFCURVE",
"449 781 OFFCURVE",
"478 781 CURVE SMOOTH"
);
},
{
closed = 1;
nodes = (
"537 928 LINE",
"537 970 LINE",
"204 970 LINE",
"204 928 LINE"
);
}
);
};
components = (
{
name = U;
},
{
name = dieresis;
transform = "{1, 0, 0, 1, 148, 230}";
},
{
alignment = -1;
name = macron;
transform = "{1, 0, 0, 1, 145, 356}";
}
);
layerId = "0B1DFD06-3317-40CA-B510-4969A0718C16";
width = 742;
}
);
leftKerningGroup = U;
note = Udieresismacron;
rightKerningGroup = U;
unicode = 01D5;
},
{
glyphname = Uhorn;
lastChange = "2017-12-19 04:58:26 +0000";
layers = (
{
layerId = "0B1DFD06-3317-40CA-B510-4969A0718C16";
paths = (
{
closed = 1;
nodes = (
"715 765 OFFCURVE",
"710 765 OFFCURVE",
"667 765 CURVE",
"667 679 OFFCURVE",
"620 631 OFFCURVE",
"578 604 CURVE",
"600 580 LINE",
"697 636 OFFCURVE",
"715 719 OFFCURVE",
"715 765 CURVE"
);
},
{
closed = 1;
nodes = (
"555 699 LINE",
"555 610 OFFCURVE",
"555 290 OFFCURVE",
"555 188 CURVE SMOOTH",
"555 -32 OFFCURVE",
"148 -35 OFFCURVE",
"148 188 CURVE SMOOTH",
"148 292 OFFCURVE",
"148 610 OFFCURVE",
"148 700 CURVE",
"102 700 LINE",
"102 604 OFFCURVE",
"102 279 OFFCURVE",
"102 170 CURVE SMOOTH",
"102 -76 OFFCURVE",
"601 -75 OFFCURVE",
"601 170 CURVE SMOOTH",
"601 278 OFFCURVE",
"601 605 OFFCURVE",
"601 700 CURVE"
);
}
);
width = 754;
}
);
note = Uhorn;
unicode = 01AF;
},
{
color = 0;
glyphname = "alpha-latin";
lastChange = "2017-12-19 04:58:32 +0000";
layers = (
{
layerId = "0B1DFD06-3317-40CA-B510-4969A0718C16";
paths = (
{
closed = 1;
nodes = (
"304 -10 OFFCURVE",
"357 10 OFFCURVE",
"393 69 CURVE",
"393 37 LINE SMOOTH",
"393 0 OFFCURVE",
"429 -10 OFFCURVE",
"461 -10 CURVE SMOOTH",
"491 -10 OFFCURVE",
"523 -1 OFFCURVE",
"545 17 CURVE",
"545 34 LINE",
"531 29 OFFCURVE",
"519 26 OFFCURVE",
"510 26 CURVE SMOOTH",
"494 26 OFFCURVE",
"486 36 OFFCURVE",
"486 58 CURVE SMOOTH",
"486 403 LINE",
"452 444 OFFCURVE",
"374 480 OFFCURVE",
"279 480 CURVE SMOOTH",
"141 480 OFFCURVE",
"26 405 OFFCURVE",
"26 215 CURVE SMOOTH",
"26 67 OFFCURVE",
"96 -10 OFFCURVE",
"234 -10 CURVE SMOOTH"
);
},
{
closed = 1;
nodes = (
"152 28 OFFCURVE",
"119 116 OFFCURVE",
"119 222 CURVE SMOOTH",
"119 370 OFFCURVE",
"183 441 OFFCURVE",
"279 441 CURVE SMOOTH",
"330 441 OFFCURVE",
"368 421 OFFCURVE",
"392 398 CURVE",
"392 169 LINE SMOOTH",
"392 98 OFFCURVE",
"346 28 OFFCURVE",
"255 28 CURVE SMOOTH"
);
}
);
width = 558;
}
);
leftKerningGroup = a;
note = ascript;
rightKerningGroup = a;
unicode = 0251;
},
{
glyphname = ae;
lastChange = "2017-12-19 04:58:39 +0000";
layers = (
{
layerId = "0B1DFD06-3317-40CA-B510-4969A0718C16";
paths = (
{
closed = 1;
nodes = (
"516 89 OFFCURVE",
"489 119 OFFCURVE",
"480 152 CURVE",
"480 233 LINE",
"663 233 LINE SMOOTH",
"828 233 OFFCURVE",
"879 249 OFFCURVE",
"873 361 CURVE SMOOTH",
"869 413 OFFCURVE",
"831 460 OFFCURVE",
"789 485 CURVE SMOOTH",
"703 535 OFFCURVE",
"588 529 OFFCURVE",
"515 486 CURVE SMOOTH",
"495 475 OFFCURVE",
"476 460 OFFCURVE",
"462 443 CURVE",
"449 464 OFFCURVE",
"430 480 OFFCURVE",
"408 490 CURVE SMOOTH",
"322 532 OFFCURVE",
"194 532 OFFCURVE",
"99 485 CURVE",
"91 439 LINE",
"175 482 OFFCURVE",
"316 506 OFFCURVE",
"384 454 CURVE SMOOTH",
"414 433 OFFCURVE",
"430 400 OFFCURVE",
"430 372 CURVE SMOOTH",
"430 331 OFFCURVE",
"357 301 OFFCURVE",
"324 293 CURVE SMOOTH",
"223 269 OFFCURVE",
"73 273 OFFCURVE",
"75 142 CURVE SMOOTH",
"75 66 OFFCURVE",
"119 23 OFFCURVE",
"191 9 CURVE SMOOTH",
"303 -13 OFFCURVE",
"400 43 OFFCURVE",
"434 70 CURVE SMOOTH",
"452 83 OFFCURVE",
"463 92 OFFCURVE",
"463 91 CURVE",
"472 73 OFFCURVE",
"510 45 OFFCURVE",
"515 42 CURVE",
"611 -14 OFFCURVE",
"812 -6 OFFCURVE",
"870 111 CURVE",
"831 127 LINE",
"791 27 OFFCURVE",
"626 24 OFFCURVE",
"549 69 CURVE SMOOTH"
);
},
{
closed = 1;
nodes = (
"608 493 OFFCURVE",
"703 498 OFFCURVE",
"771 453 CURVE SMOOTH",
"800 434 OFFCURVE",
"828 393 OFFCURVE",
"830 357 CURVE SMOOTH",
"833 272 OFFCURVE",
"781 270 OFFCURVE",
"663 272 CURVE SMOOTH",
"480 272 LINE",
"480 371 LINE SMOOTH",
"480 372 OFFCURVE",
"480 374 OFFCURVE",
"480 375 CURVE",
"489 410 OFFCURVE",
"516 439 OFFCURVE",
"549 459 CURVE SMOOTH"
);
},
{
closed = 1;
nodes = (
"433 119 LINE",
"387 83 OFFCURVE",
"332 29 OFFCURVE",
"203 46 CURVE SMOOTH",
"152 52 OFFCURVE",
"118 91 OFFCURVE",
"118 142 CURVE SMOOTH",
"118 226 OFFCURVE",
"240 244 OFFCURVE",
"324 259 CURVE SMOOTH",
"367 266 OFFCURVE",
"397 280 OFFCURVE",
"433 306 CURVE"
);
}
);
width = 943;
}
);
note = ae;
unicode = 00E6;
},
{
glyphname = eth;
lastChange = "2017-12-19 04:58:52 +0000";
layers = (
{
layerId = "0B1DFD06-3317-40CA-B510-4969A0718C16";
paths = (
{
closed = 1;
nodes = (
"552 311 OFFCURVE",
"538 348 OFFCURVE",
"518 388 CURVE",
"500 427 OFFCURVE",
"473 470 OFFCURVE",
"437 521 CURVE SMOOTH",
"434 525 OFFCURVE",
"431 529 OFFCURVE",
"429 535 CURVE",
"542 585 LINE",
"525 624 LINE",
"403 571 LINE",
"375 607 OFFCURVE",
"344 647 OFFCURVE",
"308 690 CURVE",
"250 690 LINE",
"293 644 OFFCURVE",
"332 600 OFFCURVE",
"365 554 CURVE",
"239 499 LINE",
"256 459 LINE",
"391 519 LINE",
"416 485 OFFCURVE",
"436 450 OFFCURVE",
"454 417 CURVE SMOOTH",
"467 394 OFFCURVE",
"479 371 OFFCURVE",
"489 349 CURVE",
"450 372 OFFCURVE",
"383 400 OFFCURVE",
"311 398 CURVE SMOOTH",
"260 398 OFFCURVE",
"209 385 OFFCURVE",
"177 368 CURVE",
"145 352 OFFCURVE",
"124 329 OFFCURVE",
"108 301 CURVE",
"95 272 OFFCURVE",
"86 240 OFFCURVE",
"86 206 CURVE SMOOTH",
"86 165 OFFCURVE",
"98 131 OFFCURVE",
"115 99 CURVE SMOOTH",
"134 66 OFFCURVE",
"161 39 OFFCURVE",
"198 20 CURVE SMOOTH",
"236 0 OFFCURVE",
"278 -9 OFFCURVE",
"325 -9 CURVE SMOOTH",
"365 -9 OFFCURVE",
"406 -3 OFFCURVE",
"440 9 CURVE SMOOTH",
"477 22 OFFCURVE",
"509 42 OFFCURVE",
"533 70 CURVE SMOOTH",
"558 101 OFFCURVE",
"571 138 OFFCURVE",
"571 188 CURVE SMOOTH",
"571 217 OFFCURVE",
"568 249 OFFCURVE",
"559 280 CURVE SMOOTH"
);
},
{
closed = 1;
nodes = (
"483 75 OFFCURVE",
"460 55 OFFCURVE",
"431 40 CURVE SMOOTH",
"404 27 OFFCURVE",
"370 20 OFFCURVE",
"335 20 CURVE SMOOTH",
"289 20 OFFCURVE",
"250 30 OFFCURVE",
"220 46 CURVE",
"190 65 OFFCURVE",
"165 88 OFFCURVE",
"151 116 CURVE SMOOTH",
"137 145 OFFCURVE",
"128 177 OFFCURVE",
"128 211 CURVE SMOOTH",
"128 257 OFFCURVE",
"142 293 OFFCURVE",
"171 322 CURVE",
"198 352 OFFCURVE",
"247 364 OFFCURVE",
"308 362 CURVE SMOOTH",
"375 361 OFFCURVE",
"460 332 OFFCURVE",
"513 279 CURVE",
"522 249 OFFCURVE",
"526 220 OFFCURVE",
"526 194 CURVE SMOOTH",
"526 158 OFFCURVE",
"518 128 OFFCURVE",
"500 101 CURVE SMOOTH"
);
}
);
width = 651;
}
);
note = eth;
unicode = 00F0;
},
{
color = 0;
glyphname = dcaron;
lastChange = "2017-12-19 04:58:54 +0000";
layers = (
{
layerId = "0B1DFD06-3317-40CA-B510-4969A0718C16";
paths = (
{
closed = 1;
nodes = (
"321 -10 OFFCURVE",
"381 14 OFFCURVE",
"417 74 CURVE",
"422 -4 LINE",
"564 11 LINE",
"564 34 LINE",
"541 34 LINE SMOOTH",
"513 34 OFFCURVE",
"499 44 OFFCURVE",
"499 69 CURVE SMOOTH",
"499 717 LINE",
"474 717 LINE",
"349 672 LINE",
"355 649 LINE",
"365 653 OFFCURVE",
"377 657 OFFCURVE",
"385 657 CURVE SMOOTH",
"394 657 OFFCURVE",
"405 654 OFFCURVE",
"405 636 CURVE SMOOTH",
"405 410 LINE",
"363 467 OFFCURVE",
"298 480 OFFCURVE",
"242 480 CURVE SMOOTH",
"123 480 OFFCURVE",
"31 401 OFFCURVE",
"31 245 CURVE SMOOTH",
"31 60 OFFCURVE",
"118 -10 OFFCURVE",
"243 -10 CURVE SMOOTH"
);
},
{
closed = 1;
nodes = (
"160 28 OFFCURVE",
"124 120 OFFCURVE",
"124 242 CURVE SMOOTH",
"124 372 OFFCURVE",
"176 440 OFFCURVE",
"275 440 CURVE SMOOTH",
"337 440 OFFCURVE",
"406 392 OFFCURVE",
"406 320 CURVE SMOOTH",
"406 168 LINE SMOOTH",
"406 97 OFFCURVE",
"357 28 OFFCURVE",
"269 28 CURVE SMOOTH"
);
},
{
closed = 1;
nodes = (
"630 523 OFFCURVE",
"674 583 OFFCURVE",
"674 646 CURVE SMOOTH",
"674 694 OFFCURVE",
"650 714 OFFCURVE",
"621 714 CURVE SMOOTH",
"592 714 OFFCURVE",
"575 694 OFFCURVE",
"575 670 CURVE SMOOTH",
"575 636 OFFCURVE",
"610 629 OFFCURVE",
"610 594 CURVE SMOOTH",
"610 558 OFFCURVE",
"584 525 OFFCURVE",
"557 499 CURVE",
"574 482 LINE"
);
}
);
width = 686;
}
);
leftKerningGroup = d;
note = dcaron;
unicode = 010F;
},
{
glyphname = dcroat;
lastChange = "2017-12-19 04:58:52 +0000";
layers = (
{
layerId = "0B1DFD06-3317-40CA-B510-4969A0718C16";
paths = (
{
closed = 1;
nodes = (
"597 600 LINE",
"597 644 LINE",
"502 644 LINE",
"502 712 LINE",
"454 712 LINE",
"454 644 LINE",
"364 644 LINE",
"364 600 LINE",
"454 600 LINE",
"454 444 LINE",
"420 495 OFFCURVE",
"316 513 OFFCURVE",
"286 510 CURVE SMOOTH",
"122 500 OFFCURVE",
"55 357 OFFCURVE",
"65 226 CURVE SMOOTH",
"73 109 OFFCURVE",
"144 1 OFFCURVE",
"265 1 CURVE SMOOTH",
"378 3 OFFCURVE",
"410 32 OFFCURVE",
"454 63 CURVE",
"460 36 OFFCURVE",
"477 12 OFFCURVE",
"500 1 CURVE",
"510 10 OFFCURVE",
"522 19 OFFCURVE",
"535 32 CURVE",
"502 56 OFFCURVE",
"502 78 OFFCURVE",
"502 108 CURVE SMOOTH",
"502 600 LINE"
);
},
{
closed = 1;
nodes = (
"410 70 OFFCURVE",
"358 36 OFFCURVE",
"276 39 CURVE SMOOTH",
"177 42 OFFCURVE",
"118 132 OFFCURVE",
"109 230 CURVE SMOOTH",
"99 341 OFFCURVE",
"154 462 OFFCURVE",
"286 477 CURVE SMOOTH",
"331 482 OFFCURVE",
"416 447 OFFCURVE",
"454 385 CURVE",
"454 112 LINE"
);
}
);
width = 626;
}
);
note = dslash;
unicode = 0111;
},
{
color = 0;
glyphname = schwa;
lastChange = "2017-12-19 05:00:00 +0000";
layers = (
{
layerId = "0B1DFD06-3317-40CA-B510-4969A0718C16";
paths = (
{
closed = 1;
nodes = (
"396 -10 OFFCURVE",
"487 83 OFFCURVE",
"487 236 CURVE SMOOTH",
"487 393 OFFCURVE",
"392 480 OFFCURVE",
"246 480 CURVE SMOOTH",
"112 480 OFFCURVE",
"47 407 OFFCURVE",
"36 303 CURVE",
"65 303 LINE",
"83 407 OFFCURVE",
"154 444 OFFCURVE",
"225 444 CURVE SMOOTH",
"331 444 OFFCURVE",
"392 360 OFFCURVE",
"392 234 CURVE SMOOTH",
"392 121 OFFCURVE",
"343 28 OFFCURVE",
"242 28 CURVE SMOOTH",
"147 28 OFFCURVE",
"117 112 OFFCURVE",
"115 173 CURVE",
"403 173 LINE",
"403 212 LINE",
"32 212 LINE",
"32 189 LINE SMOOTH",
"32 77 OFFCURVE",
"100 -10 OFFCURVE",
"246 -10 CURVE SMOOTH"
);
}
);
width = 521;
}
);
note = schwa;
unicode = 0259;
},
{
color = 0;
glyphname = hbar;
lastChange = "2017-12-19 05:00:05 +0000";
layers = (
{
layerId = "0B1DFD06-3317-40CA-B510-4969A0718C16";
paths = (
{
closed = 1;
nodes = (
"600 0 LINE",
"600 25 LINE",
"582 25 LINE SMOOTH",
"552 25 OFFCURVE",
"528 34 OFFCURVE",
"528 57 CURVE SMOOTH",
"528 344 LINE SMOOTH",
"528 424 OFFCURVE",
"471 480 OFFCURVE",
"357 480 CURVE SMOOTH",
"265 480 OFFCURVE",
"194 424 OFFCURVE",
"178 373 CURVE",
"178 285 LINE",
"188 285 LINE",
"188 389 OFFCURVE",
"264 439 OFFCURVE",
"330 439 CURVE SMOOTH",
"396 439 OFFCURVE",
"434 404 OFFCURVE",
"434 332 CURVE SMOOTH",
"434 57 LINE SMOOTH",
"434 34 OFFCURVE",
"411 25 OFFCURVE",
"383 25 CURVE SMOOTH",
"367 25 LINE",
"367 0 LINE"
);
},
{
closed = 1;
nodes = (
"255 0 LINE",
"255 25 LINE",
"240 25 LINE SMOOTH",
"212 25 OFFCURVE",
"188 34 OFFCURVE",
"188 57 CURVE SMOOTH",
"188 717 LINE",
"163 717 LINE",
"37 672 LINE",
"44 649 LINE",
"54 653 OFFCURVE",
"66 657 OFFCURVE",
"73 657 CURVE SMOOTH",
"83 657 OFFCURVE",
"94 654 OFFCURVE",
"94 636 CURVE SMOOTH",
"94 57 LINE SMOOTH",
"94 34 OFFCURVE",
"71 25 OFFCURVE",
"41 25 CURVE SMOOTH",
"22 25 LINE",
"22 0 LINE"
);
},
{
closed = 1;
nodes = (
"339 559 LINE",
"339 594 LINE",
"40 594 LINE",
"40 559 LINE"
);
}
);
width = 622;
}
);
note = hbar;
rightKerningGroup = h;
unicode = 0127;
},
{
glyphname = idotless;
lastChange = "2017-12-19 05:00:12 +0000";
layers = (
{
layerId = "0B1DFD06-3317-40CA-B510-4969A0718C16";
paths = (
{
closed = 1;
nodes = (
"101 0 LINE",
"148 0 LINE",
"148 487 LINE",
"101 487 LINE"
);
}
);
width = 233;
}
);
note = dotlessi;
unicode = 0131;
},
{
color = 0;
glyphname = ij;
lastChange = "2017-12-19 05:00:16 +0000";
layers = (
{
layerId = "0B1DFD06-3317-40CA-B510-4969A0718C16";
paths = (
{
closed = 1;
nodes = (
"472 -107 OFFCURVE",
"516 -25 OFFCURVE",
"516 102 CURVE SMOOTH",
"516 473 LINE",
"491 473 LINE",
"365 428 LINE",
"372 406 LINE",
"383 410 OFFCURVE",
"394 414 OFFCURVE",
"402 414 CURVE SMOOTH",
"411 414 OFFCURVE",
"423 410 OFFCURVE",
"423 393 CURVE SMOOTH",
"423 97 LINE SMOOTH",
"423 -4 OFFCURVE",
"418 -72 OFFCURVE",
"326 -110 CURVE",
"331 -132 LINE"
);
},
{
closed = 1;
nodes = (
"265 0 LINE",
"265 25 LINE",
"246 25 LINE SMOOTH",
"217 25 OFFCURVE",
"193 34 OFFCURVE",
"193 57 CURVE SMOOTH",
"193 475 LINE",
"168 475 LINE",
"42 431 LINE",
"49 408 LINE",
"59 411 OFFCURVE",
"71 416 OFFCURVE",
"78 416 CURVE SMOOTH",
"88 416 OFFCURVE",
"99 412 OFFCURVE",
"99 394 CURVE SMOOTH",
"99 57 LINE SMOOTH",
"99 34 OFFCURVE",
"76 25 OFFCURVE",
"46 25 CURVE SMOOTH",
"27 25 LINE",
"27 0 LINE"
);
},
{
closed = 1;
nodes = (
"171 561 OFFCURVE",
"194 584 OFFCURVE",
"194 616 CURVE SMOOTH",
"194 649 OFFCURVE",
"171 671 OFFCURVE",
"138 671 CURVE SMOOTH",
"103 671 OFFCURVE",
"81 649 OFFCURVE",
"81 616 CURVE SMOOTH",
"81 584 OFFCURVE",
"103 561 OFFCURVE",
"138 561 CURVE SMOOTH"
);
},
{
closed = 1;
nodes = (
"499 561 OFFCURVE",
"522 584 OFFCURVE",
"522 616 CURVE SMOOTH",
"522 649 OFFCURVE",
"499 671 OFFCURVE",
"465 671 CURVE SMOOTH",
"431 671 OFFCURVE",
"409 649 OFFCURVE",
"409 616 CURVE SMOOTH",
"409 584 OFFCURVE",
"431 561 OFFCURVE",
"465 561 CURVE SMOOTH"
);
}
);
width = 598;
}
);
note = ij;
unicode = 0133;
},
{
color = 0;
glyphname = jdotless;
lastChange = "2017-12-19 05:00:16 +0000";
layers = (
{
anchors = (
{
name = bottom;
position = "{151, 0}";
},
{
name = top;
position = "{151, 470}";
}
);
layerId = "0B1DFD06-3317-40CA-B510-4969A0718C16";
paths = (
{
closed = 1;
nodes = (
"176 -107 OFFCURVE",
"220 -25 OFFCURVE",
"220 102 CURVE SMOOTH",
"220 473 LINE",
"195 473 LINE",
"69 428 LINE",
"76 406 LINE",
"86 410 OFFCURVE",
"98 414 OFFCURVE",
"106 414 CURVE SMOOTH",
"115 414 OFFCURVE",
"126 410 OFFCURVE",
"126 393 CURVE SMOOTH",
"126 97 LINE SMOOTH",
"126 -3 OFFCURVE",
"123 -71 OFFCURVE",
"31 -110 CURVE",
"35 -132 LINE"
);
}
);
width = 302;
}
);
leftKerningGroup = j;
note = dotlessj;
unicode = 0237;
},
{
color = 0;
glyphname = kgreenlandic;
lastChange = "2017-12-19 05:00:18 +0000";
layers = (
{
layerId = "0B1DFD06-3317-40CA-B510-4969A0718C16";
paths = (
{
closed = 1;
nodes = (
"257 0 LINE",
"257 25 LINE",
"240 25 LINE SMOOTH",
"211 25 OFFCURVE",
"187 35 OFFCURVE",
"187 57 CURVE SMOOTH",
"187 487 LINE",
"162 487 LINE",
"36 442 LINE",
"43 419 LINE",
"54 423 OFFCURVE",
"65 427 OFFCURVE",
"73 427 CURVE SMOOTH",
"82 427 OFFCURVE",
"94 424 OFFCURVE",
"94 406 CURVE SMOOTH",
"94 57 LINE SMOOTH",
"94 34 OFFCURVE",
"70 25 OFFCURVE",
"40 25 CURVE SMOOTH",
"21 25 LINE",
"21 0 LINE"
);
},
{
closed = 1;
nodes = (
"577 0 LINE",
"577 25 LINE",
"550 25 LINE SMOOTH",
"530 25 OFFCURVE",
"496 35 OFFCURVE",
"475 55 CURVE SMOOTH",
"247 266 LINE",
"185 217 LINE",
"421 0 LINE"
);
},
{
closed = 1;
nodes = (
"446 417 LINE SMOOTH",
"463 432 OFFCURVE",
"488 444 OFFCURVE",
"506 444 CURVE SMOOTH",
"528 444 LINE",
"528 470 LINE",
"332 470 LINE",
"332 444 LINE",
"354 444 LINE SMOOTH",
"380 444 OFFCURVE",
"401 428 OFFCURVE",
"380 411 CURVE SMOOTH",
"155 225 LINE",
"155 173 LINE"
);
}
);
width = 591;
}
);
note = kgreenlandic;
rightKerningGroup = k;
unicode = 0138;
},
{
glyphname = lslash;
lastChange = "2017-12-19 05:00:52 +0000";
layers = (
{
layerId = "0B1DFD06-3317-40CA-B510-4969A0718C16";
paths = (
{
closed = 1;
nodes = (
"217 437 LINE",
"217 492 LINE",
"196 473 OFFCURVE",
"167 452 OFFCURVE",
"144 433 CURVE",
"144 741 LINE",
"88 741 LINE",
"88 388 LINE",
"14 329 LINE",
"14 275 LINE",
"37 293 OFFCURVE",
"65 318 OFFCURVE",
"88 336 CURVE",
"88 0 LINE",
"144 0 LINE",
"144 375 LINE"
);
}
);
width = 233;
}
);
note = lslash;
unicode = 0142;
},
{
color = 0;
glyphname = eng;
lastChange = "2017-12-19 05:00:45 +0000";
layers = (
{
layerId = "0B1DFD06-3317-40CA-B510-4969A0718C16";
paths = (
{
closed = 1;
nodes = (
"478 -215 OFFCURVE",
"529 -140 OFFCURVE",
"529 -17 CURVE SMOOTH",
"529 344 LINE SMOOTH",
"529 424 OFFCURVE",
"472 480 OFFCURVE",
"358 480 CURVE SMOOTH",
"266 480 OFFCURVE",
"195 424 OFFCURVE",
"178 373 CURVE",
"178 285 LINE",
"188 285 LINE",
"188 389 OFFCURVE",
"264 439 OFFCURVE",
"331 439 CURVE SMOOTH",
"395 439 OFFCURVE",
"435 404 OFFCURVE",
"435 332 CURVE SMOOTH",
"435 -58 LINE SMOOTH",
"435 -128 OFFCURVE",
"413 -186 OFFCURVE",
"339 -215 CURVE",
"344 -238 LINE"
);
},
{
closed = 1;
nodes = (
"255 0 LINE",
"255 25 LINE",
"240 25 LINE SMOOTH",
"205 25 OFFCURVE",
"188 37 OFFCURVE",
"188 66 CURVE SMOOTH",
"188 473 LINE",
"166 473 LINE",
"38 428 LINE",
"44 406 LINE",
"54 410 OFFCURVE",
"66 414 OFFCURVE",
"74 414 CURVE SMOOTH",
"83 414 OFFCURVE",
"94 410 OFFCURVE",
"94 393 CURVE SMOOTH",
"94 66 LINE SMOOTH",
"94 37 OFFCURVE",
"77 25 OFFCURVE",
"41 25 CURVE SMOOTH",
"22 25 LINE",
"22 0 LINE"
);
}
);
width = 609;
}
);
leftKerningGroup = m;
note = eng;
rightKerningGroup = m;
unicode = 014B;
},
{
glyphname = ohorn;
lastChange = "2017-12-19 05:01:34 +0000";
layers = (
{
layerId = "0B1DFD06-3317-40CA-B510-4969A0718C16";
paths = (
{
closed = 1;
nodes = (
"585 598 OFFCURVE",
"581 598 OFFCURVE",
"538 598 CURVE",
"538 512 OFFCURVE",
"490 464 OFFCURVE",
"449 437 CURVE",
"470 413 LINE",
"568 469 OFFCURVE",
"585 552 OFFCURVE",
"585 598 CURVE"
);
},
{
closed = 1;
nodes = (
"73 273 OFFCURVE",
"75 211 OFFCURVE",
"76 168 CURVE SMOOTH",
"82 -73 OFFCURVE",
"521 -73 OFFCURVE",
"521 168 CURVE SMOOTH",
"521 288 OFFCURVE",
"521 181 OFFCURVE",
"521 318 CURVE SMOOTH",
"521 561 OFFCURVE",
"73 559 OFFCURVE",
"73 318 CURVE SMOOTH"
);
},
{
closed = 1;
nodes = (
"118 519 OFFCURVE",
"473 519 OFFCURVE",
"476 299 CURVE SMOOTH",
"476 210 OFFCURVE",
"477 244 OFFCURVE",
"476 187 CURVE SMOOTH",
"472 -30 OFFCURVE",
"121 -33 OFFCURVE",
"121 187 CURVE SMOOTH",
"121 210 OFFCURVE",
"118 283 OFFCURVE",
"118 301 CURVE SMOOTH"
);
}
);
width = 626;
}
);
note = ohorn;
unicode = 01A1;
},
{
glyphname = oslash;
lastChange = "2017-12-19 05:02:26 +0000";
layers = (
{
layerId = "0B1DFD06-3317-40CA-B510-4969A0718C16";
paths = (
{
closed = 1;
nodes = (
"476 533 LINE",
"439 554 LINE",
"407 487 LINE",
"275 532 OFFCURVE",
"89 476 OFFCURVE",
"89 321 CURVE SMOOTH",
"89 276 OFFCURVE",
"91 214 OFFCURVE",
"92 171 CURVE SMOOTH",
"93 102 OFFCURVE",
"129 53 OFFCURVE",
"181 24 CURVE",
"151 -39 LINE",
"187 -55 LINE",
"217 7 LINE",
"348 -42 OFFCURVE",
"536 13 OFFCURVE",
"536 171 CURVE SMOOTH",
"536 321 LINE SMOOTH",
"536 391 OFFCURVE",
"499 441 OFFCURVE",
"444 470 CURVE"
);
},
{
closed = 1;
nodes = (
"137 213 OFFCURVE",
"134 286 OFFCURVE",
"134 303 CURVE SMOOTH",
"134 446 OFFCURVE",
"283 495 OFFCURVE",
"390 453 CURVE",
"198 60 LINE",
"162 88 OFFCURVE",
"137 131 OFFCURVE",
"137 190 CURVE SMOOTH"
);
},
{
closed = 1;
nodes = (
"489 47 OFFCURVE",
"338 -3 OFFCURVE",
"233 42 CURVE",
"426 433 LINE",
"464 406 OFFCURVE",
"490 362 OFFCURVE",
"492 302 CURVE SMOOTH",
"492 213 OFFCURVE",
"493 247 OFFCURVE",
"492 190 CURVE SMOOTH"
);
}
);
width = 613;
}
);
note = oslash;
unicode = 00F8;
},
{
glyphname = oe;
lastChange = "2017-12-19 05:02:32 +0000";
layers = (
{
layerId = "0B1DFD06-3317-40CA-B510-4969A0718C16";
paths = (
{
closed = 1;
nodes = (
"915 299 LINE",
"912 299 LINE",
"912 296 LINE"
);
},
{
closed = 1;
nodes = (
"555 72 OFFCURVE",
"523 111 OFFCURVE",
"523 152 CURVE SMOOTH",
"523 211 LINE",
"707 211 LINE SMOOTH",
"873 211 OFFCURVE",
"923 227 OFFCURVE",
"917 339 CURVE SMOOTH",
"913 391 OFFCURVE",
"876 439 OFFCURVE",
"834 463 CURVE SMOOTH",
"748 513 OFFCURVE",
"633 508 OFFCURVE",
"559 464 CURVE SMOOTH",
"535 450 OFFCURVE",
"510 430 OFFCURVE",
"496 407 CURVE",
"400 554 OFFCURVE",
"75 522 OFFCURVE",
"75 316 CURVE SMOOTH",
"75 272 OFFCURVE",
"76 210 OFFCURVE",
"78 167 CURVE SMOOTH",
"82 -39 OFFCURVE",
"403 -69 OFFCURVE",
"496 76 CURVE",
"512 53 OFFCURVE",
"535 35 OFFCURVE",
"559 20 CURVE SMOOTH",
"656 -36 OFFCURVE",
"857 -27 OFFCURVE",
"915 89 CURVE",
"876 105 LINE",
"835 6 OFFCURVE",
"670 3 OFFCURVE",
"594 47 CURVE SMOOTH"
);
},
{
closed = 1;
nodes = (
"523 374 OFFCURVE",
"555 413 OFFCURVE",
"594 437 CURVE SMOOTH",
"653 472 OFFCURVE",
"748 476 OFFCURVE",
"815 431 CURVE SMOOTH",
"844 413 OFFCURVE",
"873 371 OFFCURVE",
"874 335 CURVE SMOOTH",
"877 250 OFFCURVE",
"825 249 OFFCURVE",
"707 250 CURVE SMOOTH",
"523 250 LINE",
"523 332 LINE SMOOTH"
);
},
{
closed = 1;
nodes = (
"121 209 OFFCURVE",
"119 282 OFFCURVE",
"119 299 CURVE SMOOTH",
"119 516 OFFCURVE",
"472 518 OFFCURVE",
"477 301 CURVE SMOOTH",
"477 183 LINE SMOOTH",
"470 -32 OFFCURVE",
"121 -33 OFFCURVE",
"121 186 CURVE SMOOTH"
);
}
);
width = 989;
}
);
note = oe;
unicode = 0153;
},
{
glyphname = thorn;
lastChange = "2017-12-19 05:02:35 +0000";
layers = (
{
layerId = "0B1DFD06-3317-40CA-B510-4969A0718C16";
paths = (
{
closed = 1;
nodes = (
"288 499 OFFCURVE",
"183 480 OFFCURVE",
"150 430 CURVE",
"150 680 LINE",
"102 680 LINE",
"102 -209 LINE",
"150 -209 LINE",
"150 49 LINE",
"194 17 OFFCURVE",
"226 -12 OFFCURVE",
"338 -13 CURVE SMOOTH",
"459 -13 OFFCURVE",
"529 95 OFFCURVE",
"539 211 CURVE SMOOTH",
"549 342 OFFCURVE",
"480 486 OFFCURVE",
"316 496 CURVE"
);
},
{
closed = 1;
nodes = (
"485 118 OFFCURVE",
"426 27 OFFCURVE",
"328 24 CURVE SMOOTH",
"246 22 OFFCURVE",
"193 56 OFFCURVE",
"150 98 CURVE",
"150 371 LINE",
"188 433 OFFCURVE",
"273 467 OFFCURVE",
"318 463 CURVE SMOOTH",
"450 447 OFFCURVE",
"505 326 OFFCURVE",
"493 216 CURVE SMOOTH"
);
}
);
width = 626;
}
);
note = thorn;
unicode = 00FE;
},
{
glyphname = germandbls;
lastChange = "2017-12-19 05:02:42 +0000";
layers = (
{
layerId = "0B1DFD06-3317-40CA-B510-4969A0718C16";
paths = (
{
closed = 1;
nodes = (
"513 417 OFFCURVE",
"558 476 OFFCURVE",
"558 539 CURVE SMOOTH",
"558 620 OFFCURVE",
"502 679 OFFCURVE",
"416 679 CURVE SMOOTH",
"290 679 LINE SMOOTH",
"147 679 OFFCURVE",
"157 532 OFFCURVE",
"154 502 CURVE",
"155 63 LINE SMOOTH",
"157 -42 OFFCURVE",
"141 -99 OFFCURVE",
"24 -101 CURVE SMOOTH",
"0 -101 LINE",
"0 -138 LINE",
"24 -138 LINE SMOOTH",
"162 -139 OFFCURVE",
"206 -92 OFFCURVE",
"198 66 CURVE",
"198 111 OFFCURVE",
"197 326 OFFCURVE",
"197 498 CURVE SMOOTH",
"197 592 OFFCURVE",
"227 644 OFFCURVE",
"301 643 CURVE SMOOTH",
"414 643 LINE SMOOTH",
"473 644 OFFCURVE",
"516 595 OFFCURVE",
"516 536 CURVE SMOOTH",
"516 477 OFFCURVE",
"457 421 OFFCURVE",
"401 421 CURVE SMOOTH",
"329 421 LINE",
"329 381 LINE",
"401 381 LINE",
"475 375 OFFCURVE",
"588 309 OFFCURVE",
"588 194 CURVE SMOOTH",
"588 55 OFFCURVE",
"490 19 OFFCURVE",
"414 19 CURVE SMOOTH",
"292 19 LINE",
"292 -19 LINE",
"404 -19 LINE SMOOTH",
"493 -19 OFFCURVE",
"633 14 OFFCURVE",
"634 190 CURVE SMOOTH",
"637 332 OFFCURVE",
"521 384 OFFCURVE",
"452 400 CURVE"
);
}
);
width = 702;
}
);
note = uni00DF;
unicode = 00DF;
},
{
glyphname = tbar;
lastChange = "2017-12-18 09:29:31 +0000";
layers = (
{
components = (
{
name = t;
}
);
layerId = "0B1DFD06-3317-40CA-B510-4969A0718C16";
paths = (
{
closed = 1;
nodes = (
"321 260 LINE",
"321 297 LINE",
"33 297 LINE",
"33 260 LINE"
);
}
);
width = 397;
}
);
leftKerningGroup = t;
note = tbar;
rightKerningGroup = t;
unicode = 0167;
},
{
glyphname = uhorn;
lastChange = "2017-12-19 05:02:58 +0000";
layers = (
{
layerId = "0B1DFD06-3317-40CA-B510-4969A0718C16";
paths = (
{
closed = 1;
nodes = (
"601 603 OFFCURVE",
"597 603 OFFCURVE",
"554 603 CURVE",
"554 516 OFFCURVE",
"506 469 OFFCURVE",
"464 441 CURVE",
"486 417 LINE",
"584 473 OFFCURVE",
"601 557 OFFCURVE",
"601 603 CURVE"
);
},
{
closed = 1;
nodes = (
"489 492 LINE",
"443 492 LINE",
"443 190 LINE SMOOTH",
"443 83 OFFCURVE",
"371 23 OFFCURVE",
"298 20 CURVE SMOOTH",
"223 19 OFFCURVE",
"147 78 OFFCURVE",
"147 190 CURVE SMOOTH",
"147 493 LINE",
"101 493 LINE",
"101 171 LINE SMOOTH",
"101 50 OFFCURVE",
"198 -16 OFFCURVE",
"295 -16 CURVE SMOOTH",
"351 -16 OFFCURVE",
"406 6 OFFCURVE",
"443 47 CURVE",
"443 47 LINE",
"447 22 OFFCURVE",
"464 -3 OFFCURVE",
"487 -12 CURVE",
"498 -4 OFFCURVE",
"509 4 OFFCURVE",
"521 16 CURVE",
"489 40 OFFCURVE",
"489 62 OFFCURVE",
"489 91 CURVE SMOOTH"
);
}
);
width = 651;
}
);
note = uhorn;
unicode = 01B0;
},
{
glyphname = fi;
lastChange = "2017-12-19 05:03:39 +0000";
layers = (
{
layerId = "0B1DFD06-3317-40CA-B510-4969A0718C16";
paths = (
{
closed = 1;
nodes = (
"529 715 LINE",
"529 752 LINE",
"332 752 LINE SMOOTH",
"190 749 OFFCURVE",
"78 720 OFFCURVE",
"78 495 CURVE SMOOTH",
"78 406 LINE",
"0 406 LINE",
"0 368 LINE",
"78 368 LINE",
"78 -204 LINE",
"122 -204 LINE",
"124 368 LINE",
"408 368 LINE",
"408 1 LINE",
"460 1 LINE",
"460 407 LINE",
"408 407 LINE",
"408 407 LINE",
"124 407 LINE",
"124 496 LINE",
"119 679 OFFCURVE",
"223 713 OFFCURVE",
"331 715 CURVE SMOOTH"
);
}
);
width = 601;
}
);
note = fi;
unicode = FB01;
},
{
glyphname = fl;
lastChange = "2017-12-19 05:03:39 +0000";
layers = (
{
layerId = "0B1DFD06-3317-40CA-B510-4969A0718C16";
paths = (
{
closed = 1;
nodes = (
"-1 372 LINE",
"73 372 LINE",
"73 -203 LINE",
"118 -203 LINE",
"119 371 LINE",
"400 371 LINE",
"400 410 LINE",
"119 410 LINE",
"119 499 LINE",
"115 682 OFFCURVE",
"219 716 OFFCURVE",
"326 718 CURVE SMOOTH",
"486 718 LINE",
"486 1 LINE",
"532 1 LINE",
"532 755 LINE",
"328 755 LINE SMOOTH",
"186 752 OFFCURVE",
"73 723 OFFCURVE",
"73 498 CURVE SMOOTH",
"73 411 LINE",
"-1 411 LINE"
);
}
);
width = 600;
}
);
note = fl;
unicode = FB02;
},
{
glyphname = ordfeminine;
lastChange = "2017-12-19 05:03:39 +0000";
layers = (
{
layerId = "0B1DFD06-3317-40CA-B510-4969A0718C16";
paths = (
{
closed = 1;
nodes = (
"275 463 LINE",
"275 355 LINE",
"275 352 LINE",
"257 336 OFFCURVE",
"210 293 OFFCURVE",
"125 305 CURVE SMOOTH",
"108 308 OFFCURVE",
"75 324 OFFCURVE",
"75 355 CURVE SMOOTH",
"75 410 OFFCURVE",
"115 414 OFFCURVE",
"204 430 CURVE SMOOTH",
"233 434 OFFCURVE",
"252 447 OFFCURVE",
"275 464 CURVE"
);
},
{
closed = 1;
nodes = (
"312 280 OFFCURVE",
"321 286 OFFCURVE",
"328 295 CURVE",
"306 311 OFFCURVE",
"306 325 OFFCURVE",
"306 344 CURVE SMOOTH",
"306 510 LINE SMOOTH",
"306 545 OFFCURVE",
"288 577 OFFCURVE",
"259 588 CURVE",
"203 615 OFFCURVE",
"119 615 OFFCURVE",
"58 585 CURVE",
"53 551 LINE",
"108 578 OFFCURVE",
"200 595 OFFCURVE",
"243 561 CURVE",
"263 546 OFFCURVE",
"273 529 OFFCURVE",
"273 512 CURVE SMOOTH",
"273 485 OFFCURVE",
"226 464 OFFCURVE",
"204 460 CURVE",
"138 444 OFFCURVE",
"40 444 OFFCURVE",
"42 362 CURVE SMOOTH",
"43 312 OFFCURVE",
"72 285 OFFCURVE",
"118 275 CURVE SMOOTH",
"191 260 OFFCURVE",
"255 298 OFFCURVE",
"276 315 CURVE",
"279 298 OFFCURVE",
"290 282 OFFCURVE",
"306 276 CURVE"
);
}
);
width = 362;
}
);
note = ordfeminine;
unicode = 00AA;
},
{
glyphname = ordmasculine;
lastChange = "2017-12-19 05:03:39 +0000";
layers = (
{
layerId = "0B1DFD06-3317-40CA-B510-4969A0718C16";
paths = (
{
closed = 1;
nodes = (
"26 457 OFFCURVE",
"27 414 OFFCURVE",
"29 385 CURVE SMOOTH",
"32 221 OFFCURVE",
"329 221 OFFCURVE",
"329 385 CURVE SMOOTH",
"329 487 LINE SMOOTH",
"329 651 OFFCURVE",
"26 650 OFFCURVE",
"26 487 CURVE SMOOTH"
);
},
{
closed = 1;
nodes = (
"59 620 OFFCURVE",
"295 620 OFFCURVE",
"296 472 CURVE SMOOTH",
"296 411 OFFCURVE",
"298 437 OFFCURVE",
"296 398 CURVE SMOOTH",
"293 257 OFFCURVE",
"60 255 OFFCURVE",
"60 398 CURVE SMOOTH",
"60 414 OFFCURVE",
"59 460 OFFCURVE",
"59 472 CURVE SMOOTH"
);
}
);
width = 362;
}
);
note = ordmasculine;
unicode = 00BA;
},
{
color = 0;
glyphname = nmod;
lastChange = "2017-12-19 05:03:41 +0000";
layers = (
{
layerId = "0B1DFD06-3317-40CA-B510-4969A0718C16";
paths = (
{
closed = 1;
nodes = (
"410 378 LINE",
"410 397 LINE",
"392 397 LINE SMOOTH",
"368 397 OFFCURVE",
"350 405 OFFCURVE",
"350 424 CURVE SMOOTH",
"350 599 LINE SMOOTH",
"350 660 OFFCURVE",
"323 708 OFFCURVE",
"240 708 CURVE SMOOTH",
"168 708 OFFCURVE",
"128 658 OFFCURVE",
"116 601 CURVE",
"116 548 LINE",
"135 548 LINE",
"135 628 OFFCURVE",
"173 677 OFFCURVE",
"221 677 CURVE SMOOTH",
"266 677 OFFCURVE",
"281 652 OFFCURVE",
"281 595 CURVE SMOOTH",
"281 424 LINE SMOOTH",
"281 405 OFFCURVE",
"264 397 OFFCURVE",
"239 397 CURVE SMOOTH",
"229 397 LINE",
"229 378 LINE"
);
},
{
closed = 1;
nodes = (
"187 378 LINE",
"187 397 LINE",
"177 397 LINE SMOOTH",
"152 397 OFFCURVE",
"135 405 OFFCURVE",
"135 424 CURVE SMOOTH",
"135 706 LINE",
"114 706 LINE",
"17 670 LINE",
"22 652 LINE",
"30 655 OFFCURVE",
"42 659 OFFCURVE",
"50 659 CURVE SMOOTH",
"58 659 OFFCURVE",
"66 656 OFFCURVE",
"66 643 CURVE SMOOTH",
"66 424 LINE SMOOTH",
"66 405 OFFCURVE",
"48 397 OFFCURVE",
"23 397 CURVE SMOOTH",
"6 397 LINE",
"6 378 LINE"
);
}
);
width = 416;
}
);
note = uni207F;
unicode = 207F;
},
{
glyphname = Delta;
lastChange = "2017-12-19 05:18:13 +0000";
layers = (
{
layerId = "0B1DFD06-3317-40CA-B510-4969A0718C16";
paths = (
{
closed = 1;
nodes = (
"299 580 LINE",
"0 0 LINE",
"571 0 LINE"
);
},
{
closed = 1;
nodes = (
"73 46 LINE",
"301 483 LINE",
"503 46 LINE"
);
}
);
width = 571;
}
);
note = Delta;
unicode = 0394;
},
{
glyphname = Omega;
lastChange = "2017-12-19 05:17:49 +0000";
layers = (
{
layerId = "0B1DFD06-3317-40CA-B510-4969A0718C16";
paths = (
{
closed = 1;
nodes = (
"613 40 LINE",
"443 40 LINE",
"443 131 LINE",
"545 197 OFFCURVE",
"595 283 OFFCURVE",
"597 390 CURVE",
"585 562 OFFCURVE",
"498 651 OFFCURVE",
"332 659 CURVE",
"167 646 OFFCURVE",
"79 557 OFFCURVE",
"66 390 CURVE",
"68 285 OFFCURVE",
"119 198 OFFCURVE",
"223 131 CURVE",
"223 37 LINE",
"52 37 LINE",
"52 0 LINE",
"276 0 LINE",
"276 150 LINE",
"174 206 OFFCURVE",
"119 286 OFFCURVE",
"115 390 CURVE",
"128 523 OFFCURVE",
"200 600 OFFCURVE",
"332 615 CURVE",
"467 610 OFFCURVE",
"539 535 OFFCURVE",
"548 390 CURVE SMOOTH",
"552 293 OFFCURVE",
"499 211 OFFCURVE",
"390 144 CURVE",
"390 0 LINE",
"613 0 LINE"
);
}
);
width = 665;
}
);
note = Omega;
unicode = 03A9;
},
{
glyphname = mu;
lastChange = "2017-12-19 05:18:02 +0000";
layers = (
{
layerId = "0B1DFD06-3317-40CA-B510-4969A0718C16";
paths = (
{
closed = 1;
nodes = (
"502 0 LINE",
"500 40 OFFCURVE",
"499 82 OFFCURVE",
"499 122 CURVE SMOOTH",
"499 499 LINE",
"459 499 LINE",
"459 196 LINE SMOOTH",
"459 115 OFFCURVE",
"375 32 OFFCURVE",
"289 32 CURVE SMOOTH",
"177 32 OFFCURVE",
"139 122 OFFCURVE",
"139 214 CURVE SMOOTH",
"139 499 LINE",
"101 499 LINE",
"101 -242 LINE",
"139 -242 LINE",
"139 70 LINE",
"184 1 OFFCURVE",
"244 -4 OFFCURVE",
"276 -4 CURVE SMOOTH",
"364 -4 OFFCURVE",
"430 47 OFFCURVE",
"463 96 CURVE",
"466 0 LINE"
);
}
);
width = 603;
}
);
note = mu;
unicode = 03BC;
},
{
color = 0;
glyphname = pi;
lastChange = "2017-12-19 09:37:18 +0000";
layers = (
{
layerId = "0B1DFD06-3317-40CA-B510-4969A0718C16";
paths = (
{
closed = 1;
nodes = (
"577 -10 OFFCURVE",
"603 -4 OFFCURVE",
"633 13 CURVE",
"633 54 LINE",
"618 44 OFFCURVE",
"598 36 OFFCURVE",
"581 36 CURVE SMOOTH",
"555 36 OFFCURVE",
"528 49 OFFCURVE",
"528 100 CURVE SMOOTH",
"528 431 LINE",
"647 431 LINE",
"647 470 LINE",
"19 470 LINE",
"19 431 LINE",
"136 431 LINE",
"136 0 LINE",
"231 0 LINE",
"231 431 LINE",
"433 431 LINE",
"433 96 LINE SMOOTH",
"433 32 OFFCURVE",
"466 -10 OFFCURVE",
"540 -10 CURVE SMOOTH"
);
}
);
width = 664;
}
);
note = pi;
unicode = 03C0;
},
{
color = 4;
glyphname = "koKai-thai";
lastChange = "2018-01-29 13:19:30 +0000";
layers = (
{
background = {
paths = (
{
closed = 1;
nodes = (
"182 478 LINE",
"164 465 LINE SMOOTH",
"119 433 OFFCURVE",
"102 387 OFFCURVE",
"102 310 CURVE SMOOTH",
"102 0 LINE",
"132 0 LINE",
"132 286 LINE SMOOTH",
"132 373 OFFCURVE",
"142 415 OFFCURVE",
"184 442 CURVE SMOOTH",
"198 451 LINE",
"198 485 LINE",
"124 550 LINE",
"109 537 LINE",
"151 537 OFFCURVE",
"235 542 OFFCURVE",
"270 542 CURVE SMOOTH",
"432 542 OFFCURVE",
"483 469 OFFCURVE",
"483 320 CURVE SMOOTH",
"483 0 LINE",
"513 0 LINE",
"513 320 LINE SMOOTH",
"513 434 OFFCURVE",
"484 566 OFFCURVE",
"279 566 CURVE SMOOTH",
"96 566 LINE",
"96 538 LINE",
"183 458 LINE"
);
}
);
};
layerId = "0B1DFD06-3317-40CA-B510-4969A0718C16";
paths = (
{
closed = 1;
nodes = (
"132 0 LINE",
"132 286 LINE SMOOTH",
"132 373 OFFCURVE",
"142 415 OFFCURVE",
"184 442 CURVE SMOOTH",
"198 451 LINE",
"198 485 LINE",
"124 550 LINE",
"109 537 LINE",
"151 537 OFFCURVE",
"235 542 OFFCURVE",
"270 542 CURVE SMOOTH",
"432 542 OFFCURVE",
"483 469 OFFCURVE",
"483 320 CURVE SMOOTH",
"483 0 LINE",
"513 0 LINE",
"513 320 LINE SMOOTH",
"513 438 OFFCURVE",
"485 566 OFFCURVE",
"279 566 CURVE SMOOTH",
"96 566 LINE",
"96 538 LINE",
"183 458 LINE",
"182 478 LINE",
"164 465 LINE SMOOTH",
"119 433 OFFCURVE",
"102 387 OFFCURVE",
"102 310 CURVE SMOOTH",
"102 0 LINE"
);
}
);
width = 613;
}
);
note = uni0E01;
unicode = 0E01;
},
{
color = 4;
glyphname = "thoThung-thai";
lastChange = "2018-01-30 04:01:25 +0000";
layers = (
{
background = {
paths = (
{
closed = 1;
nodes = (
"99 572 LINE",
"99 531 LINE",
"178 462 LINE",
"114 418 OFFCURVE",
"102 334 OFFCURVE",
"104 259 CURVE SMOOTH",
"104 106 LINE",
"105 108 LINE",
"99 56 OFFCURVE",
"118 10 OFFCURVE",
"154 1 CURVE",
"162 -1 OFFCURVE",
"173 -1 OFFCURVE",
"183 1 CURVE SMOOTH",
"214 10 OFFCURVE",
"243 45 OFFCURVE",
"256 91 CURVE SMOOTH",
"272 151 OFFCURVE",
"252 207 OFFCURVE",
"211 219 CURVE",
"203 221 OFFCURVE",
"193 221 OFFCURVE",
"183 219 CURVE",
"170 216 OFFCURVE",
"158 207 OFFCURVE",
"147 196 CURVE",
"147 299 LINE SMOOTH",
"147 345 OFFCURVE",
"158 383 OFFCURVE",
"187 414 CURVE",
"193 420 OFFCURVE",
"203 426 OFFCURVE",
"210 431 CURVE",
"210 476 LINE SMOOTH",
"210 477 OFFCURVE",
"151 526 OFFCURVE",
"145 532 CURVE",
"276 535 OFFCURVE",
"479 580 OFFCURVE",
"475 326 CURVE SMOOTH",
"479 3 LINE",
"523 3 LINE",
"523 324 LINE SMOOTH",
"523 580 OFFCURVE",
"374 574 OFFCURVE",
"203 572 CURVE SMOOTH"
);
},
{
closed = 1;
nodes = (
"190 196 OFFCURVE",
"197 197 OFFCURVE",
"204 194 CURVE",
"230 187 OFFCURVE",
"232 132 OFFCURVE",
"223 101 CURVE SMOOTH",
"216 76 OFFCURVE",
"200 43 OFFCURVE",
"183 30 CURVE",
"175 26 OFFCURVE",
"168 23 OFFCURVE",
"161 26 CURVE",
"134 33 OFFCURVE",
"134 89 OFFCURVE",
"142 121 CURVE SMOOTH",
"150 145 OFFCURVE",
"164 178 OFFCURVE",
"183 190 CURVE"
);
}
);
};
layerId = "0B1DFD06-3317-40CA-B510-4969A0718C16";
paths = (
{
closed = 1;
nodes = (
"132 286 LINE SMOOTH",
"132 373 OFFCURVE",
"142 415 OFFCURVE",
"184 442 CURVE SMOOTH",
"198 451 LINE",
"198 485 LINE",
"124 550 LINE",
"109 537 LINE",
"151 537 OFFCURVE",
"235 542 OFFCURVE",
"270 542 CURVE SMOOTH",
"432 542 OFFCURVE",
"483 469 OFFCURVE",
"483 320 CURVE SMOOTH",
"483 0 LINE",
"513 0 LINE",
"513 320 LINE SMOOTH",
"513 438 OFFCURVE",
"485 566 OFFCURVE",
"279 566 CURVE SMOOTH",
"96 566 LINE",
"96 538 LINE",
"183 458 LINE",
"182 478 LINE",
"164 465 LINE SMOOTH",
"119 433 OFFCURVE",
"102 387 OFFCURVE",
"102 310 CURVE SMOOTH",
"102 71 LINE SMOOTH",
"102 27 OFFCURVE",
"121 -10 OFFCURVE",
"165 -10 CURVE SMOOTH",
"221 -10 OFFCURVE",
"255 67 OFFCURVE",
"255 126 CURVE SMOOTH",
"255 167 OFFCURVE",
"241 210 OFFCURVE",
"194 210 CURVE SMOOTH",
"166 210 OFFCURVE",
"146 194 OFFCURVE",
"132 173 CURVE"
);
},
{
closed = 1;
nodes = (
"231 84 OFFCURVE",
"204 9 OFFCURVE",
"164 9 CURVE SMOOTH",
"142 9 OFFCURVE",
"130 36 OFFCURVE",
"130 71 CURVE SMOOTH",
"130 124 OFFCURVE",
"156 191 OFFCURVE",
"195 191 CURVE SMOOTH",
"216 191 OFFCURVE",
"231 164 OFFCURVE",
"231 128 CURVE SMOOTH"
);
}
);
width = 617;
}
);
note = uni0E16;
unicode = 0E16;
},
{
color = 3;
glyphname = "phoSamphao-thai";
lastChange = "2018-01-29 09:52:07 +0000";
layers = (
{
layerId = "0B1DFD06-3317-40CA-B510-4969A0718C16";
paths = (
{
closed = 1;
nodes = (
"114 571 LINE",
"114 529 LINE",
"184 467 LINE",
"184 193 LINE",
"173 204 OFFCURVE",
"161 211 OFFCURVE",
"148 216 CURVE",
"138 219 OFFCURVE",
"128 219 OFFCURVE",
"118 216 CURVE SMOOTH",
"78 206 OFFCURVE",
"59 147 OFFCURVE",
"75 88 CURVE SMOOTH",
"86 42 OFFCURVE",
"116 9 OFFCURVE",
"148 -1 CURVE SMOOTH",
"158 -4 OFFCURVE",
"167 -4 OFFCURVE",
"177 -1 CURVE SMOOTH",
"203 6 OFFCURVE",
"221 33 OFFCURVE",
"226 68 CURVE",
"226 68 LINE",
"226 69 LINE",
"227 81 OFFCURVE",
"227 92 OFFCURVE",
"226 105 CURVE",
"226 473 LINE SMOOTH",
"226 475 OFFCURVE",
"167 525 OFFCURVE",
"160 531 CURVE",
"290 535 OFFCURVE",
"515 578 OFFCURVE",
"510 325 CURVE SMOOTH",
"513 0 LINE",
"559 0 LINE",
"559 322 LINE SMOOTH",
"559 578 OFFCURVE",
"388 572 OFFCURVE",
"219 571 CURVE SMOOTH"
);
},
{
closed = 1;
nodes = (
"162 20 OFFCURVE",
"155 23 OFFCURVE",
"148 27 CURVE",
"129 40 OFFCURVE",
"114 73 OFFCURVE",
"108 98 CURVE",
"99 128 OFFCURVE",
"101 184 OFFCURVE",
"127 193 CURVE",
"134 194 OFFCURVE",
"141 193 OFFCURVE",
"148 187 CURVE SMOOTH",
"165 174 OFFCURVE",
"181 141 OFFCURVE",
"187 118 CURVE SMOOTH",
"196 86 OFFCURVE",
"196 32 OFFCURVE",
"170 23 CURVE"
);
}
);
width = 651;
}
);
note = uni0E20;
unicode = 0E20;
},
{
color = 4;
glyphname = "ru-thai";
lastChange = "2018-01-30 01:13:27 +0000";
layers = (
{
background = {
paths = (
{
closed = 1;
nodes = (
"96 574 LINE",
"96 533 LINE",
"175 462 LINE",
"111 420 OFFCURVE",
"99 335 OFFCURVE",
"101 262 CURVE SMOOTH",
"101 101 LINE",
"102 102 LINE",
"98 55 OFFCURVE",
"118 12 OFFCURVE",
"151 4 CURVE",
"160 1 OFFCURVE",
"170 1 OFFCURVE",
"180 4 CURVE SMOOTH",
"211 13 OFFCURVE",
"240 47 OFFCURVE",
"252 92 CURVE SMOOTH",
"267 152 OFFCURVE",
"250 211 OFFCURVE",
"209 221 CURVE",
"200 224 OFFCURVE",
"190 224 OFFCURVE",
"180 221 CURVE",
"167 217 OFFCURVE",
"154 210 OFFCURVE",
"144 198 CURVE",
"144 302 LINE SMOOTH",
"144 348 OFFCURVE",
"157 384 OFFCURVE",
"184 414 CURVE",
"190 421 OFFCURVE",
"201 427 OFFCURVE",
"207 431 CURVE",
"209 476 LINE SMOOTH",
"209 479 OFFCURVE",
"148 529 OFFCURVE",
"142 535 CURVE",
"272 536 OFFCURVE",
"476 581 OFFCURVE",
"472 328 CURVE SMOOTH",
"476 -243 LINE",
"521 -243 LINE",
"521 325 LINE SMOOTH",
"521 581 OFFCURVE",
"370 575 OFFCURVE",
"200 574 CURVE SMOOTH"
);
},
{
closed = 1;
nodes = (
"187 198 OFFCURVE",
"194 200 OFFCURVE",
"201 197 CURVE",
"227 190 OFFCURVE",
"229 134 OFFCURVE",
"220 102 CURVE SMOOTH",
"213 78 OFFCURVE",
"198 46 OFFCURVE",
"180 33 CURVE",
"173 29 OFFCURVE",
"165 26 OFFCURVE",
"158 29 CURVE",
"132 37 OFFCURVE",
"131 91 OFFCURVE",
"139 122 CURVE SMOOTH",
"147 147 OFFCURVE",
"162 180 OFFCURVE",
"180 193 CURVE SMOOTH"
);
}
);
};
layerId = "0B1DFD06-3317-40CA-B510-4969A0718C16";
paths = (
{
closed = 1;
nodes = (
"132 286 LINE SMOOTH",
"132 373 OFFCURVE",
"142 415 OFFCURVE",
"184 442 CURVE SMOOTH",
"198 451 LINE",
"198 485 LINE",
"124 550 LINE",
"109 537 LINE",
"151 537 OFFCURVE",
"235 542 OFFCURVE",
"270 542 CURVE SMOOTH",
"432 542 OFFCURVE",
"483 469 OFFCURVE",
"483 320 CURVE SMOOTH",
"483 -250 LINE",
"513 -250 LINE",
"513 320 LINE SMOOTH",
"513 438 OFFCURVE",
"485 566 OFFCURVE",
"279 566 CURVE SMOOTH",
"96 566 LINE",
"96 538 LINE",
"183 458 LINE",
"182 478 LINE",
"164 465 LINE SMOOTH",
"119 433 OFFCURVE",
"102 387 OFFCURVE",
"102 310 CURVE SMOOTH",
"102 71 LINE SMOOTH",
"102 27 OFFCURVE",
"121 -10 OFFCURVE",
"165 -10 CURVE SMOOTH",
"221 -10 OFFCURVE",
"255 67 OFFCURVE",
"255 126 CURVE SMOOTH",
"255 167 OFFCURVE",
"241 210 OFFCURVE",
"194 210 CURVE SMOOTH",
"166 210 OFFCURVE",
"146 194 OFFCURVE",
"132 173 CURVE"
);
},
{
closed = 1;
nodes = (
"231 84 OFFCURVE",
"204 9 OFFCURVE",
"164 9 CURVE SMOOTH",
"142 9 OFFCURVE",
"130 36 OFFCURVE",
"130 71 CURVE SMOOTH",
"130 124 OFFCURVE",
"156 191 OFFCURVE",
"195 191 CURVE SMOOTH",
"216 191 OFFCURVE",
"231 164 OFFCURVE",
"231 128 CURVE SMOOTH"
);
}
);
width = 613;
}
);
note = uni0E24;
unicode = 0E24;
},
{
color = 4;
glyphname = "ru-thai.short";
lastChange = "2018-01-30 01:16:06 +0000";
layers = (
{
layerId = "0B1DFD06-3317-40CA-B510-4969A0718C16";
paths = (
{
closed = 1;
nodes = (
"132 286 LINE SMOOTH",
"132 373 OFFCURVE",
"142 415 OFFCURVE",
"184 442 CURVE SMOOTH",
"198 451 LINE",
"198 485 LINE",
"124 550 LINE",
"109 537 LINE",
"151 537 OFFCURVE",
"235 542 OFFCURVE",
"270 542 CURVE SMOOTH",
"432 542 OFFCURVE",
"483 469 OFFCURVE",
"483 320 CURVE SMOOTH",
"483 -140 LINE",
"513 -140 LINE",
"513 320 LINE SMOOTH",
"513 438 OFFCURVE",
"485 566 OFFCURVE",
"279 566 CURVE SMOOTH",
"96 566 LINE",
"96 538 LINE",
"183 458 LINE",
"182 478 LINE",
"164 465 LINE SMOOTH",
"119 433 OFFCURVE",
"102 387 OFFCURVE",
"102 310 CURVE SMOOTH",
"102 71 LINE SMOOTH",
"102 27 OFFCURVE",
"121 -10 OFFCURVE",
"165 -10 CURVE SMOOTH",
"221 -10 OFFCURVE",
"255 67 OFFCURVE",
"255 126 CURVE SMOOTH",
"255 167 OFFCURVE",
"241 210 OFFCURVE",
"194 210 CURVE SMOOTH",
"166 210 OFFCURVE",
"146 194 OFFCURVE",
"132 173 CURVE"
);
},
{
closed = 1;
nodes = (
"231 84 OFFCURVE",
"204 9 OFFCURVE",
"164 9 CURVE SMOOTH",
"142 9 OFFCURVE",
"130 36 OFFCURVE",
"130 71 CURVE SMOOTH",
"130 124 OFFCURVE",
"156 191 OFFCURVE",
"195 191 CURVE SMOOTH",
"216 191 OFFCURVE",
"231 164 OFFCURVE",
"231 128 CURVE SMOOTH"
);
}
);
width = 585;
}
);
note = "ru-thai.short";
},
{
color = 4;
glyphname = "lu-thai";
lastChange = "2018-01-30 01:20:57 +0000";
layers = (
{
background = {
paths = (
{
closed = 1;
nodes = (
"115 571 LINE",
"115 529 LINE",
"186 467 LINE",
"186 193 LINE",
"174 204 OFFCURVE",
"162 211 OFFCURVE",
"150 216 CURVE",
"139 219 OFFCURVE",
"129 219 OFFCURVE",
"119 216 CURVE SMOOTH",
"79 206 OFFCURVE",
"60 147 OFFCURVE",
"76 88 CURVE SMOOTH",
"88 42 OFFCURVE",
"118 9 OFFCURVE",
"150 -1 CURVE SMOOTH",
"160 -4 OFFCURVE",
"168 -4 OFFCURVE",
"178 -1 CURVE SMOOTH",
"204 6 OFFCURVE",
"223 33 OFFCURVE",
"227 68 CURVE",
"227 68 LINE",
"227 69 LINE",
"229 81 OFFCURVE",
"229 92 OFFCURVE",
"227 105 CURVE",
"227 473 LINE SMOOTH",
"227 475 OFFCURVE",
"168 525 OFFCURVE",
"161 531 CURVE",
"292 535 OFFCURVE",
"516 578 OFFCURVE",
"512 325 CURVE SMOOTH",
"515 -243 LINE",
"561 -243 LINE",
"561 322 LINE SMOOTH",
"561 578 OFFCURVE",
"390 572 OFFCURVE",
"220 571 CURVE SMOOTH"
);
},
{
closed = 1;
nodes = (
"164 20 OFFCURVE",
"157 23 OFFCURVE",
"150 27 CURVE",
"131 40 OFFCURVE",
"115 73 OFFCURVE",
"109 98 CURVE",
"101 128 OFFCURVE",
"102 184 OFFCURVE",
"128 193 CURVE",
"135 194 OFFCURVE",
"142 193 OFFCURVE",
"150 187 CURVE SMOOTH",
"167 174 OFFCURVE",
"183 141 OFFCURVE",
"188 118 CURVE SMOOTH",
"197 86 OFFCURVE",
"197 32 OFFCURVE",
"171 23 CURVE"
);
}
);
};
layerId = "0B1DFD06-3317-40CA-B510-4969A0718C16";
paths = (
{
closed = 1;
nodes = (
"218 485 LINE",
"144 550 LINE",
"129 537 LINE",
"171 537 OFFCURVE",
"255 542 OFFCURVE",
"290 542 CURVE SMOOTH",
"467 542 OFFCURVE",
"523 469 OFFCURVE",
"523 320 CURVE SMOOTH",
"523 -250 LINE",
"553 -250 LINE",
"553 320 LINE SMOOTH",
"553 438 OFFCURVE",
"523 566 OFFCURVE",
"299 566 CURVE SMOOTH",
"116 566 LINE",
"116 538 LINE",
"203 458 LINE",
"188 488 LINE",
"188 183 LINE",
"174 204 OFFCURVE",
"154 220 OFFCURVE",
"126 220 CURVE SMOOTH",
"79 220 OFFCURVE",
"65 177 OFFCURVE",
"65 136 CURVE SMOOTH",
"65 77 OFFCURVE",
"99 0 OFFCURVE",
"155 0 CURVE SMOOTH",
"199 0 OFFCURVE",
"218 37 OFFCURVE",
"218 81 CURVE SMOOTH"
);
},
{
closed = 1;
nodes = (
"89 174 OFFCURVE",
"104 201 OFFCURVE",
"125 201 CURVE SMOOTH",
"164 201 OFFCURVE",
"190 134 OFFCURVE",
"190 81 CURVE SMOOTH",
"190 46 OFFCURVE",
"177 19 OFFCURVE",
"156 19 CURVE SMOOTH",
"116 19 OFFCURVE",
"89 94 OFFCURVE",
"89 138 CURVE SMOOTH"
);
}
);
width = 650;
}
);
note = uni0E26;
unicode = 0E26;
},
{
color = 4;
glyphname = "lu-thai.short";
lastChange = "2018-01-30 01:22:01 +0000";
layers = (
{
layerId = "0B1DFD06-3317-40CA-B510-4969A0718C16";
paths = (
{
closed = 1;
nodes = (
"218 485 LINE",
"144 550 LINE",
"129 537 LINE",
"171 537 OFFCURVE",
"255 542 OFFCURVE",
"290 542 CURVE SMOOTH",
"467 542 OFFCURVE",
"523 469 OFFCURVE",
"523 320 CURVE SMOOTH",
"523 -140 LINE",
"553 -140 LINE",
"553 320 LINE SMOOTH",
"553 438 OFFCURVE",
"523 566 OFFCURVE",
"299 566 CURVE SMOOTH",
"116 566 LINE",
"116 538 LINE",
"203 458 LINE",
"188 488 LINE",
"188 183 LINE",
"174 204 OFFCURVE",
"154 220 OFFCURVE",
"126 220 CURVE SMOOTH",
"79 220 OFFCURVE",
"65 177 OFFCURVE",
"65 136 CURVE SMOOTH",
"65 77 OFFCURVE",
"99 0 OFFCURVE",
"155 0 CURVE SMOOTH",
"199 0 OFFCURVE",
"218 37 OFFCURVE",
"218 81 CURVE SMOOTH"
);
},
{
closed = 1;
nodes = (
"89 174 OFFCURVE",
"104 201 OFFCURVE",
"125 201 CURVE SMOOTH",
"164 201 OFFCURVE",
"190 134 OFFCURVE",
"190 81 CURVE SMOOTH",
"190 46 OFFCURVE",
"177 19 OFFCURVE",
"156 19 CURVE SMOOTH",
"116 19 OFFCURVE",
"89 94 OFFCURVE",
"89 138 CURVE SMOOTH"
);
}
);
width = 628;
}
);
note = "lu-thai.short";
},
{
color = 3;
glyphname = "doChada-thai";
lastChange = "2018-01-29 09:52:07 +0000";
layers = (
{
layerId = "0B1DFD06-3317-40CA-B510-4969A0718C16";
paths = (
{
closed = 1;
nodes = (
"131 572 LINE",
"131 532 LINE",
"201 470 LINE",
"200 196 LINE",
"188 207 OFFCURVE",
"175 214 OFFCURVE",
"162 219 CURVE SMOOTH",
"154 221 OFFCURVE",
"144 221 OFFCURVE",
"134 220 CURVE",
"93 209 OFFCURVE",
"73 151 OFFCURVE",
"89 91 CURVE SMOOTH",
"102 45 OFFCURVE",
"132 10 OFFCURVE",
"162 1 CURVE SMOOTH",
"173 -1 OFFCURVE",
"183 -1 OFFCURVE",
"193 1 CURVE SMOOTH",
"226 10 OFFCURVE",
"244 52 OFFCURVE",
"240 99 CURVE",
"243 96 LINE",
"242 476 LINE",
"242 477 OFFCURVE",
"183 528 OFFCURVE",
"177 533 CURVE",
"308 538 OFFCURVE",
"510 581 OFFCURVE",
"506 325 CURVE SMOOTH",
"509 -188 LINE",
"480 -162 OFFCURVE",
"444 -142 OFFCURVE",
"407 -127 CURVE",
"416 -104 OFFCURVE",
"421 -79 OFFCURVE",
"424 -53 CURVE",
"384 -53 LINE",
"383 -73 OFFCURVE",
"380 -95 OFFCURVE",
"374 -115 CURVE",
"335 -104 OFFCURVE",
"296 -98 OFFCURVE",
"259 -101 CURVE",
"230 -101 OFFCURVE",
"204 -108 OFFCURVE",
"186 -119 CURVE",
"184 -119 OFFCURVE",
"184 -119 OFFCURVE",
"184 -119 CURVE SMOOTH",
"184 -119 LINE",
"164 -131 OFFCURVE",
"152 -147 OFFCURVE",
"152 -164 CURVE SMOOTH",
"152 -200 OFFCURVE",
"201 -229 OFFCURVE",
"260 -229 CURVE SMOOTH",
"265 -229 OFFCURVE",
"267 -229 OFFCURVE",
"272 -227 CURVE",
"288 -226 OFFCURVE",
"302 -223 OFFCURVE",
"315 -219 CURVE",
"316 -219 OFFCURVE",
"318 -219 OFFCURVE",
"322 -217 CURVE",
"352 -204 OFFCURVE",
"375 -184 OFFCURVE",
"391 -160 CURVE",
"443 -181 OFFCURVE",
"490 -211 OFFCURVE",
"509 -239 CURVE",
"509 -243 LINE",
"554 -243 LINE",
"555 324 LINE SMOOTH",
"555 581 OFFCURVE",
"404 574 OFFCURVE",
"234 574 CURVE SMOOTH"
);
},
{
closed = 1;
nodes = (
"177 23 OFFCURVE",
"170 24 OFFCURVE",
"162 30 CURVE SMOOTH",
"145 43 OFFCURVE",
"129 76 OFFCURVE",
"124 99 CURVE",
"114 132 OFFCURVE",
"115 187 OFFCURVE",
"142 196 CURVE",
"150 198 OFFCURVE",
"157 196 OFFCURVE",
"162 191 CURVE",
"181 178 OFFCURVE",
"197 145 OFFCURVE",
"203 121 CURVE SMOOTH",
"211 88 OFFCURVE",
"211 33 OFFCURVE",
"186 24 CURVE"
);
},
{
closed = 1;
nodes = (
"260 -201 LINE SMOOTH",
"209 -201 OFFCURVE",
"184 -186 OFFCURVE",
"184 -164 CURVE SMOOTH",
"184 -147 OFFCURVE",
"209 -132 OFFCURVE",
"240 -128 CURVE",
"272 -125 OFFCURVE",
"313 -132 OFFCURVE",
"354 -145 CURVE",
"355 -147 OFFCURVE",
"357 -148 OFFCURVE",
"357 -150 CURVE",
"357 -150 OFFCURVE",
"357 -150 OFFCURVE",
"357 -150 CURVE",
"354 -154 OFFCURVE",
"351 -158 OFFCURVE",
"348 -162 CURVE",
"334 -177 OFFCURVE",
"305 -197 OFFCURVE",
"272 -201 CURVE"
);
}
);
width = 644;
}
);
note = uni0E0E;
unicode = 0E0E;
},
{
color = 3;
glyphname = "doChada-thai.short";
lastChange = "2018-01-29 11:09:55 +0000";
layers = (
{
layerId = "0B1DFD06-3317-40CA-B510-4969A0718C16";
paths = (
{
closed = 1;
nodes = (
"119 572 LINE",
"119 532 LINE",
"190 470 LINE",
"188 196 LINE",
"177 207 OFFCURVE",
"164 214 OFFCURVE",
"151 219 CURVE SMOOTH",
"146 220 OFFCURVE",
"140 221 OFFCURVE",
"134 221 CURVE SMOOTH",
"130 221 OFFCURVE",
"126 220 OFFCURVE",
"122 220 CURVE",
"91 212 OFFCURVE",
"72 176 OFFCURVE",
"72 132 CURVE SMOOTH",
"72 119 OFFCURVE",
"74 105 OFFCURVE",
"78 91 CURVE SMOOTH",
"93 37 OFFCURVE",
"132 -1 OFFCURVE",
"166 -1 CURVE SMOOTH",
"171 -1 OFFCURVE",
"176 0 OFFCURVE",
"181 1 CURVE SMOOTH",
"214 10 OFFCURVE",
"233 52 OFFCURVE",
"229 99 CURVE",
"232 96 LINE",
"230 476 LINE",
"230 477 OFFCURVE",
"171 528 OFFCURVE",
"165 533 CURVE",
"202 534 OFFCURVE",
"244 539 OFFCURVE",
"285 539 CURVE SMOOTH",
"393 539 OFFCURVE",
"498 510 OFFCURVE",
"495 325 CURVE SMOOTH",
"498 -188 LINE",
"469 -162 OFFCURVE",
"433 -142 OFFCURVE",
"395 -127 CURVE",
"404 -104 OFFCURVE",
"410 -79 OFFCURVE",
"413 -53 CURVE",
"372 -53 LINE",
"371 -73 OFFCURVE",
"368 -95 OFFCURVE",
"362 -115 CURVE",
"331 -106 OFFCURVE",
"298 -100 OFFCURVE",
"267 -100 CURVE SMOOTH",
"260 -100 OFFCURVE",
"254 -100 OFFCURVE",
"247 -101 CURVE",
"219 -101 OFFCURVE",
"193 -108 OFFCURVE",
"174 -119 CURVE",
"173 -119 OFFCURVE",
"173 -119 OFFCURVE",
"173 -119 CURVE SMOOTH",
"173 -119 LINE",
"152 -131 OFFCURVE",
"141 -147 OFFCURVE",
"141 -164 CURVE SMOOTH",
"141 -200 OFFCURVE",
"190 -229 OFFCURVE",
"249 -229 CURVE SMOOTH",
"253 -229 OFFCURVE",
"256 -229 OFFCURVE",
"260 -227 CURVE",
"276 -226 OFFCURVE",
"290 -223 OFFCURVE",
"303 -219 CURVE",
"305 -219 OFFCURVE",
"306 -219 OFFCURVE",
"311 -217 CURVE",
"341 -204 OFFCURVE",
"364 -184 OFFCURVE",
"380 -160 CURVE",
"431 -181 OFFCURVE",
"479 -211 OFFCURVE",
"498 -239 CURVE",
"498 -243 LINE",
"542 -243 LINE",
"544 324 LINE SMOOTH",
"544 581 OFFCURVE",
"393 574 OFFCURVE",
"223 574 CURVE SMOOTH"
);
},
{
closed = 1;
nodes = (
"165 23 OFFCURVE",
"158 24 OFFCURVE",
"151 30 CURVE SMOOTH",
"134 43 OFFCURVE",
"118 76 OFFCURVE",
"112 99 CURVE",
"108 111 OFFCURVE",
"106 125 OFFCURVE",
"106 139 CURVE SMOOTH",
"106 165 OFFCURVE",
"113 190 OFFCURVE",
"131 196 CURVE",
"138 198 OFFCURVE",
"145 196 OFFCURVE",
"151 191 CURVE",
"170 178 OFFCURVE",
"186 145 OFFCURVE",
"191 121 CURVE SMOOTH",
"194 109 OFFCURVE",
"196 94 OFFCURVE",
"196 79 CURVE SMOOTH",
"196 54 OFFCURVE",
"190 30 OFFCURVE",
"174 24 CURVE"
);
},
{
closed = 1;
nodes = (
"249 -201 LINE SMOOTH",
"197 -201 OFFCURVE",
"173 -186 OFFCURVE",
"173 -164 CURVE SMOOTH",
"173 -147 OFFCURVE",
"197 -132 OFFCURVE",
"229 -128 CURVE",
"234 -128 OFFCURVE",
"239 -127 OFFCURVE",
"244 -127 CURVE SMOOTH",
"273 -127 OFFCURVE",
"308 -134 OFFCURVE",
"342 -145 CURVE",
"344 -147 OFFCURVE",
"345 -148 OFFCURVE",
"345 -150 CURVE",
"345 -150 OFFCURVE",
"345 -150 OFFCURVE",
"345 -150 CURVE",
"342 -154 OFFCURVE",
"339 -158 OFFCURVE",
"336 -162 CURVE",
"322 -177 OFFCURVE",
"293 -197 OFFCURVE",
"260 -201 CURVE"
);
}
);
width = 633;
}
);
note = "doChada-thai.short";
},
{
color = 3;
glyphname = "toPatak-thai";
lastChange = "2018-01-29 09:52:07 +0000";
layers = (
{
layerId = "0B1DFD06-3317-40CA-B510-4969A0718C16";
paths = (
{
closed = 1;
nodes = (
"131 571 LINE",
"131 531 LINE",
"196 469 LINE",
"196 190 LINE",
"183 206 OFFCURVE",
"173 213 OFFCURVE",
"157 217 CURVE",
"148 220 OFFCURVE",
"138 220 OFFCURVE",
"128 219 CURVE",
"89 207 OFFCURVE",
"69 150 OFFCURVE",
"85 91 CURVE SMOOTH",
"96 45 OFFCURVE",
"127 10 OFFCURVE",
"157 1 CURVE SMOOTH",
"167 -1 OFFCURVE",
"177 -1 OFFCURVE",
"187 1 CURVE",
"223 10 OFFCURVE",
"242 56 OFFCURVE",
"234 108 CURVE",
"234 108 LINE",
"233 475 LINE",
"233 476 OFFCURVE",
"183 526 OFFCURVE",
"177 532 CURVE",
"308 536 OFFCURVE",
"509 580 OFFCURVE",
"505 325 CURVE SMOOTH",
"509 -191 LINE",
"427 -82 LINE",
"348 -191 LINE",
"348 -190 OFFCURVE",
"347 -188 OFFCURVE",
"345 -186 CURVE",
"336 -175 OFFCURVE",
"326 -165 OFFCURVE",
"318 -157 CURVE",
"335 -128 OFFCURVE",
"344 -92 OFFCURVE",
"349 -55 CURVE",
"309 -55 LINE",
"306 -81 OFFCURVE",
"302 -111 OFFCURVE",
"290 -135 CURVE",
"282 -129 OFFCURVE",
"273 -124 OFFCURVE",
"265 -119 CURVE",
"249 -109 OFFCURVE",
"230 -102 OFFCURVE",
"207 -101 CURVE",
"200 -101 LINE SMOOTH",
"198 -101 OFFCURVE",
"196 -102 OFFCURVE",
"194 -102 CURVE SMOOTH",
"186 -102 OFFCURVE",
"177 -104 OFFCURVE",
"168 -105 CURVE",
"168 -105 OFFCURVE",
"168 -105 OFFCURVE",
"167 -105 CURVE SMOOTH",
"167 -105 OFFCURVE",
"167 -105 OFFCURVE",
"167 -105 CURVE",
"158 -108 OFFCURVE",
"150 -111 OFFCURVE",
"142 -115 CURVE",
"141 -116 OFFCURVE",
"139 -116 OFFCURVE",
"138 -116 CURVE SMOOTH",
"138 -116 LINE",
"119 -129 OFFCURVE",
"106 -145 OFFCURVE",
"106 -164 CURVE SMOOTH",
"106 -200 OFFCURVE",
"148 -229 OFFCURVE",
"200 -229 CURVE SMOOTH",
"203 -229 OFFCURVE",
"206 -229 OFFCURVE",
"207 -227 CURVE",
"220 -227 OFFCURVE",
"233 -224 OFFCURVE",
"244 -220 CURVE",
"244 -220 OFFCURVE",
"246 -220 OFFCURVE",
"249 -219 CURVE",
"249 -219 OFFCURVE",
"250 -219 OFFCURVE",
"250 -219 CURVE",
"252 -217 OFFCURVE",
"253 -217 OFFCURVE",
"255 -216 CURVE",
"255 -216 OFFCURVE",
"255 -216 OFFCURVE",
"256 -216 CURVE",
"256 -216 OFFCURVE",
"256 -216 OFFCURVE",
"256 -216 CURVE",
"275 -206 OFFCURVE",
"289 -194 OFFCURVE",
"302 -180 CURVE",
"319 -200 OFFCURVE",
"335 -223 OFFCURVE",
"348 -243 CURVE",
"427 -131 LINE",
"509 -243 LINE",
"554 -243 LINE",
"554 324 LINE SMOOTH",
"554 580 OFFCURVE",
"404 572 OFFCURVE",
"234 572 CURVE SMOOTH"
);
},
{
closed = 1;
nodes = (
"171 23 OFFCURVE",
"164 24 OFFCURVE",
"157 30 CURVE SMOOTH",
"139 43 OFFCURVE",
"124 76 OFFCURVE",
"118 99 CURVE SMOOTH",
"109 132 OFFCURVE",
"109 186 OFFCURVE",
"137 194 CURVE",
"144 197 OFFCURVE",
"151 194 OFFCURVE",
"157 190 CURVE",
"175 177 OFFCURVE",
"191 145 OFFCURVE",
"197 121 CURVE SMOOTH",
"206 88 OFFCURVE",
"206 33 OFFCURVE",
"180 24 CURVE"
);
},
{
closed = 1;
nodes = (
"164 -204 OFFCURVE",
"137 -187 OFFCURVE",
"137 -164 CURVE SMOOTH",
"137 -142 OFFCURVE",
"164 -125 OFFCURVE",
"197 -125 CURVE SMOOTH",
"207 -125 LINE",
"223 -128 OFFCURVE",
"242 -135 OFFCURVE",
"256 -141 CURVE",
"263 -147 OFFCURVE",
"272 -152 OFFCURVE",
"279 -158 CURVE",
"279 -158 OFFCURVE",
"279 -158 OFFCURVE",
"279 -158 CURVE",
"273 -167 OFFCURVE",
"267 -173 OFFCURVE",
"260 -178 CURVE",
"259 -180 OFFCURVE",
"259 -180 OFFCURVE",
"257 -181 CURVE",
"243 -190 OFFCURVE",
"224 -200 OFFCURVE",
"207 -203 CURVE",
"204 -204 OFFCURVE",
"201 -204 OFFCURVE",
"197 -204 CURVE SMOOTH"
);
}
);
width = 646;
}
);
note = uni0E0F;
unicode = 0E0F;
},
